<mxfile host="65bd71144e">
    <diagram id="UAFRX9Jbn8M04F9aqXdQ" name="第 1 页">
        <mxGraphModel dx="968" dy="558" grid="1" gridSize="10" guides="1" tooltips="1" connect="1" arrows="1" fold="1" page="1" pageScale="1" pageWidth="827" pageHeight="1169" math="0" shadow="0">
            <root>
                <mxCell id="0"/>
                <mxCell id="1" parent="0"/>
                <mxCell id="2" value="" style="shape=image;verticalLabelPosition=bottom;labelBackgroundColor=#ffffff;verticalAlign=top;aspect=fixed;imageAspect=0;image=data:image/svg+xml,PHN2ZyB4bWxucz0iaHR0cDovL3d3dy53My5vcmcvMjAwMC9zdmciIHhtbG5zOnhsaW5rPSJodHRwOi8vd3d3LnczLm9yZy8xOTk5L3hsaW5rIiB4bWxuczpzdmdqcz0iaHR0cDovL3N2Z2pzLmNvbS9zdmdqcyIgaWQ9IlN2Z2pzU3ZnMTAwNiIgd2lkdGg9IjEzMzcuMjE4NzUiIGhlaWdodD0iNzgyLjAwMDAxNTI1ODc4OTEiIHZlcnNpb249IjEuMSIgdmlld0JveD0iMCAwIDEzMzcuMjE4NzUgNzgyLjAwMDAxNTI1ODc4OTEiPjxkZWZzIGlkPSJTdmdqc0RlZnMxMDA3Ij48bWFya2VyIGlkPSJTdmdqc01hcmtlcjEwMjgiIG1hcmtlcldpZHRoPSIxNCIgbWFya2VySGVpZ2h0PSIxMCIgcmVmWD0iMTAiIHJlZlk9IjUiIHZpZXdCb3g9IjAgMCAxNCAxMCIgb3JpZW50PSJhdXRvIiBtYXJrZXJVbml0cz0idXNlclNwYWNlT25Vc2UiIHN0cm9rZS1kYXNoYXJyYXk9IjAsMCI+PHBhdGggaWQ9IlN2Z2pzUGF0aDEwMjkiIGQ9Ik0wLDAgTDE0LDUgTDAsMTAgTDAsMCIgZmlsbD0iIzMyMzIzMiIgc3Ryb2tlPSIjMzIzMjMyIiBzdHJva2Utd2lkdGg9IjEiLz48L21hcmtlcj48bWFya2VyIGlkPSJTdmdqc01hcmtlcjEwMzIiIG1hcmtlcldpZHRoPSIxNCIgbWFya2VySGVpZ2h0PSIxMCIgcmVmWD0iMTAiIHJlZlk9IjUiIHZpZXdCb3g9IjAgMCAxNCAxMCIgb3JpZW50PSJhdXRvIiBtYXJrZXJVbml0cz0idXNlclNwYWNlT25Vc2UiIHN0cm9rZS1kYXNoYXJyYXk9IjAsMCI+PHBhdGggaWQ9IlN2Z2pzUGF0aDEwMzMiIGQ9Ik0wLDAgTDE0LDUgTDAsMTAgTDAsMCIgZmlsbD0iIzMyMzIzMiIgc3Ryb2tlPSIjMzIzMjMyIiBzdHJva2Utd2lkdGg9IjEiLz48L21hcmtlcj48bWFya2VyIGlkPSJTdmdqc01hcmtlcjEwNTIiIG1hcmtlcldpZHRoPSIxNCIgbWFya2VySGVpZ2h0PSIxMCIgcmVmWD0iMTAiIHJlZlk9IjUiIHZpZXdCb3g9IjAgMCAxNCAxMCIgb3JpZW50PSJhdXRvIiBtYXJrZXJVbml0cz0idXNlclNwYWNlT25Vc2UiIHN0cm9rZS1kYXNoYXJyYXk9IjAsMCI+PHBhdGggaWQ9IlN2Z2pzUGF0aDEwNTMiIGQ9Ik0wLDAgTDE0LDUgTDAsMTAgTDAsMCIgZmlsbD0iIzMyMzIzMiIgc3Ryb2tlPSIjMzIzMjMyIiBzdHJva2Utd2lkdGg9IjEiLz48L21hcmtlcj48bWFya2VyIGlkPSJTdmdqc01hcmtlcjEwNzQiIG1hcmtlcldpZHRoPSIxNCIgbWFya2VySGVpZ2h0PSIxMCIgcmVmWD0iMTAiIHJlZlk9IjUiIHZpZXdCb3g9IjAgMCAxNCAxMCIgb3JpZW50PSJhdXRvIiBtYXJrZXJVbml0cz0idXNlclNwYWNlT25Vc2UiIHN0cm9rZS1kYXNoYXJyYXk9IjAsMCI+PHBhdGggaWQ9IlN2Z2pzUGF0aDEwNzUiIGQ9Ik0wLDAgTDE0LDUgTDAsMTAgTDAsMCIgZmlsbD0iIzMyMzIzMiIgc3Ryb2tlPSIjMzIzMjMyIiBzdHJva2Utd2lkdGg9IjEiLz48L21hcmtlcj48bWFya2VyIGlkPSJTdmdqc01hcmtlcjEwODIiIG1hcmtlcldpZHRoPSIxNCIgbWFya2VySGVpZ2h0PSIxMCIgcmVmWD0iMTAiIHJlZlk9IjUiIHZpZXdCb3g9IjAgMCAxNCAxMCIgb3JpZW50PSJhdXRvIiBtYXJrZXJVbml0cz0idXNlclNwYWNlT25Vc2UiIHN0cm9rZS1kYXNoYXJyYXk9IjAsMCI+PHBhdGggaWQ9IlN2Z2pzUGF0aDEwODMiIGQ9Ik0wLDAgTDE0LDUgTDAsMTAgTDAsMCIgZmlsbD0iIzE5NzZkMiIgc3Ryb2tlPSIjMTk3NmQyIiBzdHJva2Utd2lkdGg9IjEiLz48L21hcmtlcj48bWFya2VyIGlkPSJTdmdqc01hcmtlcjExMDAiIG1hcmtlcldpZHRoPSIxNCIgbWFya2VySGVpZ2h0PSIxMCIgcmVmWD0iMTAiIHJlZlk9IjUiIHZpZXdCb3g9IjAgMCAxNCAxMCIgb3JpZW50PSJhdXRvIiBtYXJrZXJVbml0cz0idXNlclNwYWNlT25Vc2UiIHN0cm9rZS1kYXNoYXJyYXk9IjAsMCI+PHBhdGggaWQ9IlN2Z2pzUGF0aDExMDEiIGQ9Ik0wLDAgTDE0LDUgTDAsMTAgTDAsMCIgZmlsbD0iIzMyMzIzMiIgc3Ryb2tlPSIjMzIzMjMyIiBzdHJva2Utd2lkdGg9IjEiLz48L21hcmtlcj48bWFya2VyIGlkPSJTdmdqc01hcmtlcjExMTYiIG1hcmtlcldpZHRoPSIxNCIgbWFya2VySGVpZ2h0PSIxMCIgcmVmWD0iMTAiIHJlZlk9IjUiIHZpZXdCb3g9IjAgMCAxNCAxMCIgb3JpZW50PSJhdXRvIiBtYXJrZXJVbml0cz0idXNlclNwYWNlT25Vc2UiIHN0cm9rZS1kYXNoYXJyYXk9IjAsMCI+PHBhdGggaWQ9IlN2Z2pzUGF0aDExMTciIGQ9Ik0wLDAgTDE0LDUgTDAsMTAgTDAsMCIgZmlsbD0iIzE5NzZkMiIgc3Ryb2tlPSIjMTk3NmQyIiBzdHJva2Utd2lkdGg9IjEiLz48L21hcmtlcj48bWFya2VyIGlkPSJTdmdqc01hcmtlcjExMzIiIG1hcmtlcldpZHRoPSIxNCIgbWFya2VySGVpZ2h0PSIxMCIgcmVmWD0iMTAiIHJlZlk9IjUiIHZpZXdCb3g9IjAgMCAxNCAxMCIgb3JpZW50PSJhdXRvIiBtYXJrZXJVbml0cz0idXNlclNwYWNlT25Vc2UiIHN0cm9rZS1kYXNoYXJyYXk9IjAsMCI+PHBhdGggaWQ9IlN2Z2pzUGF0aDExMzMiIGQ9Ik0wLDAgTDE0LDUgTDAsMTAgTDAsMCIgZmlsbD0iIzE5NzZkMiIgc3Ryb2tlPSIjMTk3NmQyIiBzdHJva2Utd2lkdGg9IjEiLz48L21hcmtlcj48bWFya2VyIGlkPSJTdmdqc01hcmtlcjExMzYiIG1hcmtlcldpZHRoPSIxNCIgbWFya2VySGVpZ2h0PSIxMCIgcmVmWD0iMTAiIHJlZlk9IjUiIHZpZXdCb3g9IjAgMCAxNCAxMCIgb3JpZW50PSJhdXRvIiBtYXJrZXJVbml0cz0idXNlclNwYWNlT25Vc2UiIHN0cm9rZS1kYXNoYXJyYXk9IjAsMCI+PHBhdGggaWQ9IlN2Z2pzUGF0aDExMzciIGQ9Ik0wLDAgTDE0LDUgTDAsMTAgTDAsMCIgZmlsbD0iIzE5NzZkMiIgc3Ryb2tlPSIjMTk3NmQyIiBzdHJva2Utd2lkdGg9IjEiLz48L21hcmtlcj48bWFya2VyIGlkPSJTdmdqc01hcmtlcjExNTQiIG1hcmtlcldpZHRoPSIxNCIgbWFya2VySGVpZ2h0PSIxMCIgcmVmWD0iMTAiIHJlZlk9IjUiIHZpZXdCb3g9IjAgMCAxNCAxMCIgb3JpZW50PSJhdXRvIiBtYXJrZXJVbml0cz0idXNlclNwYWNlT25Vc2UiIHN0cm9rZS1kYXNoYXJyYXk9IjAsMCI+PHBhdGggaWQ9IlN2Z2pzUGF0aDExNTUiIGQ9Ik0wLDAgTDE0LDUgTDAsMTAgTDAsMCIgZmlsbD0iIzMyMzIzMiIgc3Ryb2tlPSIjMzIzMjMyIiBzdHJva2Utd2lkdGg9IjEiLz48L21hcmtlcj48bWFya2VyIGlkPSJTdmdqc01hcmtlcjExNTgiIG1hcmtlcldpZHRoPSIxNCIgbWFya2VySGVpZ2h0PSIxMCIgcmVmWD0iMTAiIHJlZlk9IjUiIHZpZXdCb3g9IjAgMCAxNCAxMCIgb3JpZW50PSJhdXRvIiBtYXJrZXJVbml0cz0idXNlclNwYWNlT25Vc2UiIHN0cm9rZS1kYXNoYXJyYXk9IjAsMCI+PHBhdGggaWQ9IlN2Z2pzUGF0aDExNTkiIGQ9Ik0wLDAgTDE0LDUgTDAsMTAgTDAsMCIgZmlsbD0iIzMyMzIzMiIgc3Ryb2tlPSIjMzIzMjMyIiBzdHJva2Utd2lkdGg9IjEiLz48L21hcmtlcj48bWFya2VyIGlkPSJTdmdqc01hcmtlcjExNzQiIG1hcmtlcldpZHRoPSIxNCIgbWFya2VySGVpZ2h0PSIxMCIgcmVmWD0iMTAiIHJlZlk9IjUiIHZpZXdCb3g9IjAgMCAxNCAxMCIgb3JpZW50PSJhdXRvIiBtYXJrZXJVbml0cz0idXNlclNwYWNlT25Vc2UiIHN0cm9rZS1kYXNoYXJyYXk9IjAsMCI+PHBhdGggaWQ9IlN2Z2pzUGF0aDExNzUiIGQ9Ik0wLDAgTDE0LDUgTDAsMTAgTDAsMCIgZmlsbD0iIzMyMzIzMiIgc3Ryb2tlPSIjMzIzMjMyIiBzdHJva2Utd2lkdGg9IjEiLz48L21hcmtlcj48bWFya2VyIGlkPSJTdmdqc01hcmtlcjExOTIiIG1hcmtlcldpZHRoPSIxNCIgbWFya2VySGVpZ2h0PSIxMCIgcmVmWD0iMTAiIHJlZlk9IjUiIHZpZXdCb3g9IjAgMCAxNCAxMCIgb3JpZW50PSJhdXRvIiBtYXJrZXJVbml0cz0idXNlclNwYWNlT25Vc2UiIHN0cm9rZS1kYXNoYXJyYXk9IjAsMCI+PHBhdGggaWQ9IlN2Z2pzUGF0aDExOTMiIGQ9Ik0wLDAgTDE0LDUgTDAsMTAgTDAsMCIgZmlsbD0iIzMyMzIzMiIgc3Ryb2tlPSIjMzIzMjMyIiBzdHJva2Utd2lkdGg9IjEiLz48L21hcmtlcj48bWFya2VyIGlkPSJTdmdqc01hcmtlcjEyMDAiIG1hcmtlcldpZHRoPSIxNCIgbWFya2VySGVpZ2h0PSIxMCIgcmVmWD0iMTAiIHJlZlk9IjUiIHZpZXdCb3g9IjAgMCAxNCAxMCIgb3JpZW50PSJhdXRvIiBtYXJrZXJVbml0cz0idXNlclNwYWNlT25Vc2UiIHN0cm9rZS1kYXNoYXJyYXk9IjAsMCI+PHBhdGggaWQ9IlN2Z2pzUGF0aDEyMDEiIGQ9Ik0wLDAgTDE0LDUgTDAsMTAgTDAsMCIgZmlsbD0iIzE5NzZkMiIgc3Ryb2tlPSIjMTk3NmQyIiBzdHJva2Utd2lkdGg9IjEiLz48L21hcmtlcj48bWFya2VyIGlkPSJTdmdqc01hcmtlcjEyMTYiIG1hcmtlcldpZHRoPSIxNCIgbWFya2VySGVpZ2h0PSIxMCIgcmVmWD0iMTAiIHJlZlk9IjUiIHZpZXdCb3g9IjAgMCAxNCAxMCIgb3JpZW50PSJhdXRvIiBtYXJrZXJVbml0cz0idXNlclNwYWNlT25Vc2UiIHN0cm9rZS1kYXNoYXJyYXk9IjAsMCI+PHBhdGggaWQ9IlN2Z2pzUGF0aDEyMTciIGQ9Ik0wLDAgTDE0LDUgTDAsMTAgTDAsMCIgZmlsbD0iIzMyMzIzMiIgc3Ryb2tlPSIjMzIzMjMyIiBzdHJva2Utd2lkdGg9IjEiLz48L21hcmtlcj48bWFya2VyIGlkPSJTdmdqc01hcmtlcjEyMzAiIG1hcmtlcldpZHRoPSIxNCIgbWFya2VySGVpZ2h0PSIxMCIgcmVmWD0iMTAiIHJlZlk9IjUiIHZpZXdCb3g9IjAgMCAxNCAxMCIgb3JpZW50PSJhdXRvIiBtYXJrZXJVbml0cz0idXNlclNwYWNlT25Vc2UiIHN0cm9rZS1kYXNoYXJyYXk9IjAsMCI+PHBhdGggaWQ9IlN2Z2pzUGF0aDEyMzEiIGQ9Ik0wLDAgTDE0LDUgTDAsMTAgTDAsMCIgZmlsbD0iIzMyMzIzMiIgc3Ryb2tlPSIjMzIzMjMyIiBzdHJva2Utd2lkdGg9IjEiLz48L21hcmtlcj48bWFya2VyIGlkPSJTdmdqc01hcmtlcjEyMzQiIG1hcmtlcldpZHRoPSIxNCIgbWFya2VySGVpZ2h0PSIxMCIgcmVmWD0iMTAiIHJlZlk9IjUiIHZpZXdCb3g9IjAgMCAxNCAxMCIgb3JpZW50PSJhdXRvIiBtYXJrZXJVbml0cz0idXNlclNwYWNlT25Vc2UiIHN0cm9rZS1kYXNoYXJyYXk9IjAsMCI+PHBhdGggaWQ9IlN2Z2pzUGF0aDEyMzUiIGQ9Ik0wLDAgTDE0LDUgTDAsMTAgTDAsMCIgZmlsbD0iIzMyMzIzMiIgc3Ryb2tlPSIjMzIzMjMyIiBzdHJva2Utd2lkdGg9IjEiLz48L21hcmtlcj48bWFya2VyIGlkPSJTdmdqc01hcmtlcjEyNjIiIG1hcmtlcldpZHRoPSIxNCIgbWFya2VySGVpZ2h0PSIxMCIgcmVmWD0iMTAiIHJlZlk9IjUiIHZpZXdCb3g9IjAgMCAxNCAxMCIgb3JpZW50PSJhdXRvIiBtYXJrZXJVbml0cz0idXNlclNwYWNlT25Vc2UiIHN0cm9rZS1kYXNoYXJyYXk9IjAsMCI+PHBhdGggaWQ9IlN2Z2pzUGF0aDEyNjMiIGQ9Ik0wLDAgTDE0LDUgTDAsMTAgTDAsMCIgZmlsbD0iIzMyMzIzMiIgc3Ryb2tlPSIjMzIzMjMyIiBzdHJva2Utd2lkdGg9IjEiLz48L21hcmtlcj48bWFya2VyIGlkPSJTdmdqc01hcmtlcjEyNzYiIG1hcmtlcldpZHRoPSIxNCIgbWFya2VySGVpZ2h0PSIxMCIgcmVmWD0iMTAiIHJlZlk9IjUiIHZpZXdCb3g9IjAgMCAxNCAxMCIgb3JpZW50PSJhdXRvIiBtYXJrZXJVbml0cz0idXNlclNwYWNlT25Vc2UiIHN0cm9rZS1kYXNoYXJyYXk9IjAsMCI+PHBhdGggaWQ9IlN2Z2pzUGF0aDEyNzciIGQ9Ik0wLDAgTDE0LDUgTDAsMTAgTDAsMCIgZmlsbD0iIzE5NzZkMiIgc3Ryb2tlPSIjMTk3NmQyIiBzdHJva2Utd2lkdGg9IjEiLz48L21hcmtlcj48bWFya2VyIGlkPSJTdmdqc01hcmtlcjEyOTQiIG1hcmtlcldpZHRoPSIxNCIgbWFya2VySGVpZ2h0PSIxMCIgcmVmWD0iMTAiIHJlZlk9IjUiIHZpZXdCb3g9IjAgMCAxNCAxMCIgb3JpZW50PSJhdXRvIiBtYXJrZXJVbml0cz0idXNlclNwYWNlT25Vc2UiIHN0cm9rZS1kYXNoYXJyYXk9IjAsMCI+PHBhdGggaWQ9IlN2Z2pzUGF0aDEyOTUiIGQ9Ik0wLDAgTDE0LDUgTDAsMTAgTDAsMCIgZmlsbD0iIzMyMzIzMiIgc3Ryb2tlPSIjMzIzMjMyIiBzdHJva2Utd2lkdGg9IjEiLz48L21hcmtlcj48bWFya2VyIGlkPSJTdmdqc01hcmtlcjEzMTAiIG1hcmtlcldpZHRoPSIxNCIgbWFya2VySGVpZ2h0PSIxMCIgcmVmWD0iMTAiIHJlZlk9IjUiIHZpZXdCb3g9IjAgMCAxNCAxMCIgb3JpZW50PSJhdXRvIiBtYXJrZXJVbml0cz0idXNlclNwYWNlT25Vc2UiIHN0cm9rZS1kYXNoYXJyYXk9IjAsMCI+PHBhdGggaWQ9IlN2Z2pzUGF0aDEzMTEiIGQ9Ik0wLDAgTDE0LDUgTDAsMTAgTDAsMCIgZmlsbD0iIzMyMzIzMiIgc3Ryb2tlPSIjMzIzMjMyIiBzdHJva2Utd2lkdGg9IjEiLz48L21hcmtlcj48bWFya2VyIGlkPSJTdmdqc01hcmtlcjEzMzIiIG1hcmtlcldpZHRoPSIxNCIgbWFya2VySGVpZ2h0PSIxMCIgcmVmWD0iMTAiIHJlZlk9IjUiIHZpZXdCb3g9IjAgMCAxNCAxMCIgb3JpZW50PSJhdXRvIiBtYXJrZXJVbml0cz0idXNlclNwYWNlT25Vc2UiIHN0cm9rZS1kYXNoYXJyYXk9IjAsMCI+PHBhdGggaWQ9IlN2Z2pzUGF0aDEzMzMiIGQ9Ik0wLDAgTDE0LDUgTDAsMTAgTDAsMCIgZmlsbD0iIzMyMzIzMiIgc3Ryb2tlPSIjMzIzMjMyIiBzdHJva2Utd2lkdGg9IjEiLz48L21hcmtlcj48bWFya2VyIGlkPSJTdmdqc01hcmtlcjEzMzYiIG1hcmtlcldpZHRoPSIxNCIgbWFya2VySGVpZ2h0PSIxMCIgcmVmWD0iMTAiIHJlZlk9IjUiIHZpZXdCb3g9IjAgMCAxNCAxMCIgb3JpZW50PSJhdXRvIiBtYXJrZXJVbml0cz0idXNlclNwYWNlT25Vc2UiIHN0cm9rZS1kYXNoYXJyYXk9IjAsMCI+PHBhdGggaWQ9IlN2Z2pzUGF0aDEzMzciIGQ9Ik0wLDAgTDE0LDUgTDAsMTAgTDAsMCIgZmlsbD0iIzE5NzZkMiIgc3Ryb2tlPSIjMTk3NmQyIiBzdHJva2Utd2lkdGg9IjEiLz48L21hcmtlcj48bWFya2VyIGlkPSJTdmdqc01hcmtlcjEzNDAiIG1hcmtlcldpZHRoPSIxNCIgbWFya2VySGVpZ2h0PSIxMCIgcmVmWD0iMTAiIHJlZlk9IjUiIHZpZXdCb3g9IjAgMCAxNCAxMCIgb3JpZW50PSJhdXRvIiBtYXJrZXJVbml0cz0idXNlclNwYWNlT25Vc2UiIHN0cm9rZS1kYXNoYXJyYXk9IjAsMCI+PHBhdGggaWQ9IlN2Z2pzUGF0aDEzNDEiIGQ9Ik0wLDAgTDE0LDUgTDAsMTAgTDAsMCIgZmlsbD0iIzMyMzIzMiIgc3Ryb2tlPSIjMzIzMjMyIiBzdHJva2Utd2lkdGg9IjEiLz48L21hcmtlcj48bWFya2VyIGlkPSJTdmdqc01hcmtlcjEzNTYiIG1hcmtlcldpZHRoPSIxNCIgbWFya2VySGVpZ2h0PSIxMCIgcmVmWD0iMTAiIHJlZlk9IjUiIHZpZXdCb3g9IjAgMCAxNCAxMCIgb3JpZW50PSJhdXRvIiBtYXJrZXJVbml0cz0idXNlclNwYWNlT25Vc2UiIHN0cm9rZS1kYXNoYXJyYXk9IjAsMCI+PHBhdGggaWQ9IlN2Z2pzUGF0aDEzNTciIGQ9Ik0wLDAgTDE0LDUgTDAsMTAgTDAsMCIgZmlsbD0iIzMyMzIzMiIgc3Ryb2tlPSIjMzIzMjMyIiBzdHJva2Utd2lkdGg9IjEiLz48L21hcmtlcj48bWFya2VyIGlkPSJTdmdqc01hcmtlcjEzNjQiIG1hcmtlcldpZHRoPSIxNCIgbWFya2VySGVpZ2h0PSIxMCIgcmVmWD0iMTAiIHJlZlk9IjUiIHZpZXdCb3g9IjAgMCAxNCAxMCIgb3JpZW50PSJhdXRvIiBtYXJrZXJVbml0cz0idXNlclNwYWNlT25Vc2UiIHN0cm9rZS1kYXNoYXJyYXk9IjAsMCI+PHBhdGggaWQ9IlN2Z2pzUGF0aDEzNjUiIGQ9Ik0wLDAgTDE0LDUgTDAsMTAgTDAsMCIgZmlsbD0iIzMyMzIzMiIgc3Ryb2tlPSIjMzIzMjMyIiBzdHJva2Utd2lkdGg9IjEiLz48L21hcmtlcj48bWFya2VyIGlkPSJTdmdqc01hcmtlcjEzNjgiIG1hcmtlcldpZHRoPSIxNiIgbWFya2VySGVpZ2h0PSIxMiIgcmVmWD0iMCIgcmVmWT0iNiIgdmlld0JveD0iMCAwIDE2IDEyIiBvcmllbnQ9ImF1dG8iIG1hcmtlclVuaXRzPSJ1c2VyU3BhY2VPblVzZSIgc3Ryb2tlLWRhc2hhcnJheT0iMCwwIj48cGF0aCBpZD0iU3ZnanNQYXRoMTM2OSIgZD0iTTEsNiBMMTUsMSBMMTUsMTFMMSw2IiBmaWxsPSIjZmZmZmZmIiBzdHJva2U9IiM0Y2FmNTAiIHN0cm9rZS13aWR0aD0iMiIvPjwvbWFya2VyPjxtYXJrZXIgaWQ9IlN2Z2pzTWFya2VyMTM3MCIgbWFya2VyV2lkdGg9IjE0IiBtYXJrZXJIZWlnaHQ9IjEyIiByZWZYPSIxNiIgcmVmWT0iNiIgdmlld0JveD0iMCAwIDE0IDEyIiBvcmllbnQ9ImF1dG8iIG1hcmtlclVuaXRzPSJ1c2VyU3BhY2VPblVzZSIgc3Ryb2tlLWRhc2hhcnJheT0iMCwwIj48cGF0aCBpZD0iU3ZnanNQYXRoMTM3MSIgZD0iTTEsMSBMMTQsNiBMMSwxMUwxLDEiIGZpbGw9IiNmZmZmZmYiIHN0cm9rZT0iIzRjYWY1MCIgc3Ryb2tlLXdpZHRoPSIyIi8+PC9tYXJrZXI+PG1hcmtlciBpZD0iU3ZnanNNYXJrZXIxMzkyIiBtYXJrZXJXaWR0aD0iMTQiIG1hcmtlckhlaWdodD0iMTAiIHJlZlg9IjEwIiByZWZZPSI1IiB2aWV3Qm94PSIwIDAgMTQgMTAiIG9yaWVudD0iYXV0byIgbWFya2VyVW5pdHM9InVzZXJTcGFjZU9uVXNlIiBzdHJva2UtZGFzaGFycmF5PSIwLDAiPjxwYXRoIGlkPSJTdmdqc1BhdGgxMzkzIiBkPSJNMCwwIEwxNCw1IEwwLDEwIEwwLDAiIGZpbGw9IiMzMjMyMzIiIHN0cm9rZT0iIzMyMzIzMiIgc3Ryb2tlLXdpZHRoPSIxIi8+PC9tYXJrZXI+PG1hcmtlciBpZD0iU3ZnanNNYXJrZXIxNDIwIiBtYXJrZXJXaWR0aD0iMTQiIG1hcmtlckhlaWdodD0iMTAiIHJlZlg9IjEwIiByZWZZPSI1IiB2aWV3Qm94PSIwIDAgMTQgMTAiIG9yaWVudD0iYXV0byIgbWFya2VyVW5pdHM9InVzZXJTcGFjZU9uVXNlIiBzdHJva2UtZGFzaGFycmF5PSIwLDAiPjxwYXRoIGlkPSJTdmdqc1BhdGgxNDIxIiBkPSJNMCwwIEwxNCw1IEwwLDEwIEwwLDAiIGZpbGw9IiMzMjMyMzIiIHN0cm9rZT0iIzMyMzIzMiIgc3Ryb2tlLXdpZHRoPSIxIi8+PC9tYXJrZXI+PC9kZWZzPjxnIGlkPSJTdmdqc0cxMDA4IiB0cmFuc2Zvcm09InRyYW5zbGF0ZSgyNSwxMjMuMDA2MjQ0NjU5NDIzODMpIj48cGF0aCBpZD0iU3ZnanNQYXRoMTAwOSIgZD0iTSAwIDRRIDAgMCA0IDBMIDEzNiAwUSAxNDAgMCAxNDAgNEwgMTQwIDU3USAxNDAgNjEgMTM2IDYxTCA0IDYxUSAwIDYxIDAgNTdaIiBzdHJva2U9InJnYmEoNTAsNTAsNTAsMSkiIHN0cm9rZS13aWR0aD0iMiIgZmlsbC1vcGFjaXR5PSIxIiBmaWxsPSIjZmZjZGQyIi8+PGcgaWQ9IlN2Z2pzRzEwMTAiPjx0ZXh0IGlkPSJTdmdqc1RleHQxMDExIiBmb250LWZhbWlseT0i5b6u6L2v6ZuF6buRIiB0ZXh0LWFuY2hvcj0ibWlkZGxlIiBmb250LXNpemU9IjEzcHgiIHdpZHRoPSIxMjBweCIgZmlsbD0iIzMyMzIzMiIgZm9udC13ZWlnaHQ9IjQwMCIgYWxpZ249Im1pZGRsZSIgbGluZWhlaWdodD0iMTI1JSIgYW5jaG9yPSJtaWRkbGUiIGZhbWlseT0i5b6u6L2v6ZuF6buRIiBzaXplPSIxM3B4IiB3ZWlnaHQ9IjQwMCIgZm9udC1zdHlsZT0iIiBvcGFjaXR5PSIxIiB5PSIxMS4zNzUiIHRyYW5zZm9ybT0icm90YXRlKDApIj48dHNwYW4gaWQ9IlN2Z2pzVHNwYW4xMDEyIiBkeT0iMTYiIHg9IjcwIj48dHNwYW4gaWQ9IlN2Z2pzVHNwYW4xMDEzIiBzdHlsZT0idGV4dC1kZWNvcmF0aW9uOjsiPmxvY2vlh73mlbA8L3RzcGFuPjwvdHNwYW4+PHRzcGFuIGlkPSJTdmdqc1RzcGFuMTAxNCIgZHk9IjE2IiB4PSI3MCI+PHRzcGFuIGlkPSJTdmdqc1RzcGFuMTAxNSIgc3R5bGU9InRleHQtZGVjb3JhdGlvbjo7Ij7osIPnlKhzeW5jLmxvY2soKTwvdHNwYW4+PC90c3Bhbj48L3RleHQ+PC9nPjwvZz48ZyBpZD0iU3ZnanNHMTAxNiIgdHJhbnNmb3JtPSJ0cmFuc2xhdGUoMjQ2LjU5OTk5MDg0NDcyNjU2LDUzLjAwNjI0NDY1OTQyMzgzKSI+PHBhdGggaWQ9IlN2Z2pzUGF0aDEwMTciIGQ9Ik0gMCA0USAwIDAgNCAwTCAxMTMgMFEgMTE3IDAgMTE3IDRMIDExNyA2NFEgMTE3IDY4IDExMyA2OEwgNCA2OFEgMCA2OCAwIDY0WiIgc3Ryb2tlPSJyZ2JhKDUwLDUwLDUwLDEpIiBzdHJva2Utd2lkdGg9IjIiIGZpbGwtb3BhY2l0eT0iMSIgZmlsbD0iI2ZmZmZmZiIvPjxnIGlkPSJTdmdqc0cxMDE4Ij48dGV4dCBpZD0iU3ZnanNUZXh0MTAxOSIgZm9udC1mYW1pbHk9IuW+rui9r+mbhem7kSIgdGV4dC1hbmNob3I9Im1pZGRsZSIgZm9udC1zaXplPSIxM3B4IiB3aWR0aD0iOTdweCIgZmlsbD0iIzMyMzIzMiIgZm9udC13ZWlnaHQ9IjQwMCIgYWxpZ249Im1pZGRsZSIgbGluZWhlaWdodD0iMTI1JSIgYW5jaG9yPSJtaWRkbGUiIGZhbWlseT0i5b6u6L2v6ZuF6buRIiBzaXplPSIxM3B4IiB3ZWlnaHQ9IjQwMCIgZm9udC1zdHlsZT0iIiBvcGFjaXR5PSIxIiB5PSI2Ljg3NSIgdHJhbnNmb3JtPSJyb3RhdGUoMCkiPjx0c3BhbiBpZD0iU3ZnanNUc3BhbjEwMjAiIGR5PSIxNiIgeD0iNTguNSI+PHRzcGFuIGlkPSJTdmdqc1RzcGFuMTAyMSIgc3R5bGU9InRleHQtZGVjb3JhdGlvbjo7Ij7lhazlubPplIE8L3RzcGFuPjwvdHNwYW4+PHRzcGFuIGlkPSJTdmdqc1RzcGFuMTAyMiIgZHk9IjE2IiB4PSI1OC41Ij48dHNwYW4gaWQ9IlN2Z2pzVHNwYW4xMDIzIiBzdHlsZT0idGV4dC1kZWNvcmF0aW9uOjsiPkZhaXJTeW5jOjpsb2NrPC90c3Bhbj48L3RzcGFuPjx0c3BhbiBpZD0iU3ZnanNUc3BhbjEwMjQiIGR5PSIxNiIgeD0iNTguNSI+PHRzcGFuIGlkPSJTdmdqc1RzcGFuMTAyNSIgc3R5bGU9InRleHQtZGVjb3JhdGlvbjo7Ij5hY3F1aXJlKDEpPC90c3Bhbj48L3RzcGFuPjwvdGV4dD48L2c+PC9nPjxnIGlkPSJTdmdqc0cxMDI2Ij48cGF0aCBpZD0iU3ZnanNQYXRoMTAyNyIgZD0iTTE2NiAxNTMuNTA2MjQ0NjU5NDIzODNMMjA2LjU5OTk5MDg0NDcyNjU2IDE1My41MDYyNDQ2NTk0MjM4M0wyMDYuNTk5OTkwODQ0NzI2NTYgODcuMDA2MjQ0NjU5NDIzODNMMjQyLjk5OTk5MDg0NDcyNjU0IDg3LjAwNjI0NDY1OTQyMzgzIiBzdHJva2U9IiMzMjMyMzIiIHN0cm9rZS13aWR0aD0iMiIgZmlsbD0ibm9uZSIgbWFya2VyLWVuZD0idXJsKCNTdmdqc01hcmtlcjEwMjgpIi8+PC9nPjxnIGlkPSJTdmdqc0cxMDMwIj48cGF0aCBpZD0iU3ZnanNQYXRoMTAzMSIgZD0iTTM2NC41OTk5OTA4NDQ3MjY1NiA4OC44ODI5NTY5ODgxOTA5M0w0NDkuNTk5OTkwODQ0NzI2NTYgODguODgyOTU2OTg4MTkwOTNMNDQ5LjU5OTk5MDg0NDcyNjU2IDg4Ljg4Mjk1Njk4ODE5MDkzTDUzNi45OTk5OTA4NDQ3MjY1IDg4Ljg4Mjk1Njk4ODE5MDkzIiBzdHJva2UtZGFzaGFycmF5PSIzLDMiIHN0cm9rZT0iIzMyMzIzMiIgc3Ryb2tlLXdpZHRoPSIyIiBmaWxsPSJub25lIiBtYXJrZXItZW5kPSJ1cmwoI1N2Z2pzTWFya2VyMTAzMikiLz48cmVjdCBpZD0iU3ZnanNSZWN0MTAzNCIgd2lkdGg9IjEwNCIgaGVpZ2h0PSIxNiIgeD0iMzk4Ljc5OTk5MDg0NDcyNjU1IiB5PSI4MC44ODI5NTY5ODgxOTA5MyIgZmlsbD0iI2ZmZmZmZiIvPjx0ZXh0IGlkPSJTdmdqc1RleHQxMDM1IiBmb250LWZhbWlseT0i5b6u6L2v6ZuF6buRIiB0ZXh0LWFuY2hvcj0ibWlkZGxlIiBmb250LXNpemU9IjEzcHgiIHdpZHRoPSIxMDRweCIgZmlsbD0iIzMyMzIzMiIgZm9udC13ZWlnaHQ9IjQwMCIgYWxpZ249InRvcCIgbGluZWhlaWdodD0iMTZweCIgYW5jaG9yPSJtaWRkbGUiIGZhbWlseT0i5b6u6L2v6ZuF6buRIiBzaXplPSIxM3B4IiB3ZWlnaHQ9IjQwMCIgZm9udC1zdHlsZT0iIiBvcGFjaXR5PSIxIiB5PSI3OC4yNTc5NTY5ODgxOTA5MyIgdHJhbnNmb3JtPSJyb3RhdGUoMCkiPjx0c3BhbiBpZD0iU3ZnanNUc3BhbjEwMzYiIGR5PSIxNiIgeD0iNDUwLjc5OTk5MDg0NDcyNjU1Ij48dHNwYW4gaWQ9IlN2Z2pzVHNwYW4xMDM3IiBzdHlsZT0idGV4dC1kZWNvcmF0aW9uOjsiPuS9v+eUqOeahHRyeUFjcXVpcmU8L3RzcGFuPjwvdHNwYW4+PC90ZXh0PjwvZz48ZyBpZD0iU3ZnanNHMTAzOCIgdHJhbnNmb3JtPSJ0cmFuc2xhdGUoNTM5LjU5OTk5MDg0NDcyNjYsMjUuMDA2MjQ0NjU5NDIzODI4KSI+PHBhdGggaWQ9IlN2Z2pzUGF0aDEwMzkiIGQ9Ik0gMCAwTCAzNDggMEwgMzY0IDE2TCAzNjQgMzYyTCAwIDM2MkwgMCAwWiIgc3Ryb2tlPSJub25lIiBmaWxsLW9wYWNpdHk9IjEiIGZpbGw9IiNmZmZmYWEiLz48cGF0aCBpZD0iU3ZnanNQYXRoMTA0MCIgZD0iTSAzNDggMEwgMzQ4IDE2TCAzNjQgMTZaIiBzdHJva2U9Im5vbmUiIGZpbGwtb3BhY2l0eT0iMSIgZmlsbD0iI2NkY2RjZCIvPjxwYXRoIGlkPSJTdmdqc1BhdGgxMDQxIiBkPSJNIDAgMEwgMzQ4IDBMIDM2NCAxNkwgMzY0IDM2MkwgMCAzNjJMIDAgMFoiIHN0cm9rZT0ibm9uZSIgZmlsbD0ibm9uZSIvPjxnIGlkPSJTdmdqc0cxMDQyIj48dGV4dCBpZD0iU3ZnanNUZXh0MTA0MyIgZm9udC1mYW1pbHk9IuW+rui9r+mbhem7kSIgdGV4dC1hbmNob3I9Im1pZGRsZSIgZm9udC1zaXplPSIxM3B4IiB3aWR0aD0iMzQ0cHgiIGZpbGw9IiMzMjMyMzIiIGZvbnQtd2VpZ2h0PSI0MDAiIGFsaWduPSJtaWRkbGUiIGxpbmVoZWlnaHQ9IjEyNSUiIGFuY2hvcj0ibWlkZGxlIiBmYW1pbHk9IuW+rui9r+mbhem7kSIgc2l6ZT0iMTNweCIgd2VpZ2h0PSI0MDAiIGZvbnQtc3R5bGU9IiIgb3BhY2l0eT0iMSIgeT0iMTcwLjM3NSIgdHJhbnNmb3JtPSJyb3RhdGUoMCkiLz48L2c+PC9nPjxnIGlkPSJTdmdqc0cxMDQ0IiB0cmFuc2Zvcm09InRyYW5zbGF0ZSg2NjMuNTk5OTkwODQ0NzI2Niw0My4wMDYyNDQ2NTk0MjM4MykiPjxwYXRoIGlkPSJTdmdqc1BhdGgxMDQ1IiBkPSJNIDAgMzAuNUwgNjIuNSAwTCAxMjUgMzAuNUwgNjIuNSA2MVoiIHN0cm9rZT0icmdiYSg1MCw1MCw1MCwxKSIgc3Ryb2tlLXdpZHRoPSIyIiBmaWxsLW9wYWNpdHk9IjEiIGZpbGw9IiNmZmI3NGQiLz48ZyBpZD0iU3ZnanNHMTA0NiI+PHRleHQgaWQ9IlN2Z2pzVGV4dDEwNDciIGZvbnQtZmFtaWx5PSLlvq7ova/pm4Xpu5EiIHRleHQtYW5jaG9yPSJtaWRkbGUiIGZvbnQtc2l6ZT0iMTNweCIgd2lkdGg9IjEwNXB4IiBmaWxsPSIjMzIzMjMyIiBmb250LXdlaWdodD0iNDAwIiBhbGlnbj0ibWlkZGxlIiBsaW5laGVpZ2h0PSIxMjUlIiBhbmNob3I9Im1pZGRsZSIgZmFtaWx5PSLlvq7ova/pm4Xpu5EiIHNpemU9IjEzcHgiIHdlaWdodD0iNDAwIiBmb250LXN0eWxlPSIiIG9wYWNpdHk9IjEiIHk9IjIwLjE4IiB0cmFuc2Zvcm09InJvdGF0ZSgwKSI+PHRzcGFuIGlkPSJTdmdqc1RzcGFuMTA0OCIgZHk9IjE2IiB4PSI2Mi41Ij48dHNwYW4gaWQ9IlN2Z2pzVHNwYW4xMDQ5IiBzdHlsZT0idGV4dC1kZWNvcmF0aW9uOjsiPnN0YXRlPT0wPzwvdHNwYW4+PC90c3Bhbj48L3RleHQ+PC9nPjwvZz48ZyBpZD0iU3ZnanNHMTA1MCI+PHBhdGggaWQ9IlN2Z2pzUGF0aDEwNTEiIGQ9Ik02NjIuNTk5OTkwODQ0NzI2NiA3My41MDYyNDQ2NTk0MjM4M0w2MjcgNzMuNTA2MjQ0NjU5NDIzODNMNjI3IDk5LjMwNjI0NjE4NTMwMjc0IiBzdHJva2U9IiMzMjMyMzIiIHN0cm9rZS13aWR0aD0iMiIgZmlsbD0ibm9uZSIgbWFya2VyLWVuZD0idXJsKCNTdmdqc01hcmtlcjEwNTIpIi8+PHJlY3QgaWQ9IlN2Z2pzUmVjdDEwNTQiIHdpZHRoPSIxMyIgaGVpZ2h0PSIxNiIgeD0iNjI1LjM5OTk5NDY1OTQyMzgiIHk9IjY1LjUwNjI0NDY1OTQyMzgzIiBmaWxsPSIjZmZmZmZmIi8+PHRleHQgaWQ9IlN2Z2pzVGV4dDEwNTUiIGZvbnQtZmFtaWx5PSLlvq7ova/pm4Xpu5EiIHRleHQtYW5jaG9yPSJtaWRkbGUiIGZvbnQtc2l6ZT0iMTNweCIgd2lkdGg9IjEzcHgiIGZpbGw9IiMzMjMyMzIiIGZvbnQtd2VpZ2h0PSI0MDAiIGFsaWduPSJ0b3AiIGxpbmVoZWlnaHQ9IjE2cHgiIGFuY2hvcj0ibWlkZGxlIiBmYW1pbHk9IuW+rui9r+mbhem7kSIgc2l6ZT0iMTNweCIgd2VpZ2h0PSI0MDAiIGZvbnQtc3R5bGU9IiIgb3BhY2l0eT0iMSIgeT0iNjIuODgxMjQ0NjU5NDIzODMiIHRyYW5zZm9ybT0icm90YXRlKDApIj48dHNwYW4gaWQ9IlN2Z2pzVHNwYW4xMDU2IiBkeT0iMTYiIHg9IjYzMS44OTk5OTQ2NTk0MjM4Ij48dHNwYW4gaWQ9IlN2Z2pzVHNwYW4xMDU3IiBzdHlsZT0idGV4dC1kZWNvcmF0aW9uOjsiPuaYrzwvdHNwYW4+PC90c3Bhbj48L3RleHQ+PC9nPjxnIGlkPSJTdmdqc0cxMDU4IiB0cmFuc2Zvcm09InRyYW5zbGF0ZSg1NjEuNSwxMDIuOTA2MjQ2MTg1MzAyNzMpIj48cGF0aCBpZD0iU3ZnanNQYXRoMTA1OSIgZD0iTSAwIDM2LjVMIDY1LjUgMEwgMTMxIDM2LjVMIDY1LjUgNzNaIiBzdHJva2U9InJnYmEoNTAsNTAsNTAsMSkiIHN0cm9rZS13aWR0aD0iMiIgZmlsbC1vcGFjaXR5PSIxIiBmaWxsPSIjZmZiNzRkIi8+PGcgaWQ9IlN2Z2pzRzEwNjAiPjx0ZXh0IGlkPSJTdmdqc1RleHQxMDYxIiBmb250LWZhbWlseT0i5b6u6L2v6ZuF6buRIiB0ZXh0LWFuY2hvcj0ibWlkZGxlIiBmb250LXNpemU9IjEzcHgiIHdpZHRoPSIxMTFweCIgZmlsbD0iIzMyMzIzMiIgZm9udC13ZWlnaHQ9IjQwMCIgYWxpZ249Im1pZGRsZSIgbGluZWhlaWdodD0iMTI1JSIgYW5jaG9yPSJtaWRkbGUiIGZhbWlseT0i5b6u6L2v6ZuF6buRIiBzaXplPSIxM3B4IiB3ZWlnaHQ9IjQwMCIgZm9udC1zdHlsZT0iIiBvcGFjaXR5PSIxIiB5PSIxNy43NDAwMDAwMDAwMDAwMDIiIHRyYW5zZm9ybT0icm90YXRlKDApIj48dHNwYW4gaWQ9IlN2Z2pzVHNwYW4xMDYyIiBkeT0iMTYiIHg9IjY1LjUiPjx0c3BhbiBpZD0iU3ZnanNUc3BhbjEwNjMiIHN0eWxlPSJ0ZXh0LWRlY29yYXRpb246OyI+5ZCM5q2l6Zif5YiX5Lit5b2T5YmN57q/PC90c3Bhbj48L3RzcGFuPjx0c3BhbiBpZD0iU3ZnanNUc3BhbjEwNjQiIGR5PSIxNiIgeD0iNjUuNSI+PHRzcGFuIGlkPSJTdmdqc1RzcGFuMTA2NSIgc3R5bGU9InRleHQtZGVjb3JhdGlvbjo7Ij7nqIvliY3pnaLmsqHmnInoioLngrk8L3RzcGFuPjwvdHNwYW4+PC90ZXh0PjwvZz48L2c+PGcgaWQ9IlN2Z2pzRzEwNjYiIHRyYW5zZm9ybT0idHJhbnNsYXRlKDU4NS41LDIxNy4wMDYyNDQ2NTk0MjM4MykiPjxwYXRoIGlkPSJTdmdqc1BhdGgxMDY3IiBkPSJNIDAgMEwgODMgMEwgODMgMzhMIDAgMzhaIiBzdHJva2U9InJnYmEoNTAsNTAsNTAsMSkiIHN0cm9rZS13aWR0aD0iMiIgZmlsbC1vcGFjaXR5PSIxIiBmaWxsPSIjZmZmZmZmIi8+PGcgaWQ9IlN2Z2pzRzEwNjgiPjx0ZXh0IGlkPSJTdmdqc1RleHQxMDY5IiBmb250LWZhbWlseT0i5b6u6L2v6ZuF6buRIiB0ZXh0LWFuY2hvcj0ibWlkZGxlIiBmb250LXNpemU9IjEzcHgiIHdpZHRoPSI2M3B4IiBmaWxsPSIjMzIzMjMyIiBmb250LXdlaWdodD0iNDAwIiBhbGlnbj0ibWlkZGxlIiBsaW5laGVpZ2h0PSIxMjUlIiBhbmNob3I9Im1pZGRsZSIgZmFtaWx5PSLlvq7ova/pm4Xpu5EiIHNpemU9IjEzcHgiIHdlaWdodD0iNDAwIiBmb250LXN0eWxlPSIiIG9wYWNpdHk9IjEiIHk9IjguMzc1IiB0cmFuc2Zvcm09InJvdGF0ZSgwKSI+PHRzcGFuIGlkPSJTdmdqc1RzcGFuMTA3MCIgZHk9IjE2IiB4PSI0MS41Ij48dHNwYW4gaWQ9IlN2Z2pzVHNwYW4xMDcxIiBzdHlsZT0idGV4dC1kZWNvcmF0aW9uOjsiPmNhc+iOt+WPlumUgTwvdHNwYW4+PC90c3Bhbj48L3RleHQ+PC9nPjwvZz48ZyBpZD0iU3ZnanNHMTA3MiI+PHBhdGggaWQ9IlN2Z2pzUGF0aDEwNzMiIGQ9Ik02MjcgMTc2LjkwNjI0NjE4NTMwMjczTDYyNyAxOTUuNTA2MjQ0NjU5NDIzODNMNjI3IDE5NS41MDYyNDQ2NTk0MjM4M0w2MjcgMjEzLjQwNjI0NDY1OTQyMzgzIiBzdHJva2U9IiMzMjMyMzIiIHN0cm9rZS13aWR0aD0iMiIgZmlsbD0ibm9uZSIgbWFya2VyLWVuZD0idXJsKCNTdmdqc01hcmtlcjEwNzQpIi8+PHJlY3QgaWQ9IlN2Z2pzUmVjdDEwNzYiIHdpZHRoPSIxMyIgaGVpZ2h0PSIxNiIgeD0iNjIwLjUiIHk9IjE4Ny4xNTYyNDU0MjIzNjMyNyIgZmlsbD0iI2ZmZmZmZiIvPjx0ZXh0IGlkPSJTdmdqc1RleHQxMDc3IiBmb250LWZhbWlseT0i5b6u6L2v6ZuF6buRIiB0ZXh0LWFuY2hvcj0ibWlkZGxlIiBmb250LXNpemU9IjEzcHgiIHdpZHRoPSIxM3B4IiBmaWxsPSIjMzIzMjMyIiBmb250LXdlaWdodD0iNDAwIiBhbGlnbj0idG9wIiBsaW5laGVpZ2h0PSIxNnB4IiBhbmNob3I9Im1pZGRsZSIgZmFtaWx5PSLlvq7ova/pm4Xpu5EiIHNpemU9IjEzcHgiIHdlaWdodD0iNDAwIiBmb250LXN0eWxlPSIiIG9wYWNpdHk9IjEiIHk9IjE4NC41MzEyNDU0MjIzNjMyNyIgdHJhbnNmb3JtPSJyb3RhdGUoMCkiPjx0c3BhbiBpZD0iU3ZnanNUc3BhbjEwNzgiIGR5PSIxNiIgeD0iNjI3Ij48dHNwYW4gaWQ9IlN2Z2pzVHNwYW4xMDc5IiBzdHlsZT0idGV4dC1kZWNvcmF0aW9uOjsiPuaYrzwvdHNwYW4+PC90c3Bhbj48L3RleHQ+PC9nPjxnIGlkPSJTdmdqc0cxMDgwIj48cGF0aCBpZD0iU3ZnanNQYXRoMTA4MSIgZD0iTTYyNyAyNTYuMDA2MjQ0NjU5NDIzOEw2MjcgMjcxLjAwNjI0NDY1OTQyMzhMNjI3IDI3MS4wMDYyNDQ2NTk0MjM4TDYyNyAyODcuODA2MjQ2MTg1MzAyNyIgc3Ryb2tlPSIjMTk3NmQyIiBzdHJva2Utd2lkdGg9IjIiIGZpbGw9Im5vbmUiIG1hcmtlci1lbmQ9InVybCgjU3ZnanNNYXJrZXIxMDgyKSIvPjxyZWN0IGlkPSJTdmdqc1JlY3QxMDg0IiB3aWR0aD0iMjYiIGhlaWdodD0iMTYiIHg9IjYxMy45OTk5OTk5OTk5OTk5IiB5PSIyNjMuOTA2MjQ1NDIyMzYzMjciIGZpbGw9IiNmZmZmZmYiLz48dGV4dCBpZD0iU3ZnanNUZXh0MTA4NSIgZm9udC1mYW1pbHk9IuW+rui9r+mbhem7kSIgdGV4dC1hbmNob3I9Im1pZGRsZSIgZm9udC1zaXplPSIxM3B4IiB3aWR0aD0iMjZweCIgZmlsbD0iIzMyMzIzMiIgZm9udC13ZWlnaHQ9IjQwMCIgYWxpZ249InRvcCIgbGluZWhlaWdodD0iMTZweCIgYW5jaG9yPSJtaWRkbGUiIGZhbWlseT0i5b6u6L2v6ZuF6buRIiBzaXplPSIxM3B4IiB3ZWlnaHQ9IjQwMCIgZm9udC1zdHlsZT0iIiBvcGFjaXR5PSIxIiB5PSIyNjEuMjgxMjQ1NDIyMzYzMjciIHRyYW5zZm9ybT0icm90YXRlKDApIj48dHNwYW4gaWQ9IlN2Z2pzVHNwYW4xMDg2IiBkeT0iMTYiIHg9IjYyNi45OTk5OTk5OTk5OTk5Ij48dHNwYW4gaWQ9IlN2Z2pzVHNwYW4xMDg3IiBzdHlsZT0idGV4dC1kZWNvcmF0aW9uOjsiPuaIkOWKnzwvdHNwYW4+PC90c3Bhbj48L3RleHQ+PC9nPjxnIGlkPSJTdmdqc0cxMDg4IiB0cmFuc2Zvcm09InRyYW5zbGF0ZSg1NTcsMjkxLjQwNjI0NjE4NTMwMjczKSI+PHBhdGggaWQ9IlN2Z2pzUGF0aDEwODkiIGQ9Ik0gMCAwTCAxNDAgMEwgMTQwIDY4TCAwIDY4WiIgc3Ryb2tlPSJyZ2JhKDUwLDUwLDUwLDEpIiBzdHJva2Utd2lkdGg9IjIiIGZpbGwtb3BhY2l0eT0iMSIgZmlsbD0iI2ZmZmZmZiIvPjxnIGlkPSJTdmdqc0cxMDkwIj48dGV4dCBpZD0iU3ZnanNUZXh0MTA5MSIgZm9udC1mYW1pbHk9IuW+rui9r+mbhem7kSIgdGV4dC1hbmNob3I9Im1pZGRsZSIgZm9udC1zaXplPSIxM3B4IiB3aWR0aD0iMTIwcHgiIGZpbGw9IiMzMjMyMzIiIGZvbnQtd2VpZ2h0PSI0MDAiIGFsaWduPSJtaWRkbGUiIGxpbmVoZWlnaHQ9IjEyNSUiIGFuY2hvcj0ibWlkZGxlIiBmYW1pbHk9IuW+rui9r+mbhem7kSIgc2l6ZT0iMTNweCIgd2VpZ2h0PSI0MDAiIGZvbnQtc3R5bGU9IiIgb3BhY2l0eT0iMSIgeT0iNi44NzUiIHRyYW5zZm9ybT0icm90YXRlKDApIj48dHNwYW4gaWQ9IlN2Z2pzVHNwYW4xMDkyIiBkeT0iMTYiIHg9IjcwIj48dHNwYW4gaWQ9IlN2Z2pzVHNwYW4xMDkzIiBzdHlsZT0idGV4dC1kZWNvcmF0aW9uOjsiPuiuvue9ruaOkuWug+mUgeeahOe6v+eoi+S4ujwvdHNwYW4+PC90c3Bhbj48dHNwYW4gaWQ9IlN2Z2pzVHNwYW4xMDk0IiBkeT0iMTYiIHg9IjcwIj48dHNwYW4gaWQ9IlN2Z2pzVHNwYW4xMDk1IiBzdHlsZT0idGV4dC1kZWNvcmF0aW9uOjsiPuW9k+WJjee6v+eoi++8jOWNs+mUgeeahDwvdHNwYW4+PC90c3Bhbj48dHNwYW4gaWQ9IlN2Z2pzVHNwYW4xMDk2IiBkeT0iMTYiIHg9IjcwIj48dHNwYW4gaWQ9IlN2Z2pzVHNwYW4xMDk3IiBzdHlsZT0idGV4dC1kZWNvcmF0aW9uOjsiPm93bmVy5piv5b2T5YmN57q/56iLPC90c3Bhbj48L3RzcGFuPjwvdGV4dD48L2c+PC9nPjxnIGlkPSJTdmdqc0cxMDk4Ij48cGF0aCBpZD0iU3ZnanNQYXRoMTA5OSIgZD0iTTc4OS41OTk5OTA4NDQ3MjY2IDczLjUwNjI0NDY1OTQyMzgzTDgxMyA3My41MDYyNDQ2NTk0MjM4M0w4MTMgOTkuMzA2MjQ2MTg1MzAyNzQiIHN0cm9rZT0iIzMyMzIzMiIgc3Ryb2tlLXdpZHRoPSIyIiBmaWxsPSJub25lIiBtYXJrZXItZW5kPSJ1cmwoI1N2Z2pzTWFya2VyMTEwMCkiLz48cmVjdCBpZD0iU3ZnanNSZWN0MTEwMiIgd2lkdGg9IjEzIiBoZWlnaHQ9IjE2IiB4PSI4MDYuNSIgeT0iNjYuNzA2MjQwODQ0NzI2NTciIGZpbGw9IiNmZmZmZmYiLz48dGV4dCBpZD0iU3ZnanNUZXh0MTEwMyIgZm9udC1mYW1pbHk9IuW+rui9r+mbhem7kSIgdGV4dC1hbmNob3I9Im1pZGRsZSIgZm9udC1zaXplPSIxM3B4IiB3aWR0aD0iMTNweCIgZmlsbD0iIzMyMzIzMiIgZm9udC13ZWlnaHQ9IjQwMCIgYWxpZ249InRvcCIgbGluZWhlaWdodD0iMTZweCIgYW5jaG9yPSJtaWRkbGUiIGZhbWlseT0i5b6u6L2v6ZuF6buRIiBzaXplPSIxM3B4IiB3ZWlnaHQ9IjQwMCIgZm9udC1zdHlsZT0iIiBvcGFjaXR5PSIxIiB5PSI2NC4wODEyNDA4NDQ3MjY1NyIgdHJhbnNmb3JtPSJyb3RhdGUoMCkiPjx0c3BhbiBpZD0iU3ZnanNUc3BhbjExMDQiIGR5PSIxNiIgeD0iODEzIj48dHNwYW4gaWQ9IlN2Z2pzVHNwYW4xMTA1IiBzdHlsZT0idGV4dC1kZWNvcmF0aW9uOjsiPuWQpjwvdHNwYW4+PC90c3Bhbj48L3RleHQ+PC9nPjxnIGlkPSJTdmdqc0cxMTA2IiB0cmFuc2Zvcm09InRyYW5zbGF0ZSg3NTkuNSwxMDIuOTA2MjQ2MTg1MzAyNzMpIj48cGF0aCBpZD0iU3ZnanNQYXRoMTEwNyIgZD0iTSAwIDM2LjVMIDUzLjUgMEwgMTA3IDM2LjVMIDUzLjUgNzNaIiBzdHJva2U9InJnYmEoNTAsNTAsNTAsMSkiIHN0cm9rZS13aWR0aD0iMiIgZmlsbC1vcGFjaXR5PSIxIiBmaWxsPSIjZmZiNzRkIi8+PGcgaWQ9IlN2Z2pzRzExMDgiPjx0ZXh0IGlkPSJTdmdqc1RleHQxMTA5IiBmb250LWZhbWlseT0i5b6u6L2v6ZuF6buRIiB0ZXh0LWFuY2hvcj0ibWlkZGxlIiBmb250LXNpemU9IjEzcHgiIHdpZHRoPSI4N3B4IiBmaWxsPSIjMzIzMjMyIiBmb250LXdlaWdodD0iNDAwIiBhbGlnbj0ibWlkZGxlIiBsaW5laGVpZ2h0PSIxMjUlIiBhbmNob3I9Im1pZGRsZSIgZmFtaWx5PSLlvq7ova/pm4Xpu5EiIHNpemU9IjEzcHgiIHdlaWdodD0iNDAwIiBmb250LXN0eWxlPSIiIG9wYWNpdHk9IjEiIHk9IjE3Ljc0MDAwMDAwMDAwMDAwMiIgdHJhbnNmb3JtPSJyb3RhdGUoMCkiPjx0c3BhbiBpZD0iU3ZnanNUc3BhbjExMTAiIGR5PSIxNiIgeD0iNTMuNSI+PHRzcGFuIGlkPSJTdmdqc1RzcGFuMTExMSIgc3R5bGU9InRleHQtZGVjb3JhdGlvbjo7Ij7lvZPliY3nur/nqIvmmK/lkKY8L3RzcGFuPjwvdHNwYW4+PHRzcGFuIGlkPSJTdmdqc1RzcGFuMTExMiIgZHk9IjE2IiB4PSI1My41Ij48dHNwYW4gaWQ9IlN2Z2pzVHNwYW4xMTEzIiBzdHlsZT0idGV4dC1kZWNvcmF0aW9uOjsiPuaYr+mUgeeahOS4u+S6ujwvdHNwYW4+PC90c3Bhbj48L3RleHQ+PC9nPjwvZz48ZyBpZD0iU3ZnanNHMTExNCI+PHBhdGggaWQ9IlN2Z2pzUGF0aDExMTUiIGQ9Ik04MTMgMTc2LjkwNjI0NjE4NTMwMjczTDgxMyAxOTUuNTA2MjQ0NjU5NDIzODNMODEzIDE5NS41MDYyNDQ2NTk0MjM4M0w4MTMgMjEzLjQwNjI0NDY1OTQyMzgzIiBzdHJva2U9IiMxOTc2ZDIiIHN0cm9rZS13aWR0aD0iMiIgZmlsbD0ibm9uZSIgbWFya2VyLWVuZD0idXJsKCNTdmdqc01hcmtlcjExMTYpIi8+PHJlY3QgaWQ9IlN2Z2pzUmVjdDExMTgiIHdpZHRoPSIxMyIgaGVpZ2h0PSIxNiIgeD0iODA2LjUiIHk9IjE4Ny4xNTYyNDU0MjIzNjMyNyIgZmlsbD0iI2ZmZmZmZiIvPjx0ZXh0IGlkPSJTdmdqc1RleHQxMTE5IiBmb250LWZhbWlseT0i5b6u6L2v6ZuF6buRIiB0ZXh0LWFuY2hvcj0ibWlkZGxlIiBmb250LXNpemU9IjEzcHgiIHdpZHRoPSIxM3B4IiBmaWxsPSIjMzIzMjMyIiBmb250LXdlaWdodD0iNDAwIiBhbGlnbj0idG9wIiBsaW5laGVpZ2h0PSIxNnB4IiBhbmNob3I9Im1pZGRsZSIgZmFtaWx5PSLlvq7ova/pm4Xpu5EiIHNpemU9IjEzcHgiIHdlaWdodD0iNDAwIiBmb250LXN0eWxlPSIiIG9wYWNpdHk9IjEiIHk9IjE4NC41MzEyNDU0MjIzNjMyNyIgdHJhbnNmb3JtPSJyb3RhdGUoMCkiPjx0c3BhbiBpZD0iU3ZnanNUc3BhbjExMjAiIGR5PSIxNiIgeD0iODEzIj48dHNwYW4gaWQ9IlN2Z2pzVHNwYW4xMTIxIiBzdHlsZT0idGV4dC1kZWNvcmF0aW9uOjsiPuaYrzwvdHNwYW4+PC90c3Bhbj48L3RleHQ+PC9nPjxnIGlkPSJTdmdqc0cxMTIyIiB0cmFuc2Zvcm09InRyYW5zbGF0ZSg3MzksMjE3LjAwNjI0NDY1OTQyMzgzKSI+PHBhdGggaWQ9IlN2Z2pzUGF0aDExMjMiIGQ9Ik0gMCAwTCAxNDggMEwgMTQ4IDUzTCAwIDUzWiIgc3Ryb2tlPSJyZ2JhKDUwLDUwLDUwLDEpIiBzdHJva2Utd2lkdGg9IjIiIGZpbGwtb3BhY2l0eT0iMSIgZmlsbD0iI2ZmZmZmZiIvPjxnIGlkPSJTdmdqc0cxMTI0Ij48dGV4dCBpZD0iU3ZnanNUZXh0MTEyNSIgZm9udC1mYW1pbHk9IuW+rui9r+mbhem7kSIgdGV4dC1hbmNob3I9Im1pZGRsZSIgZm9udC1zaXplPSIxM3B4IiB3aWR0aD0iMTI4cHgiIGZpbGw9IiMzMjMyMzIiIGZvbnQtd2VpZ2h0PSI0MDAiIGFsaWduPSJtaWRkbGUiIGxpbmVoZWlnaHQ9IjEyNSUiIGFuY2hvcj0ibWlkZGxlIiBmYW1pbHk9IuW+rui9r+mbhem7kSIgc2l6ZT0iMTNweCIgd2VpZ2h0PSI0MDAiIGZvbnQtc3R5bGU9IiIgb3BhY2l0eT0iMSIgeT0iNy4zNzUiIHRyYW5zZm9ybT0icm90YXRlKDApIj48dHNwYW4gaWQ9IlN2Z2pzVHNwYW4xMTI2IiBkeT0iMTYiIHg9Ijc0Ij48dHNwYW4gaWQ9IlN2Z2pzVHNwYW4xMTI3IiBzdHlsZT0idGV4dC1kZWNvcmF0aW9uOjsiPuiuvue9rumUgemHjeWFpeWAvO+8iCsx77yJPC90c3Bhbj48L3RzcGFuPjx0c3BhbiBpZD0iU3ZnanNUc3BhbjExMjgiIGR5PSIxNiIgeD0iNzQiPjx0c3BhbiBpZD0iU3ZnanNUc3BhbjExMjkiIHN0eWxlPSJ0ZXh0LWRlY29yYXRpb246OyI+6L+Z6YeM5LiN55SoY2FzPC90c3Bhbj48L3RzcGFuPjwvdGV4dD48L2c+PC9nPjxnIGlkPSJTdmdqc0cxMTMwIj48cGF0aCBpZD0iU3ZnanNQYXRoMTEzMSIgZD0iTTY5OCAzMjUuNDA2MjQ2MTg1MzAyNzNMNzI3LjUzNzQ5MDg0NDcyNjYgMzI1LjQwNjI0NjE4NTMwMjczTDcyNy41Mzc0OTA4NDQ3MjY2IDMyNS40MDYyNDYxODUzMDI3M0w3NTkuNCAzMjUuNDA2MjQ2MTg1MzAyNzMiIHN0cm9rZT0iIzE5NzZkMiIgc3Ryb2tlLXdpZHRoPSIyIiBmaWxsPSJub25lIiBtYXJrZXItZW5kPSJ1cmwoI1N2Z2pzTWFya2VyMTEzMikiLz48L2c+PGcgaWQ9IlN2Z2pzRzExMzQiPjxwYXRoIGlkPSJTdmdqc1BhdGgxMTM1IiBkPSJNODEzIDI3MS4wMDYyNDQ2NTk0MjM4TDgxMyAyODEuMDA2MjQ0NjU5NDIzOEw4MTMgMjgxLjAwNjI0NDY1OTQyMzhMODEzIDI5NS4zMDYyNDYxODUzMDI3IiBzdHJva2U9IiMxOTc2ZDIiIHN0cm9rZS13aWR0aD0iMiIgZmlsbD0ibm9uZSIgbWFya2VyLWVuZD0idXJsKCNTdmdqc01hcmtlcjExMzYpIi8+PC9nPjxnIGlkPSJTdmdqc0cxMTM4IiB0cmFuc2Zvcm09InRyYW5zbGF0ZSg3NjMsMjk4LjkwNjI0NjE4NTMwMjczKSI+PHBhdGggaWQ9IlN2Z2pzUGF0aDExMzkiIGQ9Ik0gMCAwTCAxMDAgMEwgMTAwIDUzTCAwIDUzWiIgc3Ryb2tlPSJyZ2JhKDUwLDUwLDUwLDEpIiBzdHJva2Utd2lkdGg9IjIiIGZpbGwtb3BhY2l0eT0iMSIgZmlsbD0iI2ZmZmZmZiIvPjxnIGlkPSJTdmdqc0cxMTQwIj48dGV4dCBpZD0iU3ZnanNUZXh0MTE0MSIgZm9udC1mYW1pbHk9IuW+rui9r+mbhem7kSIgdGV4dC1hbmNob3I9Im1pZGRsZSIgZm9udC1zaXplPSIxM3B4IiB3aWR0aD0iODBweCIgZmlsbD0iIzMyMzIzMiIgZm9udC13ZWlnaHQ9IjQwMCIgYWxpZ249Im1pZGRsZSIgbGluZWhlaWdodD0iMTI1JSIgYW5jaG9yPSJtaWRkbGUiIGZhbWlseT0i5b6u6L2v6ZuF6buRIiBzaXplPSIxM3B4IiB3ZWlnaHQ9IjQwMCIgZm9udC1zdHlsZT0iIiBvcGFjaXR5PSIxIiB5PSIxNS44NzUiIHRyYW5zZm9ybT0icm90YXRlKDApIj48dHNwYW4gaWQ9IlN2Z2pzVHNwYW4xMTQyIiBkeT0iMTYiIHg9IjUwIj48dHNwYW4gaWQ9IlN2Z2pzVHNwYW4xMTQzIiBzdHlsZT0idGV4dC1kZWNvcmF0aW9uOjsiPui/lOWbnnRydWU8L3RzcGFuPjwvdHNwYW4+PC90ZXh0PjwvZz48L2c+PGcgaWQ9IlN2Z2pzRzExNDQiIHRyYW5zZm9ybT0idHJhbnNsYXRlKDcwMC45NzQ5OTA4NDQ3MjY2LDE1Ni4wMDYyNDQ2NTk0MjM4MykiPjxwYXRoIGlkPSJTdmdqc1BhdGgxMTQ1IiBkPSJNIDAgMEwgNTAgMEwgNTAgNDRMIDAgNDRaIiBzdHJva2U9InJnYmEoNTAsNTAsNTAsMSkiIHN0cm9rZS13aWR0aD0iMiIgZmlsbC1vcGFjaXR5PSIxIiBmaWxsPSIjZmZmZmZmIi8+PGcgaWQ9IlN2Z2pzRzExNDYiPjx0ZXh0IGlkPSJTdmdqc1RleHQxMTQ3IiBmb250LWZhbWlseT0i5b6u6L2v6ZuF6buRIiB0ZXh0LWFuY2hvcj0ibWlkZGxlIiBmb250LXNpemU9IjEzcHgiIHdpZHRoPSIzMHB4IiBmaWxsPSIjMzIzMjMyIiBmb250LXdlaWdodD0iNDAwIiBhbGlnbj0ibWlkZGxlIiBsaW5laGVpZ2h0PSIxMjUlIiBhbmNob3I9Im1pZGRsZSIgZmFtaWx5PSLlvq7ova/pm4Xpu5EiIHNpemU9IjEzcHgiIHdlaWdodD0iNDAwIiBmb250LXN0eWxlPSIiIG9wYWNpdHk9IjEiIHk9IjIuODc1IiB0cmFuc2Zvcm09InJvdGF0ZSgwKSI+PHRzcGFuIGlkPSJTdmdqc1RzcGFuMTE0OCIgZHk9IjE2IiB4PSIyNSI+PHRzcGFuIGlkPSJTdmdqc1RzcGFuMTE0OSIgc3R5bGU9InRleHQtZGVjb3JhdGlvbjo7Ij7ov5Tlm548L3RzcGFuPjwvdHNwYW4+PHRzcGFuIGlkPSJTdmdqc1RzcGFuMTE1MCIgZHk9IjE2IiB4PSIyNSI+PHRzcGFuIGlkPSJTdmdqc1RzcGFuMTE1MSIgc3R5bGU9InRleHQtZGVjb3JhdGlvbjo7Ij5mYWxzZTwvdHNwYW4+PC90c3Bhbj48L3RleHQ+PC9nPjwvZz48ZyBpZD0iU3ZnanNHMTE1MiI+PHBhdGggaWQ9IlN2Z2pzUGF0aDExNTMiIGQ9Ik02OTMuNSAxMzkuNDA2MjQ2MTg1MzAyNzNMNzI1Ljk3NDk5MDg0NDcyNjYgMTM5LjQwNjI0NjE4NTMwMjczTDcyNS45NzQ5OTA4NDQ3MjY2IDE1Mi40MDYyNDQ2NTk0MjM4MyIgc3Ryb2tlPSIjMzIzMjMyIiBzdHJva2Utd2lkdGg9IjIiIGZpbGw9Im5vbmUiIG1hcmtlci1lbmQ9InVybCgjU3ZnanNNYXJrZXIxMTU0KSIvPjwvZz48ZyBpZD0iU3ZnanNHMTE1NiI+PHBhdGggaWQ9IlN2Z2pzUGF0aDExNTciIGQ9Ik03NTguNSAxMzkuNDA2MjQ2MTg1MzAyNzNMNzI1Ljk3NDk5MDg0NDcyNjYgMTM5LjQwNjI0NjE4NTMwMjczTDcyNS45NzQ5OTA4NDQ3MjY2IDE1Mi40MDYyNDQ2NTk0MjM4MyIgc3Ryb2tlPSIjMzIzMjMyIiBzdHJva2Utd2lkdGg9IjIiIGZpbGw9Im5vbmUiIG1hcmtlci1lbmQ9InVybCgjU3ZnanNNYXJrZXIxMTU4KSIvPjxyZWN0IGlkPSJTdmdqc1JlY3QxMTYwIiB3aWR0aD0iMTMiIGhlaWdodD0iMTYiIHg9IjcyOS4yMzc0OTYxODUzMDI3IiB5PSIxMzEuNDA2MjQ2MTg1MzAyNzMiIGZpbGw9IiNmZmZmZmYiLz48dGV4dCBpZD0iU3ZnanNUZXh0MTE2MSIgZm9udC1mYW1pbHk9IuW+rui9r+mbhem7kSIgdGV4dC1hbmNob3I9Im1pZGRsZSIgZm9udC1zaXplPSIxM3B4IiB3aWR0aD0iMTNweCIgZmlsbD0iIzMyMzIzMiIgZm9udC13ZWlnaHQ9IjQwMCIgYWxpZ249InRvcCIgbGluZWhlaWdodD0iMTZweCIgYW5jaG9yPSJtaWRkbGUiIGZhbWlseT0i5b6u6L2v6ZuF6buRIiBzaXplPSIxM3B4IiB3ZWlnaHQ9IjQwMCIgZm9udC1zdHlsZT0iIiBvcGFjaXR5PSIxIiB5PSIxMjguNzgxMjQ2MTg1MzAyNzMiIHRyYW5zZm9ybT0icm90YXRlKDApIj48dHNwYW4gaWQ9IlN2Z2pzVHNwYW4xMTYyIiBkeT0iMTYiIHg9IjczNS43Mzc0OTYxODUzMDI3Ij48dHNwYW4gaWQ9IlN2Z2pzVHNwYW4xMTYzIiBzdHlsZT0idGV4dC1kZWNvcmF0aW9uOjsiPuWQpjwvdHNwYW4+PC90c3Bhbj48L3RleHQ+PC9nPjxnIGlkPSJTdmdqc0cxMTY0IiB0cmFuc2Zvcm09InRyYW5zbGF0ZSgyNDYuNTk5OTkwODQ0NzI2NTYsMzYzLjAwNjI0NDY1OTQyMzgpIj48cGF0aCBpZD0iU3ZnanNQYXRoMTE2NSIgZD0iTSAwIDRRIDAgMCA0IDBMIDEyMSAwUSAxMjUgMCAxMjUgNEwgMTI1IDQ5USAxMjUgNTMgMTIxIDUzTCA0IDUzUSAwIDUzIDAgNDlaIiBzdHJva2U9InJnYmEoNTAsNTAsNTAsMSkiIHN0cm9rZS13aWR0aD0iMiIgZmlsbC1vcGFjaXR5PSIxIiBmaWxsPSIjZmZmZmZmIi8+PGcgaWQ9IlN2Z2pzRzExNjYiPjx0ZXh0IGlkPSJTdmdqc1RleHQxMTY3IiBmb250LWZhbWlseT0i5b6u6L2v6ZuF6buRIiB0ZXh0LWFuY2hvcj0ibWlkZGxlIiBmb250LXNpemU9IjEzcHgiIHdpZHRoPSIxMDVweCIgZmlsbD0iIzMyMzIzMiIgZm9udC13ZWlnaHQ9IjQwMCIgYWxpZ249Im1pZGRsZSIgbGluZWhlaWdodD0iMTI1JSIgYW5jaG9yPSJtaWRkbGUiIGZhbWlseT0i5b6u6L2v6ZuF6buRIiBzaXplPSIxM3B4IiB3ZWlnaHQ9IjQwMCIgZm9udC1zdHlsZT0iIiBvcGFjaXR5PSIxIiB5PSI3LjM3NSIgdHJhbnNmb3JtPSJyb3RhdGUoMCkiPjx0c3BhbiBpZD0iU3ZnanNUc3BhbjExNjgiIGR5PSIxNiIgeD0iNjIuNSI+PHRzcGFuIGlkPSJTdmdqc1RzcGFuMTE2OSIgc3R5bGU9InRleHQtZGVjb3JhdGlvbjo7Ij7pnZ7lhazlubPplIE8L3RzcGFuPjwvdHNwYW4+PHRzcGFuIGlkPSJTdmdqc1RzcGFuMTE3MCIgZHk9IjE2IiB4PSI2Mi41Ij48dHNwYW4gaWQ9IlN2Z2pzVHNwYW4xMTcxIiBzdHlsZT0idGV4dC1kZWNvcmF0aW9uOjsiPlVuRmFpclN5bmM6OmxvY2s8L3RzcGFuPjwvdHNwYW4+PC90ZXh0PjwvZz48L2c+PGcgaWQ9IlN2Z2pzRzExNzIiPjxwYXRoIGlkPSJTdmdqc1BhdGgxMTczIiBkPSJNMTY2IDE1My41MDYyNDQ2NTk0MjM4M0wyMDYuNTk5OTkwODQ0NzI2NTYgMTUzLjUwNjI0NDY1OTQyMzgzTDIwNi41OTk5OTA4NDQ3MjY1NiAzODkuNTA2MjQ0NjU5NDIzOEwyNDIuOTk5OTkwODQ0NzI2NTQgMzg5LjUwNjI0NDY1OTQyMzgiIHN0cm9rZT0iIzMyMzIzMiIgc3Ryb2tlLXdpZHRoPSIyIiBmaWxsPSJub25lIiBtYXJrZXItZW5kPSJ1cmwoI1N2Z2pzTWFya2VyMTE3NCkiLz48L2c+PGcgaWQ9IlN2Z2pzRzExNzYiIHRyYW5zZm9ybT0idHJhbnNsYXRlKDE0OC4wOTk5OTA4NDQ3MjY1Niw0NTAuMDA2MjQ2NTY2NzcyNDYpIj48cGF0aCBpZD0iU3ZnanNQYXRoMTE3NyIgZD0iTSAwIDBMIDMwNCAwTCAzMjAgMTZMIDMyMCAxNzEuOTk5OTk4MDkyNjUxMzdMIDAgMTcxLjk5OTk5ODA5MjY1MTM3TCAwIDBaIiBzdHJva2U9Im5vbmUiIGZpbGwtb3BhY2l0eT0iMSIgZmlsbD0iI2ZmZmZhYSIvPjxwYXRoIGlkPSJTdmdqc1BhdGgxMTc4IiBkPSJNIDMwNCAwTCAzMDQgMTZMIDMyMCAxNloiIHN0cm9rZT0ibm9uZSIgZmlsbC1vcGFjaXR5PSIxIiBmaWxsPSIjY2RjZGNkIi8+PHBhdGggaWQ9IlN2Z2pzUGF0aDExNzkiIGQ9Ik0gMCAwTCAzMDQgMEwgMzIwIDE2TCAzMjAgMTcxLjk5OTk5ODA5MjY1MTM3TCAwIDE3MS45OTk5OTgwOTI2NTEzN0wgMCAwWiIgc3Ryb2tlPSJub25lIiBmaWxsPSJub25lIi8+PGcgaWQ9IlN2Z2pzRzExODAiPjx0ZXh0IGlkPSJTdmdqc1RleHQxMTgxIiBmb250LWZhbWlseT0i5b6u6L2v6ZuF6buRIiB0ZXh0LWFuY2hvcj0ibWlkZGxlIiBmb250LXNpemU9IjEzcHgiIHdpZHRoPSIzMDBweCIgZmlsbD0iIzMyMzIzMiIgZm9udC13ZWlnaHQ9IjQwMCIgYWxpZ249Im1pZGRsZSIgbGluZWhlaWdodD0iMTI1JSIgYW5jaG9yPSJtaWRkbGUiIGZhbWlseT0i5b6u6L2v6ZuF6buRIiBzaXplPSIxM3B4IiB3ZWlnaHQ9IjQwMCIgZm9udC1zdHlsZT0iIiBvcGFjaXR5PSIxIiB5PSI3NS4zNzQ5OTkwNDYzMjU2OCIgdHJhbnNmb3JtPSJyb3RhdGUoMCkiLz48L2c+PC9nPjxnIGlkPSJTdmdqc0cxMTgyIiB0cmFuc2Zvcm09InRyYW5zbGF0ZSgyNzMuMDk5OTkwODQ0NzI2NTYsNDY1LjAwNjI0NDY1OTQyMzgpIj48cGF0aCBpZD0iU3ZnanNQYXRoMTE4MyIgZD0iTSAwIDBMIDgzIDBMIDgzIDUzTCAwIDUzWiIgc3Ryb2tlPSJyZ2JhKDUwLDUwLDUwLDEpIiBzdHJva2Utd2lkdGg9IjIiIGZpbGwtb3BhY2l0eT0iMSIgZmlsbD0iI2ZmZmZmZiIvPjxnIGlkPSJTdmdqc0cxMTg0Ij48dGV4dCBpZD0iU3ZnanNUZXh0MTE4NSIgZm9udC1mYW1pbHk9IuW+rui9r+mbhem7kSIgdGV4dC1hbmNob3I9Im1pZGRsZSIgZm9udC1zaXplPSIxM3B4IiB3aWR0aD0iNjNweCIgZmlsbD0iIzMyMzIzMiIgZm9udC13ZWlnaHQ9IjQwMCIgYWxpZ249Im1pZGRsZSIgbGluZWhlaWdodD0iMTI1JSIgYW5jaG9yPSJtaWRkbGUiIGZhbWlseT0i5b6u6L2v6ZuF6buRIiBzaXplPSIxM3B4IiB3ZWlnaHQ9IjQwMCIgZm9udC1zdHlsZT0iIiBvcGFjaXR5PSIxIiB5PSI3LjM3NSIgdHJhbnNmb3JtPSJyb3RhdGUoMCkiPjx0c3BhbiBpZD0iU3ZnanNUc3BhbjExODYiIGR5PSIxNiIgeD0iNDEuNSI+PHRzcGFuIGlkPSJTdmdqc1RzcGFuMTE4NyIgc3R5bGU9InRleHQtZGVjb3JhdGlvbjo7Ij5jYXMoMCwgMSk8L3RzcGFuPjwvdHNwYW4+PHRzcGFuIGlkPSJTdmdqc1RzcGFuMTE4OCIgZHk9IjE2IiB4PSI0MS41Ij48dHNwYW4gaWQ9IlN2Z2pzVHNwYW4xMTg5IiBzdHlsZT0idGV4dC1kZWNvcmF0aW9uOjsiPuivleWbvuaKouWNoDwvdHNwYW4+PC90c3Bhbj48L3RleHQ+PC9nPjwvZz48ZyBpZD0iU3ZnanNHMTE5MCI+PHBhdGggaWQ9IlN2Z2pzUGF0aDExOTEiIGQ9Ik02NjkuNSAyMzYuMDA2MjQ0NjU5NDIzODNMNjgzLjY2MjQ5MDg0NDcyNjYgMjM2LjAwNjI0NDY1OTQyMzgzTDY4My42NjI0OTA4NDQ3MjY2IDE3OC4wMDYyNDQ2NTk0MjM4M0w2OTcuMzc0OTkwODQ0NzI2NSAxNzguMDA2MjQ0NjU5NDIzODMiIHN0cm9rZT0iIzMyMzIzMiIgc3Ryb2tlLXdpZHRoPSIyIiBmaWxsPSJub25lIiBtYXJrZXItZW5kPSJ1cmwoI1N2Z2pzTWFya2VyMTE5MikiLz48cmVjdCBpZD0iU3ZnanNSZWN0MTE5NCIgd2lkdGg9IjI2IiBoZWlnaHQ9IjE2IiB4PSI2NzAuNjYyNDkwODQ0NzI2NiIgeT0iMTk5LjIzMTI0MDA4MTc4NzEyIiBmaWxsPSIjZmZmZmZmIi8+PHRleHQgaWQ9IlN2Z2pzVGV4dDExOTUiIGZvbnQtZmFtaWx5PSLlvq7ova/pm4Xpu5EiIHRleHQtYW5jaG9yPSJtaWRkbGUiIGZvbnQtc2l6ZT0iMTNweCIgd2lkdGg9IjI2cHgiIGZpbGw9IiMzMjMyMzIiIGZvbnQtd2VpZ2h0PSI0MDAiIGFsaWduPSJ0b3AiIGxpbmVoZWlnaHQ9IjE2cHgiIGFuY2hvcj0ibWlkZGxlIiBmYW1pbHk9IuW+rui9r+mbhem7kSIgc2l6ZT0iMTNweCIgd2VpZ2h0PSI0MDAiIGZvbnQtc3R5bGU9IiIgb3BhY2l0eT0iMSIgeT0iMTk2LjYwNjI0MDA4MTc4NzEyIiB0cmFuc2Zvcm09InJvdGF0ZSgwKSI+PHRzcGFuIGlkPSJTdmdqc1RzcGFuMTE5NiIgZHk9IjE2IiB4PSI2ODMuNjYyNDkwODQ0NzI2NiI+PHRzcGFuIGlkPSJTdmdqc1RzcGFuMTE5NyIgc3R5bGU9InRleHQtZGVjb3JhdGlvbjo7Ij7lpLHotKU8L3RzcGFuPjwvdHNwYW4+PC90ZXh0PjwvZz48ZyBpZD0iU3ZnanNHMTE5OCI+PHBhdGggaWQ9IlN2Z2pzUGF0aDExOTkiIGQ9Ik0yNzIuMDk5OTkwODQ0NzI2NTYgNDkxLjUwNjI0NDY1OTQyMzhMMjQxLjg0Mjg0Nzk4NzU4MzcgNDkxLjUwNjI0NDY1OTQyMzhMMjQxLjg0Mjg0Nzk4NzU4MzcgNTQ2LjQwNjI0NTYxMzA5ODEiIHN0cm9rZT0iIzE5NzZkMiIgc3Ryb2tlLXdpZHRoPSIyIiBmaWxsPSJub25lIiBtYXJrZXItZW5kPSJ1cmwoI1N2Z2pzTWFya2VyMTIwMCkiLz48cmVjdCBpZD0iU3ZnanNSZWN0MTIwMiIgd2lkdGg9IjI2IiBoZWlnaHQ9IjE2IiB4PSIyMjguODQyODQ3OTg3NTgzNzIiIHk9IjQ5NS44Mjc2NzM3MDc2ODk1NCIgZmlsbD0iI2ZmZmZmZiIvPjx0ZXh0IGlkPSJTdmdqc1RleHQxMjAzIiBmb250LWZhbWlseT0i5b6u6L2v6ZuF6buRIiB0ZXh0LWFuY2hvcj0ibWlkZGxlIiBmb250LXNpemU9IjEzcHgiIHdpZHRoPSIyNnB4IiBmaWxsPSIjMzIzMjMyIiBmb250LXdlaWdodD0iNDAwIiBhbGlnbj0idG9wIiBsaW5laGVpZ2h0PSIxNnB4IiBhbmNob3I9Im1pZGRsZSIgZmFtaWx5PSLlvq7ova/pm4Xpu5EiIHNpemU9IjEzcHgiIHdlaWdodD0iNDAwIiBmb250LXN0eWxlPSIiIG9wYWNpdHk9IjEiIHk9IjQ5My4yMDI2NzM3MDc2ODk1NCIgdHJhbnNmb3JtPSJyb3RhdGUoMCkiPjx0c3BhbiBpZD0iU3ZnanNUc3BhbjEyMDQiIGR5PSIxNiIgeD0iMjQxLjg0Mjg0Nzk4NzU4MzcyIj48dHNwYW4gaWQ9IlN2Z2pzVHNwYW4xMjA1IiBzdHlsZT0idGV4dC1kZWNvcmF0aW9uOjsiPuaIkOWKnzwvdHNwYW4+PC90c3Bhbj48L3RleHQ+PC9nPjxnIGlkPSJTdmdqc0cxMjA2IiB0cmFuc2Zvcm09InRyYW5zbGF0ZSgxODAuMDk5OTkwODQ0NzI2NTYsNTUwLjAwNjI0NTYxMzA5ODEpIj48cGF0aCBpZD0iU3ZnanNQYXRoMTIwNyIgZD0iTSAwIDBMIDExNyAwTCAxMTcgNDRMIDAgNDRaIiBzdHJva2U9InJnYmEoNTAsNTAsNTAsMSkiIHN0cm9rZS13aWR0aD0iMiIgZmlsbC1vcGFjaXR5PSIxIiBmaWxsPSIjZmZmZmZmIi8+PGcgaWQ9IlN2Z2pzRzEyMDgiPjx0ZXh0IGlkPSJTdmdqc1RleHQxMjA5IiBmb250LWZhbWlseT0i5b6u6L2v6ZuF6buRIiB0ZXh0LWFuY2hvcj0ibWlkZGxlIiBmb250LXNpemU9IjEzcHgiIHdpZHRoPSI5N3B4IiBmaWxsPSIjMzIzMjMyIiBmb250LXdlaWdodD0iNDAwIiBhbGlnbj0ibWlkZGxlIiBsaW5laGVpZ2h0PSIxMjUlIiBhbmNob3I9Im1pZGRsZSIgZmFtaWx5PSLlvq7ova/pm4Xpu5EiIHNpemU9IjEzcHgiIHdlaWdodD0iNDAwIiBmb250LXN0eWxlPSIiIG9wYWNpdHk9IjEiIHk9IjIuODc1IiB0cmFuc2Zvcm09InJvdGF0ZSgwKSI+PHRzcGFuIGlkPSJTdmdqc1RzcGFuMTIxMCIgZHk9IjE2IiB4PSI1OC41Ij48dHNwYW4gaWQ9IlN2Z2pzVHNwYW4xMjExIiBzdHlsZT0idGV4dC1kZWNvcmF0aW9uOjsiPuiuvue9rumUgeeahG93bmVyPC90c3Bhbj48L3RzcGFuPjx0c3BhbiBpZD0iU3ZnanNUc3BhbjEyMTIiIGR5PSIxNiIgeD0iNTguNSI+PHRzcGFuIGlkPSJTdmdqc1RzcGFuMTIxMyIgc3R5bGU9InRleHQtZGVjb3JhdGlvbjo7Ij7kuLrlvZPliY3nur/nqIs8L3RzcGFuPjwvdHNwYW4+PC90ZXh0PjwvZz48L2c+PGcgaWQ9IlN2Z2pzRzEyMTQiPjxwYXRoIGlkPSJTdmdqc1BhdGgxMjE1IiBkPSJNMzU3LjA5OTk5MDg0NDcyNjU2IDQ5MS41MDYyNDQ2NTk0MjM4TDM4NC4wOTk5OTA4NDQ3MjY1NiA0OTEuNTA2MjQ0NjU5NDIzOEwzODQuMDk5OTkwODQ0NzI2NTYgNTQ2LjQwNjI0NDY1OTQyMzgiIHN0cm9rZT0iIzMyMzIzMiIgc3Ryb2tlLXdpZHRoPSIyIiBmaWxsPSJub25lIiBtYXJrZXItZW5kPSJ1cmwoI1N2Z2pzTWFya2VyMTIxNikiLz48cmVjdCBpZD0iU3ZnanNSZWN0MTIxOCIgd2lkdGg9IjI2IiBoZWlnaHQ9IjE2IiB4PSIzNzEuMDk5OTkwODQ0NzI2NTYiIHk9IjQ5Ny40NTYyNDQ2NTk0MjM4IiBmaWxsPSIjZmZmZmZmIi8+PHRleHQgaWQ9IlN2Z2pzVGV4dDEyMTkiIGZvbnQtZmFtaWx5PSLlvq7ova/pm4Xpu5EiIHRleHQtYW5jaG9yPSJtaWRkbGUiIGZvbnQtc2l6ZT0iMTNweCIgd2lkdGg9IjI2cHgiIGZpbGw9IiMzMjMyMzIiIGZvbnQtd2VpZ2h0PSI0MDAiIGFsaWduPSJ0b3AiIGxpbmVoZWlnaHQ9IjE2cHgiIGFuY2hvcj0ibWlkZGxlIiBmYW1pbHk9IuW+rui9r+mbhem7kSIgc2l6ZT0iMTNweCIgd2VpZ2h0PSI0MDAiIGZvbnQtc3R5bGU9IiIgb3BhY2l0eT0iMSIgeT0iNDk0LjgzMTI0NDY1OTQyMzgiIHRyYW5zZm9ybT0icm90YXRlKDApIj48dHNwYW4gaWQ9IlN2Z2pzVHNwYW4xMjIwIiBkeT0iMTYiIHg9IjM4NC4wOTk5OTA4NDQ3MjY1NiI+PHRzcGFuIGlkPSJTdmdqc1RzcGFuMTIyMSIgc3R5bGU9InRleHQtZGVjb3JhdGlvbjo7Ij7lpLHotKU8L3RzcGFuPjwvdHNwYW4+PC90ZXh0PjwvZz48ZyBpZD0iU3ZnanNHMTIyMiIgdHJhbnNmb3JtPSJ0cmFuc2xhdGUoMzM0LjA5OTk5MDg0NDcyNjU2LDU1MC4wMDYyNDQ2NTk0MjM4KSI+PHBhdGggaWQ9IlN2Z2pzUGF0aDEyMjMiIGQ9Ik0gMCAwTCAxMDAgMEwgMTAwIDQ0TCAwIDQ0WiIgc3Ryb2tlPSJyZ2JhKDUwLDUwLDUwLDEpIiBzdHJva2Utd2lkdGg9IjIiIGZpbGwtb3BhY2l0eT0iMSIgZmlsbD0iI2ZmZmZmZiIvPjxnIGlkPSJTdmdqc0cxMjI0Ij48dGV4dCBpZD0iU3ZnanNUZXh0MTIyNSIgZm9udC1mYW1pbHk9IuW+rui9r+mbhem7kSIgdGV4dC1hbmNob3I9Im1pZGRsZSIgZm9udC1zaXplPSIxM3B4IiB3aWR0aD0iODBweCIgZmlsbD0iIzMyMzIzMiIgZm9udC13ZWlnaHQ9IjQwMCIgYWxpZ249Im1pZGRsZSIgbGluZWhlaWdodD0iMTI1JSIgYW5jaG9yPSJtaWRkbGUiIGZhbWlseT0i5b6u6L2v6ZuF6buRIiBzaXplPSIxM3B4IiB3ZWlnaHQ9IjQwMCIgZm9udC1zdHlsZT0iIiBvcGFjaXR5PSIxIiB5PSIxMS4zNzUiIHRyYW5zZm9ybT0icm90YXRlKDApIj48dHNwYW4gaWQ9IlN2Z2pzVHNwYW4xMjI2IiBkeT0iMTYiIHg9IjUwIj48dHNwYW4gaWQ9IlN2Z2pzVHNwYW4xMjI3IiBzdHlsZT0idGV4dC1kZWNvcmF0aW9uOjsiPmFjcXVpcmUoMSk8L3RzcGFuPjwvdHNwYW4+PC90ZXh0PjwvZz48L2c+PGcgaWQ9IlN2Z2pzRzEyMjgiPjxwYXRoIGlkPSJTdmdqc1BhdGgxMjI5IiBkPSJNMzE0LjU5OTk5MDg0NDcyNjU2IDQxNy4wMDYyNDQ2NTk0MjM4TDMxNC41OTk5OTA4NDQ3MjY1NiA0NDAuNTA2MjQ0NjU5NDIzOEwzMTQuNTk5OTkwODQ0NzI2NTYgNDQwLjUwNjI0NDY1OTQyMzhMMzE0LjU5OTk5MDg0NDcyNjU2IDQ2MS40MDYyNDQ2NTk0MjM4IiBzdHJva2UtZGFzaGFycmF5PSIzLDMiIHN0cm9rZT0iIzMyMzIzMiIgc3Ryb2tlLXdpZHRoPSIyIiBmaWxsPSJub25lIiBtYXJrZXItZW5kPSJ1cmwoI1N2Z2pzTWFya2VyMTIzMCkiLz48L2c+PGcgaWQ9IlN2Z2pzRzEyMzIiPjxwYXRoIGlkPSJTdmdqc1BhdGgxMjMzIiBkPSJNNDM1LjA5OTk5MDg0NDcyNjU2IDU3Ni4wMDYyNDQ2NTk0MjM4TDUwMi44NDk5OTA4NDQ3MjY1NiA1NzYuMDA2MjQ0NjU5NDIzOEw1MDIuODQ5OTkwODQ0NzI2NTYgNTc2LjAwNjI0NDY1OTQyMzhMNTY1Ljk5OTk5MDg0NDcyNjUgNTc2LjAwNjI0NDY1OTQyMzgiIHN0cm9rZS1kYXNoYXJyYXk9IjMsMyIgc3Ryb2tlPSIjMzIzMjMyIiBzdHJva2Utd2lkdGg9IjIiIGZpbGw9Im5vbmUiIG1hcmtlci1lbmQ9InVybCgjU3ZnanNNYXJrZXIxMjM0KSIvPjxyZWN0IGlkPSJTdmdqc1JlY3QxMjM2IiB3aWR0aD0iMTA0IiBoZWlnaHQ9IjE2IiB4PSI0NDguNTQ5OTkwODQ0NzI2NTUiIHk9IjU2OC4wMDYyNDQ2NTk0MjM4IiBmaWxsPSIjZmZmZmZmIi8+PHRleHQgaWQ9IlN2Z2pzVGV4dDEyMzciIGZvbnQtZmFtaWx5PSLlvq7ova/pm4Xpu5EiIHRleHQtYW5jaG9yPSJtaWRkbGUiIGZvbnQtc2l6ZT0iMTNweCIgd2lkdGg9IjEwNHB4IiBmaWxsPSIjMzIzMjMyIiBmb250LXdlaWdodD0iNDAwIiBhbGlnbj0idG9wIiBsaW5laGVpZ2h0PSIxNnB4IiBhbmNob3I9Im1pZGRsZSIgZmFtaWx5PSLlvq7ova/pm4Xpu5EiIHNpemU9IjEzcHgiIHdlaWdodD0iNDAwIiBmb250LXN0eWxlPSIiIG9wYWNpdHk9IjEiIHk9IjU2NS4zODEyNDQ2NTk0MjM4IiB0cmFuc2Zvcm09InJvdGF0ZSgwKSI+PHRzcGFuIGlkPSJTdmdqc1RzcGFuMTIzOCIgZHk9IjE2IiB4PSI1MDAuNTQ5OTkwODQ0NzI2NTUiPjx0c3BhbiBpZD0iU3ZnanNUc3BhbjEyMzkiIHN0eWxlPSJ0ZXh0LWRlY29yYXRpb246OyI+5L2/55So55qEdHJ5QWNxdWlyZTwvdHNwYW4+PC90c3Bhbj48L3RleHQ+PC9nPjxnIGlkPSJTdmdqc0cxMjQwIiB0cmFuc2Zvcm09InRyYW5zbGF0ZSg1NjkuNTk5OTkwODQ0NzI2Niw1NDIuMDA2MjQ0NjU5NDIzOCkiPjxwYXRoIGlkPSJTdmdqc1BhdGgxMjQxIiBkPSJNIDAgMEwgMTQ4IDBMIDE0OCA2OEwgMCA2OFoiIHN0cm9rZT0icmdiYSg1MCw1MCw1MCwxKSIgc3Ryb2tlLXdpZHRoPSIyIiBmaWxsLW9wYWNpdHk9IjEiIGZpbGw9IiNmZmZmZmYiLz48ZyBpZD0iU3ZnanNHMTI0MiI+PHRleHQgaWQ9IlN2Z2pzVGV4dDEyNDMiIGZvbnQtZmFtaWx5PSLlvq7ova/pm4Xpu5EiIHRleHQtYW5jaG9yPSJtaWRkbGUiIGZvbnQtc2l6ZT0iMTNweCIgd2lkdGg9IjEyOHB4IiBmaWxsPSIjMzIzMjMyIiBmb250LXdlaWdodD0iNDAwIiBhbGlnbj0ibWlkZGxlIiBsaW5laGVpZ2h0PSIxMjUlIiBhbmNob3I9Im1pZGRsZSIgZmFtaWx5PSLlvq7ova/pm4Xpu5EiIHNpemU9IjEzcHgiIHdlaWdodD0iNDAwIiBmb250LXN0eWxlPSIiIG9wYWNpdHk9IjEiIHk9IjE0Ljg3NSIgdHJhbnNmb3JtPSJyb3RhdGUoMCkiPjx0c3BhbiBpZD0iU3ZnanNUc3BhbjEyNDQiIGR5PSIxNiIgeD0iNzQiPjx0c3BhbiBpZD0iU3ZnanNUc3BhbjEyNDUiIHN0eWxlPSJ0ZXh0LWRlY29yYXRpb246OyI+55u05o6l6LCD55So54i257G7U3luY+eahDwvdHNwYW4+PC90c3Bhbj48dHNwYW4gaWQ9IlN2Z2pzVHNwYW4xMjQ2IiBkeT0iMTYiIHg9Ijc0Ij48dHNwYW4gaWQ9IlN2Z2pzVHNwYW4xMjQ3IiBzdHlsZT0idGV4dC1kZWNvcmF0aW9uOjsiPm5vbmZhaXJUcnlBY3F1aXJlPC90c3Bhbj48L3RzcGFuPjwvdGV4dD48L2c+PC9nPjxnIGlkPSJTdmdqc0cxMjQ4IiB0cmFuc2Zvcm09InRyYW5zbGF0ZSg3NTkuNTk5OTkwODQ0NzI2NiwzOTUuMDA2MjQ0NjU5NDIzOCkiPjxwYXRoIGlkPSJTdmdqc1BhdGgxMjQ5IiBkPSJNIDAgMEwgMzk5IDBMIDQxNSAxNkwgNDE1IDM2MkwgMCAzNjJMIDAgMFoiIHN0cm9rZT0ibm9uZSIgZmlsbC1vcGFjaXR5PSIxIiBmaWxsPSIjZmZmZmFhIi8+PHBhdGggaWQ9IlN2Z2pzUGF0aDEyNTAiIGQ9Ik0gMzk5IDBMIDM5OSAxNkwgNDE1IDE2WiIgc3Ryb2tlPSJub25lIiBmaWxsLW9wYWNpdHk9IjEiIGZpbGw9IiNjZGNkY2QiLz48cGF0aCBpZD0iU3ZnanNQYXRoMTI1MSIgZD0iTSAwIDBMIDM5OSAwTCA0MTUgMTZMIDQxNSAzNjJMIDAgMzYyTCAwIDBaIiBzdHJva2U9Im5vbmUiIGZpbGw9Im5vbmUiLz48ZyBpZD0iU3ZnanNHMTI1MiI+PHRleHQgaWQ9IlN2Z2pzVGV4dDEyNTMiIGZvbnQtZmFtaWx5PSLlvq7ova/pm4Xpu5EiIHRleHQtYW5jaG9yPSJtaWRkbGUiIGZvbnQtc2l6ZT0iMTNweCIgd2lkdGg9IjM5NXB4IiBmaWxsPSIjMzIzMjMyIiBmb250LXdlaWdodD0iNDAwIiBhbGlnbj0ibWlkZGxlIiBsaW5laGVpZ2h0PSIxMjUlIiBhbmNob3I9Im1pZGRsZSIgZmFtaWx5PSLlvq7ova/pm4Xpu5EiIHNpemU9IjEzcHgiIHdlaWdodD0iNDAwIiBmb250LXN0eWxlPSIiIG9wYWNpdHk9IjEiIHk9IjE3MC4zNzUiIHRyYW5zZm9ybT0icm90YXRlKDApIi8+PC9nPjwvZz48ZyBpZD0iU3ZnanNHMTI1NCIgdHJhbnNmb3JtPSJ0cmFuc2xhdGUoOTAzLjU5OTk5MDg0NDcyNjYsNDA5LjAwNjI0NTEzNjI2MSkiPjxwYXRoIGlkPSJTdmdqc1BhdGgxMjU1IiBkPSJNIDAgMzAuNUwgNjIuNSAwTCAxMjUgMzAuNUwgNjIuNSA2MVoiIHN0cm9rZT0icmdiYSg1MCw1MCw1MCwxKSIgc3Ryb2tlLXdpZHRoPSIyIiBmaWxsLW9wYWNpdHk9IjEiIGZpbGw9IiNmZmI3NGQiLz48ZyBpZD0iU3ZnanNHMTI1NiI+PHRleHQgaWQ9IlN2Z2pzVGV4dDEyNTciIGZvbnQtZmFtaWx5PSLlvq7ova/pm4Xpu5EiIHRleHQtYW5jaG9yPSJtaWRkbGUiIGZvbnQtc2l6ZT0iMTNweCIgd2lkdGg9IjEwNXB4IiBmaWxsPSIjMzIzMjMyIiBmb250LXdlaWdodD0iNDAwIiBhbGlnbj0ibWlkZGxlIiBsaW5laGVpZ2h0PSIxMjUlIiBhbmNob3I9Im1pZGRsZSIgZmFtaWx5PSLlvq7ova/pm4Xpu5EiIHNpemU9IjEzcHgiIHdlaWdodD0iNDAwIiBmb250LXN0eWxlPSIiIG9wYWNpdHk9IjEiIHk9IjIwLjE4IiB0cmFuc2Zvcm09InJvdGF0ZSgwKSI+PHRzcGFuIGlkPSJTdmdqc1RzcGFuMTI1OCIgZHk9IjE2IiB4PSI2Mi41Ij48dHNwYW4gaWQ9IlN2Z2pzVHNwYW4xMjU5IiBzdHlsZT0idGV4dC1kZWNvcmF0aW9uOjsiPnN0YXRlPT0wPzwvdHNwYW4+PC90c3Bhbj48L3RleHQ+PC9nPjwvZz48ZyBpZD0iU3ZnanNHMTI2MCI+PHBhdGggaWQ9IlN2Z2pzUGF0aDEyNjEiIGQ9Ik05MDIuNTk5OTkwODQ0NzI2NiA0MzkuNTA2MjQ1MTM2MjYxTDg0NSA0MzkuNTA2MjQ1MTM2MjYxTDg0NSA0OTIuODA2MjQ2MTg1MzAyNyIgc3Ryb2tlPSIjMzIzMjMyIiBzdHJva2Utd2lkdGg9IjIiIGZpbGw9Im5vbmUiIG1hcmtlci1lbmQ9InVybCgjU3ZnanNNYXJrZXIxMjYyKSIvPjxyZWN0IGlkPSJTdmdqc1JlY3QxMjY0IiB3aWR0aD0iMTMiIGhlaWdodD0iMTYiIHg9Ijg0MC42NDk5OTQ4OTc4NDI0IiB5PSI0MzEuNTA2MjQ1MTM2MjYxIiBmaWxsPSIjZmZmZmZmIi8+PHRleHQgaWQ9IlN2Z2pzVGV4dDEyNjUiIGZvbnQtZmFtaWx5PSLlvq7ova/pm4Xpu5EiIHRleHQtYW5jaG9yPSJtaWRkbGUiIGZvbnQtc2l6ZT0iMTNweCIgd2lkdGg9IjEzcHgiIGZpbGw9IiMzMjMyMzIiIGZvbnQtd2VpZ2h0PSI0MDAiIGFsaWduPSJ0b3AiIGxpbmVoZWlnaHQ9IjE2cHgiIGFuY2hvcj0ibWlkZGxlIiBmYW1pbHk9IuW+rui9r+mbhem7kSIgc2l6ZT0iMTNweCIgd2VpZ2h0PSI0MDAiIGZvbnQtc3R5bGU9IiIgb3BhY2l0eT0iMSIgeT0iNDI4Ljg4MTI0NTEzNjI2MSIgdHJhbnNmb3JtPSJyb3RhdGUoMCkiPjx0c3BhbiBpZD0iU3ZnanNUc3BhbjEyNjYiIGR5PSIxNiIgeD0iODQ3LjE0OTk5NDg5Nzg0MjQiPjx0c3BhbiBpZD0iU3ZnanNUc3BhbjEyNjciIHN0eWxlPSJ0ZXh0LWRlY29yYXRpb246OyI+5pivPC90c3Bhbj48L3RzcGFuPjwvdGV4dD48L2c+PGcgaWQ9IlN2Z2pzRzEyNjgiIHRyYW5zZm9ybT0idHJhbnNsYXRlKDgwMy41LDQ5Ni40MDYyNDYxODUzMDI3MykiPjxwYXRoIGlkPSJTdmdqc1BhdGgxMjY5IiBkPSJNIDAgMEwgODMgMEwgODMgMzhMIDAgMzhaIiBzdHJva2U9InJnYmEoNTAsNTAsNTAsMSkiIHN0cm9rZS13aWR0aD0iMiIgZmlsbC1vcGFjaXR5PSIxIiBmaWxsPSIjZmZmZmZmIi8+PGcgaWQ9IlN2Z2pzRzEyNzAiPjx0ZXh0IGlkPSJTdmdqc1RleHQxMjcxIiBmb250LWZhbWlseT0i5b6u6L2v6ZuF6buRIiB0ZXh0LWFuY2hvcj0ibWlkZGxlIiBmb250LXNpemU9IjEzcHgiIHdpZHRoPSI2M3B4IiBmaWxsPSIjMzIzMjMyIiBmb250LXdlaWdodD0iNDAwIiBhbGlnbj0ibWlkZGxlIiBsaW5laGVpZ2h0PSIxMjUlIiBhbmNob3I9Im1pZGRsZSIgZmFtaWx5PSLlvq7ova/pm4Xpu5EiIHNpemU9IjEzcHgiIHdlaWdodD0iNDAwIiBmb250LXN0eWxlPSIiIG9wYWNpdHk9IjEiIHk9IjguMzc1IiB0cmFuc2Zvcm09InJvdGF0ZSgwKSI+PHRzcGFuIGlkPSJTdmdqc1RzcGFuMTI3MiIgZHk9IjE2IiB4PSI0MS41Ij48dHNwYW4gaWQ9IlN2Z2pzVHNwYW4xMjczIiBzdHlsZT0idGV4dC1kZWNvcmF0aW9uOjsiPmNhc+iOt+WPlumUgTwvdHNwYW4+PC90c3Bhbj48L3RleHQ+PC9nPjwvZz48ZyBpZD0iU3ZnanNHMTI3NCI+PHBhdGggaWQ9IlN2Z2pzUGF0aDEyNzUiIGQ9Ik04NDQgNTM1LjQwNjI0NjE4NTMwMjdMODQ0IDU1Ni41MDYyNDUxMzYyNjFMODQ0IDU1Ni41MDYyNDUxMzYyNjFMODQ0IDU3OC44MDYyNDYxODUzMDI3IiBzdHJva2U9IiMxOTc2ZDIiIHN0cm9rZS13aWR0aD0iMiIgZmlsbD0ibm9uZSIgbWFya2VyLWVuZD0idXJsKCNTdmdqc01hcmtlcjEyNzYpIi8+PHJlY3QgaWQ9IlN2Z2pzUmVjdDEyNzgiIHdpZHRoPSIyNiIgaGVpZ2h0PSIxNiIgeD0iODMxIiB5PSI1NDkuMTA2MjQ2MTg1MzAyOCIgZmlsbD0iI2ZmZmZmZiIvPjx0ZXh0IGlkPSJTdmdqc1RleHQxMjc5IiBmb250LWZhbWlseT0i5b6u6L2v6ZuF6buRIiB0ZXh0LWFuY2hvcj0ibWlkZGxlIiBmb250LXNpemU9IjEzcHgiIHdpZHRoPSIyNnB4IiBmaWxsPSIjMzIzMjMyIiBmb250LXdlaWdodD0iNDAwIiBhbGlnbj0idG9wIiBsaW5laGVpZ2h0PSIxNnB4IiBhbmNob3I9Im1pZGRsZSIgZmFtaWx5PSLlvq7ova/pm4Xpu5EiIHNpemU9IjEzcHgiIHdlaWdodD0iNDAwIiBmb250LXN0eWxlPSIiIG9wYWNpdHk9IjEiIHk9IjU0Ni40ODEyNDYxODUzMDI4IiB0cmFuc2Zvcm09InJvdGF0ZSgwKSI+PHRzcGFuIGlkPSJTdmdqc1RzcGFuMTI4MCIgZHk9IjE2IiB4PSI4NDQiPjx0c3BhbiBpZD0iU3ZnanNUc3BhbjEyODEiIHN0eWxlPSJ0ZXh0LWRlY29yYXRpb246OyI+5oiQ5YqfPC90c3Bhbj48L3RzcGFuPjwvdGV4dD48L2c+PGcgaWQ9IlN2Z2pzRzEyODIiIHRyYW5zZm9ybT0idHJhbnNsYXRlKDc3NCw1ODIuNDA2MjQ2MTg1MzAyNykiPjxwYXRoIGlkPSJTdmdqc1BhdGgxMjgzIiBkPSJNIDAgMEwgMTQwIDBMIDE0MCA2OEwgMCA2OFoiIHN0cm9rZT0icmdiYSg1MCw1MCw1MCwxKSIgc3Ryb2tlLXdpZHRoPSIyIiBmaWxsLW9wYWNpdHk9IjEiIGZpbGw9IiNmZmZmZmYiLz48ZyBpZD0iU3ZnanNHMTI4NCI+PHRleHQgaWQ9IlN2Z2pzVGV4dDEyODUiIGZvbnQtZmFtaWx5PSLlvq7ova/pm4Xpu5EiIHRleHQtYW5jaG9yPSJtaWRkbGUiIGZvbnQtc2l6ZT0iMTNweCIgd2lkdGg9IjEyMHB4IiBmaWxsPSIjMzIzMjMyIiBmb250LXdlaWdodD0iNDAwIiBhbGlnbj0ibWlkZGxlIiBsaW5laGVpZ2h0PSIxMjUlIiBhbmNob3I9Im1pZGRsZSIgZmFtaWx5PSLlvq7ova/pm4Xpu5EiIHNpemU9IjEzcHgiIHdlaWdodD0iNDAwIiBmb250LXN0eWxlPSIiIG9wYWNpdHk9IjEiIHk9IjYuODc1IiB0cmFuc2Zvcm09InJvdGF0ZSgwKSI+PHRzcGFuIGlkPSJTdmdqc1RzcGFuMTI4NiIgZHk9IjE2IiB4PSI3MCI+PHRzcGFuIGlkPSJTdmdqc1RzcGFuMTI4NyIgc3R5bGU9InRleHQtZGVjb3JhdGlvbjo7Ij7orr7nva7mjpLlroPplIHnmoTnur/nqIvkuLo8L3RzcGFuPjwvdHNwYW4+PHRzcGFuIGlkPSJTdmdqc1RzcGFuMTI4OCIgZHk9IjE2IiB4PSI3MCI+PHRzcGFuIGlkPSJTdmdqc1RzcGFuMTI4OSIgc3R5bGU9InRleHQtZGVjb3JhdGlvbjo7Ij7lvZPliY3nur/nqIvvvIzljbPplIHnmoQ8L3RzcGFuPjwvdHNwYW4+PHRzcGFuIGlkPSJTdmdqc1RzcGFuMTI5MCIgZHk9IjE2IiB4PSI3MCI+PHRzcGFuIGlkPSJTdmdqc1RzcGFuMTI5MSIgc3R5bGU9InRleHQtZGVjb3JhdGlvbjo7Ij5vd25lcuaYr+W9k+WJjee6v+eoizwvdHNwYW4+PC90c3Bhbj48L3RleHQ+PC9nPjwvZz48ZyBpZD0iU3ZnanNHMTI5MiI+PHBhdGggaWQ9IlN2Z2pzUGF0aDEyOTMiIGQ9Ik0xMDI5LjU5OTk5MDg0NDcyNjYgNDM5LjUwNjI0NTEzNjI2MUwxMDk2IDQzOS41MDYyNDUxMzYyNjFMMTA5NiA0NzUuMzA2MjQ2MTg1MzAyNyIgc3Ryb2tlPSIjMzIzMjMyIiBzdHJva2Utd2lkdGg9IjIiIGZpbGw9Im5vbmUiIG1hcmtlci1lbmQ9InVybCgjU3ZnanNNYXJrZXIxMjk0KSIvPjxyZWN0IGlkPSJTdmdqc1JlY3QxMjk2IiB3aWR0aD0iMTMiIGhlaWdodD0iMTYiIHg9IjEwNzQuMTk5OTk1OTQ2ODg0MiIgeT0iNDMxLjUwNjI0NTEzNjI2MSIgZmlsbD0iI2ZmZmZmZiIvPjx0ZXh0IGlkPSJTdmdqc1RleHQxMjk3IiBmb250LWZhbWlseT0i5b6u6L2v6ZuF6buRIiB0ZXh0LWFuY2hvcj0ibWlkZGxlIiBmb250LXNpemU9IjEzcHgiIHdpZHRoPSIxM3B4IiBmaWxsPSIjMzIzMjMyIiBmb250LXdlaWdodD0iNDAwIiBhbGlnbj0idG9wIiBsaW5laGVpZ2h0PSIxNnB4IiBhbmNob3I9Im1pZGRsZSIgZmFtaWx5PSLlvq7ova/pm4Xpu5EiIHNpemU9IjEzcHgiIHdlaWdodD0iNDAwIiBmb250LXN0eWxlPSIiIG9wYWNpdHk9IjEiIHk9IjQyOC44ODEyNDUxMzYyNjEiIHRyYW5zZm9ybT0icm90YXRlKDApIj48dHNwYW4gaWQ9IlN2Z2pzVHNwYW4xMjk4IiBkeT0iMTYiIHg9IjEwODAuNjk5OTk1OTQ2ODg0MiI+PHRzcGFuIGlkPSJTdmdqc1RzcGFuMTI5OSIgc3R5bGU9InRleHQtZGVjb3JhdGlvbjo7Ij7lkKY8L3RzcGFuPjwvdHNwYW4+PC90ZXh0PjwvZz48ZyBpZD0iU3ZnanNHMTMwMCIgdHJhbnNmb3JtPSJ0cmFuc2xhdGUoMTA0Mi41LDQ3OC45MDYyNDYxODUzMDI3MykiPjxwYXRoIGlkPSJTdmdqc1BhdGgxMzAxIiBkPSJNIDAgMzYuNUwgNTMuNSAwTCAxMDcgMzYuNUwgNTMuNSA3M1oiIHN0cm9rZT0icmdiYSg1MCw1MCw1MCwxKSIgc3Ryb2tlLXdpZHRoPSIyIiBmaWxsLW9wYWNpdHk9IjEiIGZpbGw9IiNmZmI3NGQiLz48ZyBpZD0iU3ZnanNHMTMwMiI+PHRleHQgaWQ9IlN2Z2pzVGV4dDEzMDMiIGZvbnQtZmFtaWx5PSLlvq7ova/pm4Xpu5EiIHRleHQtYW5jaG9yPSJtaWRkbGUiIGZvbnQtc2l6ZT0iMTNweCIgd2lkdGg9Ijg3cHgiIGZpbGw9IiMzMjMyMzIiIGZvbnQtd2VpZ2h0PSI0MDAiIGFsaWduPSJtaWRkbGUiIGxpbmVoZWlnaHQ9IjEyNSUiIGFuY2hvcj0ibWlkZGxlIiBmYW1pbHk9IuW+rui9r+mbhem7kSIgc2l6ZT0iMTNweCIgd2VpZ2h0PSI0MDAiIGZvbnQtc3R5bGU9IiIgb3BhY2l0eT0iMSIgeT0iMTcuNzQwMDAwMDAwMDAwMDAyIiB0cmFuc2Zvcm09InJvdGF0ZSgwKSI+PHRzcGFuIGlkPSJTdmdqc1RzcGFuMTMwNCIgZHk9IjE2IiB4PSI1My41Ij48dHNwYW4gaWQ9IlN2Z2pzVHNwYW4xMzA1IiBzdHlsZT0idGV4dC1kZWNvcmF0aW9uOjsiPuW9k+WJjee6v+eoi+aYr+WQpjwvdHNwYW4+PC90c3Bhbj48dHNwYW4gaWQ9IlN2Z2pzVHNwYW4xMzA2IiBkeT0iMTYiIHg9IjUzLjUiPjx0c3BhbiBpZD0iU3ZnanNUc3BhbjEzMDciIHN0eWxlPSJ0ZXh0LWRlY29yYXRpb246OyI+5piv6ZSB55qE5Li75Lq6PC90c3Bhbj48L3RzcGFuPjwvdGV4dD48L2c+PC9nPjxnIGlkPSJTdmdqc0cxMzA4Ij48cGF0aCBpZD0iU3ZnanNQYXRoMTMwOSIgZD0iTTEwOTYgNTUyLjkwNjI0NjE4NTMwMjdMMTA5NiA1NjYuMDA2MjQ1MTM2MjYxTDEwOTYgNTY2LjAwNjI0NTEzNjI2MUwxMDk2IDU3OC44MDYyNDYxODUzMDI3IiBzdHJva2U9IiMzMjMyMzIiIHN0cm9rZS13aWR0aD0iMiIgZmlsbD0ibm9uZSIgbWFya2VyLWVuZD0idXJsKCNTdmdqc01hcmtlcjEzMTApIi8+PHJlY3QgaWQ9IlN2Z2pzUmVjdDEzMTIiIHdpZHRoPSIxMyIgaGVpZ2h0PSIxNiIgeD0iMTA4OS41IiB5PSI1NTcuODU2MjQ2MTg1MzAyNyIgZmlsbD0iI2ZmZmZmZiIvPjx0ZXh0IGlkPSJTdmdqc1RleHQxMzEzIiBmb250LWZhbWlseT0i5b6u6L2v6ZuF6buRIiB0ZXh0LWFuY2hvcj0ibWlkZGxlIiBmb250LXNpemU9IjEzcHgiIHdpZHRoPSIxM3B4IiBmaWxsPSIjMzIzMjMyIiBmb250LXdlaWdodD0iNDAwIiBhbGlnbj0idG9wIiBsaW5laGVpZ2h0PSIxNnB4IiBhbmNob3I9Im1pZGRsZSIgZmFtaWx5PSLlvq7ova/pm4Xpu5EiIHNpemU9IjEzcHgiIHdlaWdodD0iNDAwIiBmb250LXN0eWxlPSIiIG9wYWNpdHk9IjEiIHk9IjU1NS4yMzEyNDYxODUzMDI3IiB0cmFuc2Zvcm09InJvdGF0ZSgwKSI+PHRzcGFuIGlkPSJTdmdqc1RzcGFuMTMxNCIgZHk9IjE2IiB4PSIxMDk2Ij48dHNwYW4gaWQ9IlN2Z2pzVHNwYW4xMzE1IiBzdHlsZT0idGV4dC1kZWNvcmF0aW9uOjsiPuaYrzwvdHNwYW4+PC90c3Bhbj48L3RleHQ+PC9nPjxnIGlkPSJTdmdqc0cxMzE2IiB0cmFuc2Zvcm09InRyYW5zbGF0ZSgxMDIyLDU4Mi40MDYyNDYxODUzMDI3KSI+PHBhdGggaWQ9IlN2Z2pzUGF0aDEzMTciIGQ9Ik0gMCAwTCAxNDggMEwgMTQ4IDY4TCAwIDY4WiIgc3Ryb2tlPSJyZ2JhKDUwLDUwLDUwLDEpIiBzdHJva2Utd2lkdGg9IjIiIGZpbGwtb3BhY2l0eT0iMSIgZmlsbD0iI2ZmZmZmZiIvPjxnIGlkPSJTdmdqc0cxMzE4Ij48dGV4dCBpZD0iU3ZnanNUZXh0MTMxOSIgZm9udC1mYW1pbHk9IuW+rui9r+mbhem7kSIgdGV4dC1hbmNob3I9Im1pZGRsZSIgZm9udC1zaXplPSIxM3B4IiB3aWR0aD0iMTI4cHgiIGZpbGw9IiMzMjMyMzIiIGZvbnQtd2VpZ2h0PSI0MDAiIGFsaWduPSJtaWRkbGUiIGxpbmVoZWlnaHQ9IjEyNSUiIGFuY2hvcj0ibWlkZGxlIiBmYW1pbHk9IuW+rui9r+mbhem7kSIgc2l6ZT0iMTNweCIgd2VpZ2h0PSI0MDAiIGZvbnQtc3R5bGU9IiIgb3BhY2l0eT0iMSIgeT0iMTQuODc1IiB0cmFuc2Zvcm09InJvdGF0ZSgwKSI+PHRzcGFuIGlkPSJTdmdqc1RzcGFuMTMyMCIgZHk9IjE2IiB4PSI3NCI+PHRzcGFuIGlkPSJTdmdqc1RzcGFuMTMyMSIgc3R5bGU9InRleHQtZGVjb3JhdGlvbjo7Ij7orr7nva7plIHph43lhaXlgLzvvIgrMe+8iTwvdHNwYW4+PC90c3Bhbj48dHNwYW4gaWQ9IlN2Z2pzVHNwYW4xMzIyIiBkeT0iMTYiIHg9Ijc0Ij48dHNwYW4gaWQ9IlN2Z2pzVHNwYW4xMzIzIiBzdHlsZT0idGV4dC1kZWNvcmF0aW9uOjsiPui/memHjOS4jeeUqGNhczwvdHNwYW4+PC90c3Bhbj48L3RleHQ+PC9nPjwvZz48ZyBpZD0iU3ZnanNHMTMyNCIgdHJhbnNmb3JtPSJ0cmFuc2xhdGUoOTI3LjU5OTk5MDg0NDcyNjYsNjk1LjAwNjI0NDY1OTQyMzgpIj48cGF0aCBpZD0iU3ZnanNQYXRoMTMyNSIgZD0iTSAwIDBMIDEwMCAwTCAxMDAgNTNMIDAgNTNaIiBzdHJva2U9InJnYmEoNTAsNTAsNTAsMSkiIHN0cm9rZS13aWR0aD0iMiIgZmlsbC1vcGFjaXR5PSIxIiBmaWxsPSIjZmZmZmZmIi8+PGcgaWQ9IlN2Z2pzRzEzMjYiPjx0ZXh0IGlkPSJTdmdqc1RleHQxMzI3IiBmb250LWZhbWlseT0i5b6u6L2v6ZuF6buRIiB0ZXh0LWFuY2hvcj0ibWlkZGxlIiBmb250LXNpemU9IjEzcHgiIHdpZHRoPSI4MHB4IiBmaWxsPSIjMzIzMjMyIiBmb250LXdlaWdodD0iNDAwIiBhbGlnbj0ibWlkZGxlIiBsaW5laGVpZ2h0PSIxMjUlIiBhbmNob3I9Im1pZGRsZSIgZmFtaWx5PSLlvq7ova/pm4Xpu5EiIHNpemU9IjEzcHgiIHdlaWdodD0iNDAwIiBmb250LXN0eWxlPSIiIG9wYWNpdHk9IjEiIHk9IjE1Ljg3NSIgdHJhbnNmb3JtPSJyb3RhdGUoMCkiPjx0c3BhbiBpZD0iU3ZnanNUc3BhbjEzMjgiIGR5PSIxNiIgeD0iNTAiPjx0c3BhbiBpZD0iU3ZnanNUc3BhbjEzMjkiIHN0eWxlPSJ0ZXh0LWRlY29yYXRpb246OyI+6L+U5ZuedHJ1ZTwvdHNwYW4+PC90c3Bhbj48L3RleHQ+PC9nPjwvZz48ZyBpZD0iU3ZnanNHMTMzMCI+PHBhdGggaWQ9IlN2Z2pzUGF0aDEzMzEiIGQ9Ik0xMDk2IDY1MS40MDYyNDYxODUzMDI3TDEwOTYgNjcwLjUwNjI0NDY1OTQyMzhMOTc3LjU5OTk5MDg0NDcyNjYgNjcwLjUwNjI0NDY1OTQyMzhMOTc3LjU5OTk5MDg0NDcyNjYgNjkxLjQwNjI0NDY1OTQyMzgiIHN0cm9rZT0iIzMyMzIzMiIgc3Ryb2tlLXdpZHRoPSIyIiBmaWxsPSJub25lIiBtYXJrZXItZW5kPSJ1cmwoI1N2Z2pzTWFya2VyMTMzMikiLz48L2c+PGcgaWQ9IlN2Z2pzRzEzMzQiPjxwYXRoIGlkPSJTdmdqc1BhdGgxMzM1IiBkPSJNODQ0IDY1MS40MDYyNDYxODUzMDI3TDg0NCA2NzAuNTA2MjQ0NjU5NDIzOEw5NzcuNTk5OTkwODQ0NzI2NiA2NzAuNTA2MjQ0NjU5NDIzOEw5NzcuNTk5OTkwODQ0NzI2NiA2OTEuNDA2MjQ0NjU5NDIzOCIgc3Ryb2tlPSIjMTk3NmQyIiBzdHJva2Utd2lkdGg9IjIiIGZpbGw9Im5vbmUiIG1hcmtlci1lbmQ9InVybCgjU3ZnanNNYXJrZXIxMzM2KSIvPjwvZz48ZyBpZD0iU3ZnanNHMTMzOCI+PHBhdGggaWQ9IlN2Z2pzUGF0aDEzMzkiIGQ9Ik0xMDQxLjUgNTE1LjQwNjI0NjE4NTMwMjdMMTAxNi45MTI0OTA4NDQ3MjY2IDUxNS40MDYyNDYxODUzMDI3TDEwMTYuOTEyNDkwODQ0NzI2NiA1MTUuNDA2MjQ2MTg1MzAyN0w5OTYuNTc0OTkwODQ0NzI2NiA1MTUuNDA2MjQ2MTg1MzAyNyIgc3Ryb2tlPSIjMzIzMjMyIiBzdHJva2Utd2lkdGg9IjIiIGZpbGw9Im5vbmUiIG1hcmtlci1lbmQ9InVybCgjU3ZnanNNYXJrZXIxMzQwKSIvPjxyZWN0IGlkPSJTdmdqc1JlY3QxMzQyIiB3aWR0aD0iMTMiIGhlaWdodD0iMTYiIHg9IjEwMTIuNTM3NDk1NDIyMzYzMiIgeT0iNTA3LjQwNjI0NjE4NTMwMjczIiBmaWxsPSIjZmZmZmZmIi8+PHRleHQgaWQ9IlN2Z2pzVGV4dDEzNDMiIGZvbnQtZmFtaWx5PSLlvq7ova/pm4Xpu5EiIHRleHQtYW5jaG9yPSJtaWRkbGUiIGZvbnQtc2l6ZT0iMTNweCIgd2lkdGg9IjEzcHgiIGZpbGw9IiMzMjMyMzIiIGZvbnQtd2VpZ2h0PSI0MDAiIGFsaWduPSJ0b3AiIGxpbmVoZWlnaHQ9IjE2cHgiIGFuY2hvcj0ibWlkZGxlIiBmYW1pbHk9IuW+rui9r+mbhem7kSIgc2l6ZT0iMTNweCIgd2VpZ2h0PSI0MDAiIGZvbnQtc3R5bGU9IiIgb3BhY2l0eT0iMSIgeT0iNTA0Ljc4MTI0NjE4NTMwMjczIiB0cmFuc2Zvcm09InJvdGF0ZSgwKSI+PHRzcGFuIGlkPSJTdmdqc1RzcGFuMTM0NCIgZHk9IjE2IiB4PSIxMDE5LjAzNzQ5NTQyMjM2MzIiPjx0c3BhbiBpZD0iU3ZnanNUc3BhbjEzNDUiIHN0eWxlPSJ0ZXh0LWRlY29yYXRpb246OyI+5ZCmPC90c3Bhbj48L3RzcGFuPjwvdGV4dD48L2c+PGcgaWQ9IlN2Z2pzRzEzNDYiIHRyYW5zZm9ybT0idHJhbnNsYXRlKDk0Mi45NzQ5OTA4NDQ3MjY2LDQ5My40MDYyNDYxODUzMDI3MykiPjxwYXRoIGlkPSJTdmdqc1BhdGgxMzQ3IiBkPSJNIDAgMEwgNTAgMEwgNTAgNDRMIDAgNDRaIiBzdHJva2U9InJnYmEoNTAsNTAsNTAsMSkiIHN0cm9rZS13aWR0aD0iMiIgZmlsbC1vcGFjaXR5PSIxIiBmaWxsPSIjZmZmZmZmIi8+PGcgaWQ9IlN2Z2pzRzEzNDgiPjx0ZXh0IGlkPSJTdmdqc1RleHQxMzQ5IiBmb250LWZhbWlseT0i5b6u6L2v6ZuF6buRIiB0ZXh0LWFuY2hvcj0ibWlkZGxlIiBmb250LXNpemU9IjEzcHgiIHdpZHRoPSIzMHB4IiBmaWxsPSIjMzIzMjMyIiBmb250LXdlaWdodD0iNDAwIiBhbGlnbj0ibWlkZGxlIiBsaW5laGVpZ2h0PSIxMjUlIiBhbmNob3I9Im1pZGRsZSIgZmFtaWx5PSLlvq7ova/pm4Xpu5EiIHNpemU9IjEzcHgiIHdlaWdodD0iNDAwIiBmb250LXN0eWxlPSIiIG9wYWNpdHk9IjEiIHk9IjIuODc1IiB0cmFuc2Zvcm09InJvdGF0ZSgwKSI+PHRzcGFuIGlkPSJTdmdqc1RzcGFuMTM1MCIgZHk9IjE2IiB4PSIyNSI+PHRzcGFuIGlkPSJTdmdqc1RzcGFuMTM1MSIgc3R5bGU9InRleHQtZGVjb3JhdGlvbjo7Ij7ov5Tlm548L3RzcGFuPjwvdHNwYW4+PHRzcGFuIGlkPSJTdmdqc1RzcGFuMTM1MiIgZHk9IjE2IiB4PSIyNSI+PHRzcGFuIGlkPSJTdmdqc1RzcGFuMTM1MyIgc3R5bGU9InRleHQtZGVjb3JhdGlvbjo7Ij5mYWxzZTwvdHNwYW4+PC90c3Bhbj48L3RleHQ+PC9nPjwvZz48ZyBpZD0iU3ZnanNHMTM1NCI+PHBhdGggaWQ9IlN2Z2pzUGF0aDEzNTUiIGQ9Ik04ODcuNSA1MTUuNDA2MjQ2MTg1MzAyN0w5MTMuMjg3NDkwODQ0NzI2NiA1MTUuNDA2MjQ2MTg1MzAyN0w5MTMuMjg3NDkwODQ0NzI2NiA1MTUuNDA2MjQ2MTg1MzAyN0w5MzkuMzc0OTkwODQ0NzI2NSA1MTUuNDA2MjQ2MTg1MzAyNyIgc3Ryb2tlPSIjMzIzMjMyIiBzdHJva2Utd2lkdGg9IjIiIGZpbGw9Im5vbmUiIG1hcmtlci1lbmQ9InVybCgjU3ZnanNNYXJrZXIxMzU2KSIvPjxyZWN0IGlkPSJTdmdqc1JlY3QxMzU4IiB3aWR0aD0iMjYiIGhlaWdodD0iMTYiIHg9IjkwMC40Mzc0OTU0MjIzNjMzIiB5PSI1MDcuNDA2MjQ2MTg1MzAyNzMiIGZpbGw9IiNmZmZmZmYiLz48dGV4dCBpZD0iU3ZnanNUZXh0MTM1OSIgZm9udC1mYW1pbHk9IuW+rui9r+mbhem7kSIgdGV4dC1hbmNob3I9Im1pZGRsZSIgZm9udC1zaXplPSIxM3B4IiB3aWR0aD0iMjZweCIgZmlsbD0iIzMyMzIzMiIgZm9udC13ZWlnaHQ9IjQwMCIgYWxpZ249InRvcCIgbGluZWhlaWdodD0iMTZweCIgYW5jaG9yPSJtaWRkbGUiIGZhbWlseT0i5b6u6L2v6ZuF6buRIiBzaXplPSIxM3B4IiB3ZWlnaHQ9IjQwMCIgZm9udC1zdHlsZT0iIiBvcGFjaXR5PSIxIiB5PSI1MDQuNzgxMjQ2MTg1MzAyNzMiIHRyYW5zZm9ybT0icm90YXRlKDApIj48dHNwYW4gaWQ9IlN2Z2pzVHNwYW4xMzYwIiBkeT0iMTYiIHg9IjkxMy40Mzc0OTU0MjIzNjMzIj48dHNwYW4gaWQ9IlN2Z2pzVHNwYW4xMzYxIiBzdHlsZT0idGV4dC1kZWNvcmF0aW9uOjsiPuWksei0pTwvdHNwYW4+PC90c3Bhbj48L3RleHQ+PC9nPjxnIGlkPSJTdmdqc0cxMzYyIj48cGF0aCBpZD0iU3ZnanNQYXRoMTM2MyIgZD0iTTcxOC41OTk5OTA4NDQ3MjY2IDU3Ni4wMDYyNDQ2NTk0MjM4TDc0MC4wOTk5OTA4NDQ3MjY2IDU3Ni4wMDYyNDQ2NTk0MjM4TDc0MC4wOTk5OTA4NDQ3MjY2IDU3Ni4wMDYyNDQ2NTk0MjM4TDc1Ni45OTk5OTA4NDQ3MjY1IDU3Ni4wMDYyNDQ2NTk0MjM4IiBzdHJva2UtZGFzaGFycmF5PSIzLDMiIHN0cm9rZT0iIzMyMzIzMiIgc3Ryb2tlLXdpZHRoPSIyIiBmaWxsPSJub25lIiBtYXJrZXItZW5kPSJ1cmwoI1N2Z2pzTWFya2VyMTM2NCkiLz48L2c+PGcgaWQ9IlN2Z2pzRzEzNjYiPjxwYXRoIGlkPSJTdmdqc1BhdGgxMzY3IiBkPSJNOTA2LjE5OTk5MDg0NDcyNjYgMjA2LjAwNjI0NDY1OTQyMzgzTDk2Ny4wOTk5OTA4NDQ3MjY2IDIwNi4wMDYyNDQ2NTk0MjM4M0w5NjcuMDk5OTkwODQ0NzI2NiAzOTIuNDA2MjQ0NjU5NDIzOCIgc3Ryb2tlPSIjNGNhZjUwIiBzdHJva2Utd2lkdGg9IjIiIGZpbGw9Im5vbmUiIG1hcmtlci1zdGFydD0idXJsKCNTdmdqc01hcmtlcjEzNjgpIiBtYXJrZXItZW5kPSJ1cmwoI1N2Z2pzTWFya2VyMTM3MCkiLz48cmVjdCBpZD0iU3ZnanNSZWN0MTM3MiIgd2lkdGg9IjI2IiBoZWlnaHQ9IjE2IiB4PSI5NTQuMDk5OTkwODQ0NzI2NiIgeT0iMjYwLjc1NjI0NDY1OTQyMzgiIGZpbGw9IiNmZmZmZmYiLz48dGV4dCBpZD0iU3ZnanNUZXh0MTM3MyIgZm9udC1mYW1pbHk9IuW+rui9r+mbhem7kSIgdGV4dC1hbmNob3I9Im1pZGRsZSIgZm9udC1zaXplPSIxM3B4IiB3aWR0aD0iMjZweCIgZmlsbD0iIzMyMzIzMiIgZm9udC13ZWlnaHQ9IjQwMCIgYWxpZ249InRvcCIgbGluZWhlaWdodD0iMTZweCIgYW5jaG9yPSJtaWRkbGUiIGZhbWlseT0i5b6u6L2v6ZuF6buRIiBzaXplPSIxM3B4IiB3ZWlnaHQ9IjQwMCIgZm9udC1zdHlsZT0iIiBvcGFjaXR5PSIxIiB5PSIyNTguMTMxMjQ0NjU5NDIzOCIgdHJhbnNmb3JtPSJyb3RhdGUoMCkiPjx0c3BhbiBpZD0iU3ZnanNUc3BhbjEzNzQiIGR5PSIxNiIgeD0iOTY3LjA5OTk5MDg0NDcyNjYiPjx0c3BhbiBpZD0iU3ZnanNUc3BhbjEzNzUiIHN0eWxlPSJ0ZXh0LWRlY29yYXRpb246OyI+5a+55q+UPC90c3Bhbj48L3RzcGFuPjwvdGV4dD48L2c+PGcgaWQ9IlN2Z2pzRzEzNzYiIHRyYW5zZm9ybT0idHJhbnNsYXRlKDk3OC41OTk5OTA4NDQ3MjY2LDE1MC4wMDYyNDg0NzQxMjExKSI+PHBhdGggaWQ9IlN2Z2pzUGF0aDEzNzciIGQ9Ik0gMCAwTCAxNDggMEwgMTQ4IDkyTCAwIDkyWiIgc3Ryb2tlPSJub25lIiBmaWxsPSJub25lIi8+PGcgaWQ9IlN2Z2pzRzEzNzgiPjx0ZXh0IGlkPSJTdmdqc1RleHQxMzc5IiBmb250LWZhbWlseT0i5b6u6L2v6ZuF6buRIiB0ZXh0LWFuY2hvcj0ibWlkZGxlIiBmb250LXNpemU9IjEzcHgiIHdpZHRoPSIxNDhweCIgZmlsbD0iIzM4OGUzYyIgZm9udC13ZWlnaHQ9IjQwMCIgYWxpZ249Im1pZGRsZSIgbGluZWhlaWdodD0iMTI1JSIgYW5jaG9yPSJtaWRkbGUiIGZhbWlseT0i5b6u6L2v6ZuF6buRIiBzaXplPSIxM3B4IiB3ZWlnaHQ9IjQwMCIgZm9udC1zdHlsZT0iIiBvcGFjaXR5PSIxIiB5PSIyLjg3NSIgdHJhbnNmb3JtPSJyb3RhdGUoMCkiPjx0c3BhbiBpZD0iU3ZnanNUc3BhbjEzODAiIGR5PSIxNiIgeD0iNzQiPjx0c3BhbiBpZD0iU3ZnanNUc3BhbjEzODEiIHN0eWxlPSJ0ZXh0LWRlY29yYXRpb246OyI+5Lik6ICF55qE5Li76KaB5Yy65Yir5Zyo5LqO5YWs5bmzPC90c3Bhbj48L3RzcGFuPjx0c3BhbiBpZD0iU3ZnanNUc3BhbjEzODIiIGR5PSIxNiIgeD0iNzQiPjx0c3BhbiBpZD0iU3ZnanNUc3BhbjEzODMiIHN0eWxlPSJ0ZXh0LWRlY29yYXRpb246OyI+6ZSB5qOA5p+l5b2T5YmN57q/56iL6IqC54K55YmN6Z2iPC90c3Bhbj48L3RzcGFuPjx0c3BhbiBpZD0iU3ZnanNUc3BhbjEzODQiIGR5PSIxNiIgeD0iNzQiPjx0c3BhbiBpZD0iU3ZnanNUc3BhbjEzODUiIHN0eWxlPSJ0ZXh0LWRlY29yYXRpb246OyI+5pyJ5rKh5pyJ5YWI5p2l55qE6IqC54K577yM6ICM6Z2ePC90c3Bhbj48L3RzcGFuPjx0c3BhbiBpZD0iU3ZnanNUc3BhbjEzODYiIGR5PSIxNiIgeD0iNzQiPjx0c3BhbiBpZD0iU3ZnanNUc3BhbjEzODciIHN0eWxlPSJ0ZXh0LWRlY29yYXRpb246OyI+5YWs5bmz6ZSB5YiZ5piv55yL5Yiw6L+Y5rKh5Lq65Y2gPC90c3Bhbj48L3RzcGFuPjx0c3BhbiBpZD0iU3ZnanNUc3BhbjEzODgiIGR5PSIxNiIgeD0iNzQiPjx0c3BhbiBpZD0iU3ZnanNUc3BhbjEzODkiIHN0eWxlPSJ0ZXh0LWRlY29yYXRpb246OyI+6aKG6ZSB5YiZ55u05o6l6K+V5Zu+5Y2g6aKGPC90c3Bhbj48L3RzcGFuPjwvdGV4dD48L2c+PC9nPjxnIGlkPSJTdmdqc0cxMzkwIj48cGF0aCBpZD0iU3ZnanNQYXRoMTM5MSIgZD0iTTkwMy41OTk5OTA4NDQ3MjY2IDk4LjAwNjI0NDY1OTQyMzgzTDEyNDYuNzI0OTkwODQ0NzI2NiA5OC4wMDYyNDQ2NTk0MjM4M0wxMjQ2LjcyNDk5MDg0NDcyNjYgMjEzLjQwNjI0NDY1OTQyMzgzIiBzdHJva2U9IiMzMjMyMzIiIHN0cm9rZS13aWR0aD0iMiIgZmlsbD0ibm9uZSIgbWFya2VyLWVuZD0idXJsKCNTdmdqc01hcmtlcjEzOTIpIi8+PHJlY3QgaWQ9IlN2Z2pzUmVjdDEzOTQiIHdpZHRoPSIxMDQiIGhlaWdodD0iMzIiIHg9IjEwODAuODYyNDkwODQ0NzI2NiIgeT0iODIuMDA2MjQ0NjU5NDIzODMiIGZpbGw9IiNmZmZmZmYiLz48dGV4dCBpZD0iU3ZnanNUZXh0MTM5NSIgZm9udC1mYW1pbHk9IuW+rui9r+mbhem7kSIgdGV4dC1hbmNob3I9Im1pZGRsZSIgZm9udC1zaXplPSIxM3B4IiB3aWR0aD0iMTA0cHgiIGZpbGw9IiMzMjMyMzIiIGZvbnQtd2VpZ2h0PSI0MDAiIGFsaWduPSJ0b3AiIGxpbmVoZWlnaHQ9IjE2cHgiIGFuY2hvcj0ibWlkZGxlIiBmYW1pbHk9IuW+rui9r+mbhem7kSIgc2l6ZT0iMTNweCIgd2VpZ2h0PSI0MDAiIGZvbnQtc3R5bGU9IiIgb3BhY2l0eT0iMSIgeT0iNzkuMzgxMjQ0NjU5NDIzODMiIHRyYW5zZm9ybT0icm90YXRlKDApIj48dHNwYW4gaWQ9IlN2Z2pzVHNwYW4xMzk2IiBkeT0iMTYiIHg9IjExMzIuODYyNDkwODQ0NzI2NiI+PHRzcGFuIGlkPSJTdmdqc1RzcGFuMTM5NyIgc3R5bGU9InRleHQtZGVjb3JhdGlvbjo7Ij7ov5Tlm55mYWxzZe+8jDwvdHNwYW4+PC90c3Bhbj48dHNwYW4gaWQ9IlN2Z2pzVHNwYW4xMzk4IiBkeT0iMTYiIHg9IjExMzIuODYyNDkwODQ0NzI2NiI+PHRzcGFuIGlkPSJTdmdqc1RzcGFuMTM5OSIgc3R5bGU9InRleHQtZGVjb3JhdGlvbjo7Ij7ljbN0cnlBY3F1aXJl5aSx6LSlPC90c3Bhbj48L3RzcGFuPjwvdGV4dD48L2c+PGcgaWQ9IlN2Z2pzRzE0MDAiIHRyYW5zZm9ybT0idHJhbnNsYXRlKDExODEuMjI0OTkwODQ0NzI2NiwyMTcuMDA2MjQ0NjU5NDIzODMpIj48cGF0aCBpZD0iU3ZnanNQYXRoMTQwMSIgZD0iTSAwIDBMIDEzMSAwTCAxMzEgMTMyTCAwIDEzMloiIHN0cm9rZT0icmdiYSg1MCw1MCw1MCwxKSIgc3Ryb2tlLXdpZHRoPSIyIiBmaWxsLW9wYWNpdHk9IjEiIGZpbGw9IiNmZmZmZmYiLz48ZyBpZD0iU3ZnanNHMTQwMiI+PHRleHQgaWQ9IlN2Z2pzVGV4dDE0MDMiIGZvbnQtZmFtaWx5PSLlvq7ova/pm4Xpu5EiIHRleHQtYW5jaG9yPSJtaWRkbGUiIGZvbnQtc2l6ZT0iMTNweCIgd2lkdGg9IjExMXB4IiBmaWxsPSIjMzIzMjMyIiBmb250LXdlaWdodD0iNDAwIiBhbGlnbj0ibWlkZGxlIiBsaW5laGVpZ2h0PSIxMjUlIiBhbmNob3I9Im1pZGRsZSIgZmFtaWx5PSLlvq7ova/pm4Xpu5EiIHNpemU9IjEzcHgiIHdlaWdodD0iNDAwIiBmb250LXN0eWxlPSIiIG9wYWNpdHk9IjEiIHk9IjYuMzc1IiB0cmFuc2Zvcm09InJvdGF0ZSgwKSI+PHRzcGFuIGlkPSJTdmdqc1RzcGFuMTQwNCIgZHk9IjE2IiB4PSI2NS41Ij48dHNwYW4gaWQ9IlN2Z2pzVHNwYW4xNDA1IiBzdHlsZT0idGV4dC1kZWNvcmF0aW9uOjsiPuWPguiAg0FRU+mHjOmdoueahOmAuzwvdHNwYW4+PC90c3Bhbj48dHNwYW4gaWQ9IlN2Z2pzVHNwYW4xNDA2IiBkeT0iMTYiIHg9IjY1LjUiPjx0c3BhbiBpZD0iU3ZnanNUc3BhbjE0MDciIHN0eWxlPSJ0ZXh0LWRlY29yYXRpb246OyI+6L6R77yM5bCG5b2T5YmN57q/56iL5bCBPC90c3Bhbj48L3RzcGFuPjx0c3BhbiBpZD0iU3ZnanNUc3BhbjE0MDgiIGR5PSIxNiIgeD0iNjUuNSI+PHRzcGFuIGlkPSJTdmdqc1RzcGFuMTQwOSIgc3R5bGU9InRleHQtZGVjb3JhdGlvbjo7Ij7oo4XmiJBOb2Rl5Yqg5YWl5ZCMPC90c3Bhbj48L3RzcGFuPjx0c3BhbiBpZD0iU3ZnanNUc3BhbjE0MTAiIGR5PSIxNiIgeD0iNjUuNSI+PHRzcGFuIGlkPSJTdmdqc1RzcGFuMTQxMSIgc3R5bGU9InRleHQtZGVjb3JhdGlvbjo7Ij7mraXpmJ/liJfkuK3vvIzlpoLmnpzlnKg8L3RzcGFuPjwvdHNwYW4+PHRzcGFuIGlkPSJTdmdqc1RzcGFuMTQxMiIgZHk9IjE2IiB4PSI2NS41Ij48dHNwYW4gaWQ9IlN2Z2pzVHNwYW4xNDEzIiBzdHlsZT0idGV4dC1kZWNvcmF0aW9uOjsiPuWHoOasoeiHquaXi+aXtuiOt+W+l+S6hjwvdHNwYW4+PC90c3Bhbj48dHNwYW4gaWQ9IlN2Z2pzVHNwYW4xNDE0IiBkeT0iMTYiIHg9IjY1LjUiPjx0c3BhbiBpZD0iU3ZnanNUc3BhbjE0MTUiIHN0eWxlPSJ0ZXh0LWRlY29yYXRpb246OyI+6ZSB5YiZ6YCA5Ye6bG9ja++8jOWQpjwvdHNwYW4+PC90c3Bhbj48dHNwYW4gaWQ9IlN2Z2pzVHNwYW4xNDE2IiBkeT0iMTYiIHg9IjY1LjUiPjx0c3BhbiBpZD0iU3ZnanNUc3BhbjE0MTciIHN0eWxlPSJ0ZXh0LWRlY29yYXRpb246OyI+5YiZ6Zi75aGe562J5b6F5ZSk6YaSPC90c3Bhbj48L3RzcGFuPjwvdGV4dD48L2c+PC9nPjxnIGlkPSJTdmdqc0cxNDE4Ij48cGF0aCBpZD0iU3ZnanNQYXRoMTQxOSIgZD0iTTExNzQuNTk5OTkwODQ0NzI2NiA1NzYuMDA2MjQ0NjU5NDIzOEwxMjQ2LjcyNDk5MDg0NDcyNjYgNTc2LjAwNjI0NDY1OTQyMzhMMTI0Ni43MjQ5OTA4NDQ3MjY2IDM1Mi42MDYyNDQ2NTk0MjM4NSIgc3Ryb2tlPSIjMzIzMjMyIiBzdHJva2Utd2lkdGg9IjIiIGZpbGw9Im5vbmUiIG1hcmtlci1lbmQ9InVybCgjU3ZnanNNYXJrZXIxNDIwKSIvPjxyZWN0IGlkPSJTdmdqc1JlY3QxNDIyIiB3aWR0aD0iMTA0IiBoZWlnaHQ9IjMyIiB4PSIxMTk0LjcyNDk5MDg0NDcyNjYiIHk9IjQ4NC4zNjg3NDQ2NTk0MjM4NCIgZmlsbD0iI2ZmZmZmZiIvPjx0ZXh0IGlkPSJTdmdqc1RleHQxNDIzIiBmb250LWZhbWlseT0i5b6u6L2v6ZuF6buRIiB0ZXh0LWFuY2hvcj0ibWlkZGxlIiBmb250LXNpemU9IjEzcHgiIHdpZHRoPSIxMDRweCIgZmlsbD0iIzMyMzIzMiIgZm9udC13ZWlnaHQ9IjQwMCIgYWxpZ249InRvcCIgbGluZWhlaWdodD0iMTZweCIgYW5jaG9yPSJtaWRkbGUiIGZhbWlseT0i5b6u6L2v6ZuF6buRIiBzaXplPSIxM3B4IiB3ZWlnaHQ9IjQwMCIgZm9udC1zdHlsZT0iIiBvcGFjaXR5PSIxIiB5PSI0ODEuNzQzNzQ0NjU5NDIzODQiIHRyYW5zZm9ybT0icm90YXRlKDApIj48dHNwYW4gaWQ9IlN2Z2pzVHNwYW4xNDI0IiBkeT0iMTYiIHg9IjEyNDYuNzI0OTkwODQ0NzI2NiI+PHRzcGFuIGlkPSJTdmdqc1RzcGFuMTQyNSIgc3R5bGU9InRleHQtZGVjb3JhdGlvbjo7Ij7ov5Tlm55mYWxzZe+8jDwvdHNwYW4+PC90c3Bhbj48dHNwYW4gaWQ9IlN2Z2pzVHNwYW4xNDI2IiBkeT0iMTYiIHg9IjEyNDYuNzI0OTkwODQ0NzI2NiI+PHRzcGFuIGlkPSJTdmdqc1RzcGFuMTQyNyIgc3R5bGU9InRleHQtZGVjb3JhdGlvbjo7Ij7ljbN0cnlBY3F1aXJl5aSx6LSlPC90c3Bhbj48L3RzcGFuPjwvdGV4dD48L2c+PC9zdmc+;imageBorder=default;sketch=1;" vertex="1" parent="1">
                    <mxGeometry y="540" width="1060.52" height="620" as="geometry"/>
                </mxCell>
                <mxCell id="5" style="edgeStyle=none;html=1;exitX=1;exitY=0.5;exitDx=0;exitDy=0;entryX=0;entryY=0.5;entryDx=0;entryDy=0;sketch=1;" edge="1" parent="1" source="3" target="4">
                    <mxGeometry relative="1" as="geometry"/>
                </mxCell>
                <mxCell id="3" value="ReentrantLock" style="rounded=0;whiteSpace=wrap;html=1;fillColor=#ffe6cc;strokeColor=#d79b00;comic=1;" vertex="1" parent="1">
                    <mxGeometry x="40" y="50" width="90" height="30" as="geometry"/>
                </mxCell>
                <mxCell id="4" value="直接翻译为可重入锁，使用上和synchronize基本相同" style="rounded=0;whiteSpace=wrap;html=1;fillColor=#ffe6cc;strokeColor=#d79b00;comic=1;sketch=1;" vertex="1" parent="1">
                    <mxGeometry x="170" y="45" width="180" height="40" as="geometry"/>
                </mxCell>
                <mxCell id="8" style="edgeStyle=none;sketch=1;html=1;exitX=1;exitY=0.5;exitDx=0;exitDy=0;entryX=0;entryY=0.5;entryDx=0;entryDy=0;" edge="1" parent="1" source="6" target="7">
                    <mxGeometry relative="1" as="geometry"/>
                </mxCell>
                <mxCell id="15" style="edgeStyle=none;sketch=1;html=1;exitX=1;exitY=0.5;exitDx=0;exitDy=0;entryX=0;entryY=0.5;entryDx=0;entryDy=0;" edge="1" parent="1" source="6" target="13">
                    <mxGeometry relative="1" as="geometry"/>
                </mxCell>
                <mxCell id="6" value="ReentrantLock维护的属性" style="rounded=0;whiteSpace=wrap;html=1;fillColor=#ffe6cc;strokeColor=#d79b00;comic=1;" vertex="1" parent="1">
                    <mxGeometry x="40" y="127.01" width="90" height="33" as="geometry"/>
                </mxCell>
                <mxCell id="10" style="edgeStyle=none;sketch=1;html=1;exitX=1;exitY=0.5;exitDx=0;exitDy=0;entryX=0;entryY=0.5;entryDx=0;entryDy=0;" edge="1" parent="1" source="7" target="9">
                    <mxGeometry relative="1" as="geometry"/>
                </mxCell>
                <mxCell id="7" value="" style="shape=image;imageAspect=0;aspect=fixed;verticalLabelPosition=bottom;verticalAlign=top;comic=1;sketch=1;image=https://codereaper-image-bed.oss-cn-shenzhen.aliyuncs.com/img/image-20220811155618298.png;imageBorder=default;" vertex="1" parent="1">
                    <mxGeometry x="170" y="125.5" width="170.18" height="36" as="geometry"/>
                </mxCell>
                <mxCell id="12" style="edgeStyle=none;sketch=1;html=1;exitX=1;exitY=0.5;exitDx=0;exitDy=0;entryX=0;entryY=0.5;entryDx=0;entryDy=0;" edge="1" parent="1" source="9" target="11">
                    <mxGeometry relative="1" as="geometry"/>
                </mxCell>
                <mxCell id="9" value="即其内部值维护了一个自定义的同步器Sync，这是个抽象类，有两个实现类：FairSync和NonFairSync，即&lt;b&gt;公平锁和非公平锁&lt;/b&gt;" style="rounded=0;whiteSpace=wrap;html=1;fillColor=#ffe6cc;strokeColor=#d79b00;comic=1;sketch=1;" vertex="1" parent="1">
                    <mxGeometry x="380" y="115.25" width="250" height="56.5" as="geometry"/>
                </mxCell>
                <mxCell id="11" value="" style="shape=image;imageAspect=0;aspect=fixed;verticalLabelPosition=bottom;verticalAlign=top;comic=1;sketch=1;image=https://codereaper-image-bed.oss-cn-shenzhen.aliyuncs.com/img/image-20220811155828804.png;imageBorder=default;" vertex="1" parent="1">
                    <mxGeometry x="670" y="93.33999999999999" width="370" height="100.33" as="geometry"/>
                </mxCell>
                <mxCell id="17" style="edgeStyle=none;sketch=1;html=1;exitX=1;exitY=0.5;exitDx=0;exitDy=0;entryX=0;entryY=0.5;entryDx=0;entryDy=0;fontSize=11;" edge="1" parent="1" source="13" target="16">
                    <mxGeometry relative="1" as="geometry"/>
                </mxCell>
                <mxCell id="13" value="构造函数" style="rounded=0;whiteSpace=wrap;html=1;fillColor=#b0e3e6;strokeColor=#0e8088;comic=1;" vertex="1" parent="1">
                    <mxGeometry x="190" y="236.5" width="70" height="30" as="geometry"/>
                </mxCell>
                <mxCell id="19" style="edgeStyle=none;sketch=1;html=1;exitX=1;exitY=0.5;exitDx=0;exitDy=0;entryX=0;entryY=0.5;entryDx=0;entryDy=0;fontSize=11;" edge="1" parent="1" source="16" target="18">
                    <mxGeometry relative="1" as="geometry"/>
                </mxCell>
                <mxCell id="16" value="&lt;pre style=&quot;background-color: rgb(255 , 255 , 255) ; color: rgb(8 , 8 , 8) ; font-family: &amp;#34;consolas&amp;#34; , monospace ; font-size: 11px&quot;&gt;&lt;span style=&quot;color: #0033b3&quot;&gt;public &lt;/span&gt;&lt;span style=&quot;color: #795e26&quot;&gt;ReentrantLock&lt;/span&gt;() {&lt;br&gt;    &lt;span style=&quot;color: #871094&quot;&gt;sync &lt;/span&gt;= &lt;span style=&quot;color: #0033b3&quot;&gt;new &lt;/span&gt;&lt;span style=&quot;color: #795e26&quot;&gt;NonfairSync&lt;/span&gt;();&lt;br&gt;}&lt;br&gt;&lt;span style=&quot;color: #8c8c8c ; font-style: italic&quot;&gt;&lt;br&gt;&lt;/span&gt;&lt;span style=&quot;color: #0033b3&quot;&gt;public &lt;/span&gt;&lt;span style=&quot;color: #795e26&quot;&gt;ReentrantLock&lt;/span&gt;(&lt;span style=&quot;color: #0033b3&quot;&gt;boolean &lt;/span&gt;fair) {&lt;br&gt;    &lt;span style=&quot;color: #871094&quot;&gt;sync &lt;/span&gt;= fair ? &lt;span style=&quot;color: #0033b3&quot;&gt;new &lt;/span&gt;&lt;span style=&quot;color: #795e26&quot;&gt;FairSync&lt;/span&gt;() : &lt;span style=&quot;color: #0033b3&quot;&gt;new &lt;/span&gt;&lt;span style=&quot;color: #795e26&quot;&gt;NonfairSync&lt;/span&gt;();&lt;br&gt;}&lt;/pre&gt;" style="rounded=0;whiteSpace=wrap;html=1;fillColor=#ffe6cc;strokeColor=#d79b00;comic=1;align=left;" vertex="1" parent="1">
                    <mxGeometry x="290" y="201.5" width="324" height="100" as="geometry"/>
                </mxCell>
                <mxCell id="18" value="&lt;div style=&quot;text-align: left&quot;&gt;&lt;b&gt;默认&lt;/b&gt;情况下使用的是&lt;b&gt;非公平锁&lt;/b&gt;，而当使用&lt;b&gt;带参构造函数&lt;/b&gt;时可以选择使用的锁是公平还是非公平的&lt;/div&gt;" style="rounded=0;whiteSpace=wrap;html=1;fillColor=#ffe6cc;strokeColor=#d79b00;comic=1;sketch=1;" vertex="1" parent="1">
                    <mxGeometry x="650" y="231.62" width="260" height="39.75" as="geometry"/>
                </mxCell>
                <mxCell id="24" style="edgeStyle=none;sketch=1;html=1;exitX=1;exitY=0.5;exitDx=0;exitDy=0;entryX=0;entryY=0.5;entryDx=0;entryDy=0;fontSize=11;" edge="1" parent="1" source="21" target="22">
                    <mxGeometry relative="1" as="geometry"/>
                </mxCell>
                <mxCell id="25" style="edgeStyle=none;sketch=1;html=1;exitX=1;exitY=0.5;exitDx=0;exitDy=0;entryX=0;entryY=0.5;entryDx=0;entryDy=0;fontSize=11;" edge="1" parent="1" source="21" target="23">
                    <mxGeometry relative="1" as="geometry"/>
                </mxCell>
                <mxCell id="21" value="核心api" style="rounded=0;whiteSpace=wrap;html=1;fillColor=#ffe6cc;strokeColor=#d79b00;comic=1;" vertex="1" parent="1">
                    <mxGeometry x="40" y="418.5" width="60" height="33" as="geometry"/>
                </mxCell>
                <mxCell id="28" style="edgeStyle=none;sketch=1;html=1;exitX=1;exitY=0.5;exitDx=0;exitDy=0;entryX=0;entryY=0.5;entryDx=0;entryDy=0;fontSize=11;" edge="1" parent="1" source="22" target="27">
                    <mxGeometry relative="1" as="geometry"/>
                </mxCell>
                <mxCell id="22" value="lock()" style="rounded=0;whiteSpace=wrap;html=1;fillColor=#dae8fc;strokeColor=#6c8ebf;comic=1;" vertex="1" parent="1">
                    <mxGeometry x="150" y="363.25" width="60" height="25" as="geometry"/>
                </mxCell>
                <mxCell id="30" style="edgeStyle=none;sketch=1;html=1;exitX=1;exitY=0.5;exitDx=0;exitDy=0;entryX=0;entryY=0.5;entryDx=0;entryDy=0;fontSize=11;" edge="1" parent="1" source="23" target="29">
                    <mxGeometry relative="1" as="geometry"/>
                </mxCell>
                <mxCell id="23" value="unlock()" style="rounded=0;whiteSpace=wrap;html=1;fillColor=#dae8fc;strokeColor=#6c8ebf;comic=1;" vertex="1" parent="1">
                    <mxGeometry x="150" y="480" width="60" height="25" as="geometry"/>
                </mxCell>
                <mxCell id="39" style="edgeStyle=none;sketch=1;html=1;exitX=1;exitY=0.5;exitDx=0;exitDy=0;entryX=0;entryY=0.5;entryDx=0;entryDy=0;fontSize=11;" edge="1" parent="1" source="27" target="33">
                    <mxGeometry relative="1" as="geometry"/>
                </mxCell>
                <mxCell id="40" style="edgeStyle=none;sketch=1;html=1;exitX=1;exitY=0.5;exitDx=0;exitDy=0;entryX=0;entryY=0.5;entryDx=0;entryDy=0;fontSize=11;" edge="1" parent="1" source="27" target="35">
                    <mxGeometry relative="1" as="geometry"/>
                </mxCell>
                <mxCell id="27" value="&lt;pre style=&quot;background-color: rgb(255 , 255 , 255) ; color: rgb(8 , 8 , 8) ; font-family: &amp;#34;consolas&amp;#34; , monospace ; font-size: 11px&quot;&gt;&lt;pre style=&quot;font-family: &amp;#34;consolas&amp;#34; , monospace&quot;&gt;&lt;span style=&quot;color: #0033b3&quot;&gt;public void &lt;/span&gt;&lt;span style=&quot;color: #795e26&quot;&gt;lock&lt;/span&gt;() {&lt;br&gt;    &lt;span style=&quot;color: #871094&quot;&gt;sync&lt;/span&gt;.&lt;span style=&quot;color: #795e26&quot;&gt;lock&lt;/span&gt;();&lt;br&gt;}&lt;/pre&gt;&lt;/pre&gt;" style="rounded=0;whiteSpace=wrap;html=1;fillColor=#ffe6cc;strokeColor=#d79b00;comic=1;align=left;" vertex="1" parent="1">
                    <mxGeometry x="250" y="353.25" width="124" height="45" as="geometry"/>
                </mxCell>
                <mxCell id="29" value="&lt;pre style=&quot;background-color: rgb(255 , 255 , 255) ; color: rgb(8 , 8 , 8) ; font-family: &amp;#34;consolas&amp;#34; , monospace ; font-size: 11px&quot;&gt;&lt;pre style=&quot;font-family: &amp;#34;consolas&amp;#34; , monospace&quot;&gt;&lt;pre style=&quot;font-family: &amp;#34;consolas&amp;#34; , monospace&quot;&gt;&lt;span style=&quot;color: #0033b3&quot;&gt;public void &lt;/span&gt;&lt;span style=&quot;color: #795e26&quot;&gt;unlock&lt;/span&gt;() {&lt;br&gt;    &lt;span style=&quot;color: #871094&quot;&gt;sync&lt;/span&gt;.&lt;span style=&quot;color: #795e26&quot;&gt;release&lt;/span&gt;(&lt;span style=&quot;color: #1750eb&quot;&gt;1&lt;/span&gt;);&lt;br&gt;}&lt;/pre&gt;&lt;/pre&gt;&lt;/pre&gt;" style="rounded=0;whiteSpace=wrap;html=1;fillColor=#ffe6cc;strokeColor=#d79b00;comic=1;align=left;" vertex="1" parent="1">
                    <mxGeometry x="250" y="470" width="138" height="45" as="geometry"/>
                </mxCell>
                <mxCell id="31" value="&lt;div style=&quot;text-align: left&quot;&gt;两个核心api实际上都是&lt;b&gt;间接调用&lt;/b&gt;同步器的&lt;b&gt;acquire和release模板方法&lt;/b&gt;，因此需要重点看同步器的tryAcquire和tryRelease抽象方法的实现&lt;/div&gt;" style="rounded=0;whiteSpace=wrap;html=1;fillColor=#ffe6cc;strokeColor=#d79b00;comic=1;sketch=1;" vertex="1" parent="1">
                    <mxGeometry x="420" y="465.13" width="260" height="54.75" as="geometry"/>
                </mxCell>
                <mxCell id="32" value="&lt;pre style=&quot;background-color: rgb(255 , 255 , 255) ; color: rgb(8 , 8 , 8) ; font-family: &amp;#34;consolas&amp;#34; , monospace ; font-size: 11px&quot;&gt;&lt;pre style=&quot;font-family: &amp;#34;consolas&amp;#34; , monospace&quot;&gt;&lt;pre style=&quot;font-family: &amp;#34;consolas&amp;#34; , monospace&quot;&gt;&lt;span style=&quot;color: #0033b3&quot;&gt;final void &lt;/span&gt;&lt;span style=&quot;color: #795e26&quot;&gt;lock&lt;/span&gt;() {&lt;br&gt;    &lt;span style=&quot;color: #0033b3&quot;&gt;if &lt;/span&gt;(&lt;span style=&quot;color: #795e26&quot;&gt;compareAndSetState&lt;/span&gt;(&lt;span style=&quot;color: #1750eb&quot;&gt;0&lt;/span&gt;, &lt;span style=&quot;color: #1750eb&quot;&gt;1&lt;/span&gt;))&lt;br&gt;        &lt;span style=&quot;color: #795e26&quot;&gt;setExclusiveOwnerThread&lt;/span&gt;(&lt;span style=&quot;color: #066555&quot;&gt;Thread&lt;/span&gt;.&lt;span style=&quot;font-style: italic&quot;&gt;currentThread&lt;/span&gt;());&lt;br&gt;    &lt;span style=&quot;color: #0033b3&quot;&gt;else&lt;br&gt;&lt;/span&gt;&lt;span style=&quot;color: #0033b3&quot;&gt;        &lt;/span&gt;&lt;span style=&quot;color: #795e26&quot;&gt;acquire&lt;/span&gt;(&lt;span style=&quot;color: #1750eb&quot;&gt;1&lt;/span&gt;);&lt;br&gt;}&lt;/pre&gt;&lt;/pre&gt;&lt;/pre&gt;" style="rounded=0;whiteSpace=wrap;html=1;fillColor=#ffe6cc;strokeColor=#d79b00;comic=1;align=left;" vertex="1" parent="1">
                    <mxGeometry x="534" y="370" width="342" height="81.5" as="geometry"/>
                </mxCell>
                <mxCell id="34" style="edgeStyle=none;sketch=1;html=1;exitX=1;exitY=0.5;exitDx=0;exitDy=0;entryX=0;entryY=0.5;entryDx=0;entryDy=0;fontSize=11;" edge="1" parent="1" source="33" target="32">
                    <mxGeometry relative="1" as="geometry"/>
                </mxCell>
                <mxCell id="33" value="NonFairSync" style="rounded=0;whiteSpace=wrap;html=1;fillColor=#e1d5e7;strokeColor=#9673a6;comic=1;" vertex="1" parent="1">
                    <mxGeometry x="412" y="398.25" width="80" height="25" as="geometry"/>
                </mxCell>
                <mxCell id="38" style="edgeStyle=none;sketch=1;html=1;exitX=1;exitY=0.5;exitDx=0;exitDy=0;entryX=0;entryY=0.5;entryDx=0;entryDy=0;fontSize=11;" edge="1" parent="1" source="35" target="36">
                    <mxGeometry relative="1" as="geometry"/>
                </mxCell>
                <mxCell id="35" value="FairSync" style="rounded=0;whiteSpace=wrap;html=1;fillColor=#e1d5e7;strokeColor=#9673a6;comic=1;" vertex="1" parent="1">
                    <mxGeometry x="414" y="328.25" width="80" height="25" as="geometry"/>
                </mxCell>
                <mxCell id="36" value="&lt;pre style=&quot;background-color: rgb(255 , 255 , 255) ; color: rgb(8 , 8 , 8) ; font-family: &amp;#34;consolas&amp;#34; , monospace ; font-size: 11px&quot;&gt;&lt;pre style=&quot;font-family: &amp;#34;consolas&amp;#34; , monospace&quot;&gt;&lt;pre style=&quot;font-family: &amp;#34;consolas&amp;#34; , monospace&quot;&gt;&lt;pre style=&quot;font-family: &amp;#34;consolas&amp;#34; , monospace&quot;&gt;&lt;span style=&quot;color: #0033b3&quot;&gt;final void &lt;/span&gt;&lt;span style=&quot;color: #795e26&quot;&gt;lock&lt;/span&gt;() {&lt;br&gt;    &lt;span style=&quot;color: #795e26&quot;&gt;acquire&lt;/span&gt;(&lt;span style=&quot;color: #1750eb&quot;&gt;1&lt;/span&gt;);&lt;br&gt;}&lt;/pre&gt;&lt;/pre&gt;&lt;/pre&gt;&lt;/pre&gt;" style="rounded=0;whiteSpace=wrap;html=1;fillColor=#ffe6cc;strokeColor=#d79b00;comic=1;align=left;" vertex="1" parent="1">
                    <mxGeometry x="534" y="320" width="120" height="41.5" as="geometry"/>
                </mxCell>
                <mxCell id="41" value="&lt;div style=&quot;text-align: left&quot;&gt;两者的lock都会调用acquire，但NonFairSync还会尝试直接cas获取一次锁&lt;/div&gt;" style="rounded=0;whiteSpace=wrap;html=1;fillColor=#dae8fc;strokeColor=#6c8ebf;comic=1;sketch=1;" vertex="1" parent="1">
                    <mxGeometry x="670" y="318.25" width="250" height="43.25" as="geometry"/>
                </mxCell>
                <mxCell id="51" value="" style="group" vertex="1" connectable="0" parent="1">
                    <mxGeometry x="1070" y="380" width="724.74" height="457" as="geometry"/>
                </mxCell>
                <mxCell id="44" value="" style="shape=image;verticalLabelPosition=bottom;labelBackgroundColor=#ffffff;verticalAlign=top;aspect=fixed;imageAspect=0;image=data:image/svg+xml,PHN2ZyB4bWxuczp4bGluaz0iaHR0cDovL3d3dy53My5vcmcvMTk5OS94bGluayIgeG1sbnM9Imh0dHA6Ly93d3cudzMub3JnLzIwMDAvc3ZnIiBmaWxsLW9wYWNpdHk9IjEiIGNvbG9yLXJlbmRlcmluZz0iYXV0byIgY29sb3ItaW50ZXJwb2xhdGlvbj0iYXV0byIgdGV4dC1yZW5kZXJpbmc9ImF1dG8iIHN0cm9rZT0iYmxhY2siIHN0cm9rZS1saW5lY2FwPSJzcXVhcmUiIHdpZHRoPSI2MjYiIHN0cm9rZS1taXRlcmxpbWl0PSIxMCIgc2hhcGUtcmVuZGVyaW5nPSJhdXRvIiBzdHJva2Utb3BhY2l0eT0iMSIgZmlsbD0iYmxhY2siIHN0cm9rZS1kYXNoYXJyYXk9Im5vbmUiIGZvbnQtd2VpZ2h0PSJub3JtYWwiIHN0cm9rZS13aWR0aD0iMSIgaGVpZ2h0PSI1MjAiIGZvbnQtZmFtaWx5PSInRGlhbG9nJyIgZm9udC1zdHlsZT0ibm9ybWFsIiBzdHJva2UtbGluZWpvaW49Im1pdGVyIiBmb250LXNpemU9IjEycHgiIHN0cm9rZS1kYXNob2Zmc2V0PSIwIiBpbWFnZS1yZW5kZXJpbmc9ImF1dG8iIHZpZXdCb3g9IjAgMCA2MjYgNTIwIj48IS0tR2VuZXJhdGVkIGJ5IHRoZSBCYXRpayBHcmFwaGljczJEIFNWRyBHZW5lcmF0b3ItLT48ZGVmcyBpZD0iZ2VuZXJpY0RlZnMiLz48Zz48ZyBmaWxsPSJyZ2IoMjU1LDI1NSwxOTIpIiB0ZXh0LXJlbmRlcmluZz0ib3B0aW1pemVMZWdpYmlsaXR5IiBmb250LXNpemU9IjExcHgiIGZvbnQtZmFtaWx5PSJzYW5zLXNlcmlmIiBzdHJva2U9InJnYigyNTUsMjU1LDE5MikiPjxyZWN0IHg9IjUiIHdpZHRoPSIzNiIgaGVpZ2h0PSIyNSIgeT0iNSIgc3Ryb2tlPSJub25lIi8+PHJlY3QgZmlsbD0ibm9uZSIgeD0iNSIgd2lkdGg9IjM1IiBoZWlnaHQ9IjI0IiB5PSI1IiBzdHJva2U9ImJsYWNrIi8+PHRleHQgZmlsbD0icmdiKDY0LDY0LDY0KSIgeD0iMTAiIHhtbDpzcGFjZT0icHJlc2VydmUiIHk9IjIyIiBzdHJva2U9Im5vbmUiPkFjdG9yPC90ZXh0PjxyZWN0IGZpbGw9InJnYigyNTUsMjA5LDIwNikiIHg9IjcyIiB3aWR0aD0iNTQiIGhlaWdodD0iMjUiIHk9IjUiIHN0cm9rZT0ibm9uZSIvPjxyZWN0IGZpbGw9Im5vbmUiIHg9IjcyIiB3aWR0aD0iNTMiIGhlaWdodD0iMjQiIHk9IjUiIHN0cm9rZT0iYmxhY2siLz48dGV4dCBmaWxsPSJyZ2IoNjQsNjQsNjQpIiB4PSI3NyIgeG1sOnNwYWNlPSJwcmVzZXJ2ZSIgeT0iMjIiIHN0cm9rZT0ibm9uZSI+RmFpclN5bmM8L3RleHQ+PHJlY3QgZmlsbD0icmdiKDI1NSwyMDksMjA2KSIgeD0iMTgzIiB3aWR0aD0iNDQiIGhlaWdodD0iMjUiIHk9IjUiIHN0cm9rZT0ibm9uZSIvPjxyZWN0IGZpbGw9Im5vbmUiIHg9IjE4MyIgd2lkdGg9IjQzIiBoZWlnaHQ9IjI0IiB5PSI1IiBzdHJva2U9ImJsYWNrIi8+PHRleHQgZmlsbD0icmdiKDY0LDY0LDY0KSIgeD0iMTg4IiB4bWw6c3BhY2U9InByZXNlcnZlIiB5PSIyMiIgc3Ryb2tlPSJub25lIj5UaHJlYWQ8L3RleHQ+PHJlY3QgZmlsbD0icmdiKDI1NSwyMDksMjA2KSIgeD0iMjMyIiB3aWR0aD0iMTUzIiBoZWlnaHQ9IjI1IiB5PSI1IiBzdHJva2U9Im5vbmUiLz48cmVjdCBmaWxsPSJub25lIiB4PSIyMzIiIHdpZHRoPSIxNTIiIGhlaWdodD0iMjQiIHk9IjUiIHN0cm9rZT0iYmxhY2siLz48L2c+PGcgZmlsbD0icmdiKDY0LDY0LDY0KSIgZm9udC1zdHlsZT0iaXRhbGljIiB0ZXh0LXJlbmRlcmluZz0ib3B0aW1pemVMZWdpYmlsaXR5IiBmb250LXNpemU9IjExcHgiIHN0cm9rZT0icmdiKDY0LDY0LDY0KSI+PHRleHQgeD0iMjM3IiB4bWw6c3BhY2U9InByZXNlcnZlIiB5PSIyMiIgc3Ryb2tlPSJub25lIj5BYnN0cmFjdFF1ZXVlZFN5bmNocm9uaXplcjwvdGV4dD48L2c+PGcgZmlsbD0icmdiKDI1NSwyMDksMjA2KSIgdGV4dC1yZW5kZXJpbmc9Im9wdGltaXplTGVnaWJpbGl0eSIgZm9udC1zaXplPSIxMXB4IiBmb250LWZhbWlseT0ic2Fucy1zZXJpZiIgc3Ryb2tlPSJyZ2IoMjU1LDIwOSwyMDYpIj48cmVjdCB4PSIzOTAiIHdpZHRoPSIxNTYiIGhlaWdodD0iMjUiIHk9IjUiIHN0cm9rZT0ibm9uZSIvPjxyZWN0IGZpbGw9Im5vbmUiIHg9IjM5MCIgd2lkdGg9IjE1NSIgaGVpZ2h0PSIyNCIgeT0iNSIgc3Ryb2tlPSJibGFjayIvPjwvZz48ZyBmaWxsPSJyZ2IoNjQsNjQsNjQpIiBmb250LXN0eWxlPSJpdGFsaWMiIHRleHQtcmVuZGVyaW5nPSJvcHRpbWl6ZUxlZ2liaWxpdHkiIGZvbnQtc2l6ZT0iMTFweCIgc3Ryb2tlPSJyZ2IoNjQsNjQsNjQpIj48dGV4dCB4PSIzOTUiIHhtbDpzcGFjZT0icHJlc2VydmUiIHk9IjIyIiBzdHJva2U9Im5vbmUiPkFic3RyYWN0T3duYWJsZVN5bmNocm9uaXplcjwvdGV4dD48L2c+PGcgZmlsbD0icmdiKDI1NSwyMDksMjA2KSIgdGV4dC1yZW5kZXJpbmc9Im9wdGltaXplTGVnaWJpbGl0eSIgZm9udC1zaXplPSIxMXB4IiBmb250LWZhbWlseT0ic2Fucy1zZXJpZiIgc3Ryb2tlPSJyZ2IoMjU1LDIwOSwyMDYpIj48cmVjdCB4PSI1NTEiIHdpZHRoPSIzNSIgaGVpZ2h0PSIyNSIgeT0iNSIgc3Ryb2tlPSJub25lIi8+PHJlY3QgZmlsbD0ibm9uZSIgeD0iNTUxIiB3aWR0aD0iMzQiIGhlaWdodD0iMjQiIHk9IjUiIHN0cm9rZT0iYmxhY2siLz48dGV4dCBmaWxsPSJyZ2IoNjQsNjQsNjQpIiB4PSI1NTYiIHhtbDpzcGFjZT0icHJlc2VydmUiIHk9IjIyIiBzdHJva2U9Im5vbmUiPkVycm9yPC90ZXh0PjwvZz48ZyB0ZXh0LXJlbmRlcmluZz0ib3B0aW1pemVMZWdpYmlsaXR5IiBzdHJva2UtbWl0ZXJsaW1pdD0iMTIiIGZvbnQtc2l6ZT0iMTFweCIgc3Ryb2tlLWRhc2hhcnJheT0iMTIsNiIgZm9udC1mYW1pbHk9InNhbnMtc2VyaWYiIHRyYW5zZm9ybT0idHJhbnNsYXRlKDAsMzApIj48bGluZSB5Mj0iNDkwIiBmaWxsPSJub25lIiB4MT0iMjMiIHgyPSIyMyIgeTE9IjAiLz48dGV4dCB4PSIzMCIgeG1sOnNwYWNlPSJwcmVzZXJ2ZSIgc3Ryb2tlLW1pdGVybGltaXQ9IjEwIiBzdHJva2UtZGFzaGFycmF5PSJub25lIiB5PSI0NyIgc3Ryb2tlPSJub25lIj4xOnRyeUFjcXVpcmU8L3RleHQ+PGxpbmUgZmlsbD0ibm9uZSIgeDE9IjI1IiB4Mj0iOTUiIHkxPSI1NSIgeTI9IjU1IiBzdHJva2UtZGFzaGFycmF5PSJub25lIiBzdHJva2UtbWl0ZXJsaW1pdD0iMTAiLz48cGF0aCBzdHJva2UtbWl0ZXJsaW1pdD0iMTAiIHN0cm9rZS1kYXNoYXJyYXk9Im5vbmUiIGQ9Ik05MSA1MiBMOTUgNTUgTDkxIDU4IFoiIHN0cm9rZT0ibm9uZSIvPjxsaW5lIHkyPSI0OTAiIGZpbGw9Im5vbmUiIHgxPSI5OSIgeDI9Ijk5IiB5MT0iMCIvPjwvZz48ZyBmaWxsPSJyZ2IoMjU1LDIyNCwxNjcpIiB0ZXh0LXJlbmRlcmluZz0ib3B0aW1pemVMZWdpYmlsaXR5IiBmb250LXNpemU9IjExcHgiIGZvbnQtZmFtaWx5PSJzYW5zLXNlcmlmIiB0cmFuc2Zvcm09InRyYW5zbGF0ZSgwLDMwKSIgc3Ryb2tlPSJyZ2IoMjU1LDIyNCwxNjcpIj48cmVjdCB4PSI5NSIgd2lkdGg9IjkiIGhlaWdodD0iNDI1IiB5PSI1NSIgc3Ryb2tlPSJub25lIi8+PHJlY3QgZmlsbD0ibm9uZSIgeD0iOTUiIHdpZHRoPSI4IiBoZWlnaHQ9IjQyNCIgeT0iNTUiIHN0cm9rZT0iYmxhY2siLz48dGV4dCBmaWxsPSJibGFjayIgeD0iMTA5IiB4bWw6c3BhY2U9InByZXNlcnZlIiB5PSI3MiIgc3Ryb2tlPSJub25lIj4xLjE6Y3VycmVudFRocmVhZDwvdGV4dD48bGluZSB5Mj0iNzQiIGZpbGw9Im5vbmUiIHgxPSIxMDkiIHgyPSIxOTYiIHN0cm9rZT0iYmxhY2siIHkxPSI3NCIvPjxsaW5lIHkyPSI4MCIgZmlsbD0ibm9uZSIgeDE9IjEwNCIgeDI9IjIwMSIgc3Ryb2tlPSJibGFjayIgeTE9IjgwIi8+PHBhdGggZmlsbD0iYmxhY2siIGQ9Ik0xOTcgNzcgTDIwMSA4MCBMMTk3IDgzIFoiIHN0cm9rZT0ibm9uZSIvPjx0ZXh0IGZpbGw9ImJsYWNrIiB4PSIyNDEiIHhtbDpzcGFjZT0icHJlc2VydmUiIHk9IjEyMiIgc3Ryb2tlPSJub25lIj4xLjI6Z2V0U3RhdGU8L3RleHQ+PGxpbmUgeTI9IjEzMCIgZmlsbD0ibm9uZSIgeDE9IjEwNCIgeDI9IjMwNCIgc3Ryb2tlPSJibGFjayIgeTE9IjEzMCIvPjxwYXRoIGZpbGw9ImJsYWNrIiBkPSJNMzAwIDEyNyBMMzA0IDEzMCBMMzAwIDEzMyBaIiBzdHJva2U9Im5vbmUiLz48dGV4dCBmaWxsPSJibGFjayIgeD0iMTU4IiB4bWw6c3BhY2U9InByZXNlcnZlIiB5PSIxNzIiIHN0cm9rZT0ibm9uZSI+MS4zOmhhc1F1ZXVlZFByZWRlY2Vzc29yczwvdGV4dD48bGluZSB5Mj0iMTgwIiBmaWxsPSJub25lIiB4MT0iMTA0IiB4Mj0iMzA0IiBzdHJva2U9ImJsYWNrIiB5MT0iMTgwIi8+PHBhdGggZmlsbD0iYmxhY2siIGQ9Ik0zMDAgMTc3IEwzMDQgMTgwIEwzMDAgMTgzIFoiIHN0cm9rZT0ibm9uZSIvPjx0ZXh0IGZpbGw9ImJsYWNrIiB4PSIxNzgiIHhtbDpzcGFjZT0icHJlc2VydmUiIHk9IjIyMiIgc3Ryb2tlPSJub25lIj4xLjQ6Y29tcGFyZUFuZFNldFN0YXRlPC90ZXh0PjxsaW5lIHkyPSIyMzAiIGZpbGw9Im5vbmUiIHgxPSIxMDQiIHgyPSIzMDQiIHN0cm9rZT0iYmxhY2siIHkxPSIyMzAiLz48cGF0aCBmaWxsPSJibGFjayIgZD0iTTMwMCAyMjcgTDMwNCAyMzAgTDMwMCAyMzMgWiIgc3Ryb2tlPSJub25lIi8+PHRleHQgZmlsbD0iYmxhY2siIHg9IjMxNyIgeG1sOnNwYWNlPSJwcmVzZXJ2ZSIgeT0iMjcyIiBzdHJva2U9Im5vbmUiPjEuNTpzZXRFeGNsdXNpdmVPd25lclRocmVhZDwvdGV4dD48bGluZSB5Mj0iMjgwIiBmaWxsPSJub25lIiB4MT0iMTA0IiB4Mj0iNDY0IiBzdHJva2U9ImJsYWNrIiB5MT0iMjgwIi8+PHBhdGggZmlsbD0iYmxhY2siIGQ9Ik00NjAgMjc3IEw0NjQgMjgwIEw0NjAgMjgzIFoiIHN0cm9rZT0ibm9uZSIvPjx0ZXh0IGZpbGw9ImJsYWNrIiB4PSIzMTYiIHhtbDpzcGFjZT0icHJlc2VydmUiIHk9IjMyMiIgc3Ryb2tlPSJub25lIj4xLjY6Z2V0RXhjbHVzaXZlT3duZXJUaHJlYWQ8L3RleHQ+PGxpbmUgeTI9IjMzMCIgZmlsbD0ibm9uZSIgeDE9IjEwNCIgeDI9IjQ2NCIgc3Ryb2tlPSJibGFjayIgeTE9IjMzMCIvPjxwYXRoIGZpbGw9ImJsYWNrIiBkPSJNNDYwIDMyNyBMNDY0IDMzMCBMNDYwIDMzMyBaIiBzdHJva2U9Im5vbmUiLz48dGV4dCBmaWxsPSJibGFjayIgeD0iNDgzIiB4bWw6c3BhY2U9InByZXNlcnZlIiB5PSIzNzIiIHN0cm9rZT0ibm9uZSI+MS43OiZsdDsmbHQ7Y3JlYXRlJmd0OyZndDs8L3RleHQ+PGxpbmUgeTI9IjM4MCIgZmlsbD0ibm9uZSIgeDE9IjEwNCIgeDI9IjU2NCIgc3Ryb2tlPSJibGFjayIgeTE9IjM4MCIvPjxwYXRoIGZpbGw9ImJsYWNrIiBkPSJNNTYwIDM3NyBMNTY0IDM4MCBMNTYwIDM4MyBaIiBzdHJva2U9Im5vbmUiLz48dGV4dCBmaWxsPSJibGFjayIgeD0iMjQyIiB4bWw6c3BhY2U9InByZXNlcnZlIiB5PSI0MjIiIHN0cm9rZT0ibm9uZSI+MS44OnNldFN0YXRlPC90ZXh0PjxsaW5lIHkyPSI0MzAiIGZpbGw9Im5vbmUiIHgxPSIxMDQiIHgyPSIzMDQiIHN0cm9rZT0iYmxhY2siIHkxPSI0MzAiLz48cGF0aCBmaWxsPSJibGFjayIgZD0iTTMwMCA0MjcgTDMwNCA0MzAgTDMwMCA0MzMgWiIgc3Ryb2tlPSJub25lIi8+PC9nPjxnIHRleHQtcmVuZGVyaW5nPSJvcHRpbWl6ZUxlZ2liaWxpdHkiIHN0cm9rZS1taXRlcmxpbWl0PSIxMiIgZm9udC1zaXplPSIxMXB4IiBzdHJva2UtZGFzaGFycmF5PSIxMiw2IiBmb250LWZhbWlseT0ic2Fucy1zZXJpZiIgdHJhbnNmb3JtPSJ0cmFuc2xhdGUoMCwzMCkiPjxsaW5lIHkyPSI0OTAiIGZpbGw9Im5vbmUiIHgxPSIyMDUiIHgyPSIyMDUiIHkxPSIwIi8+PC9nPjxnIGZpbGw9InJnYigyNTUsMjI0LDE2NykiIHRleHQtcmVuZGVyaW5nPSJvcHRpbWl6ZUxlZ2liaWxpdHkiIGZvbnQtc2l6ZT0iMTFweCIgZm9udC1mYW1pbHk9InNhbnMtc2VyaWYiIHRyYW5zZm9ybT0idHJhbnNsYXRlKDAsMzApIiBzdHJva2U9InJnYigyNTUsMjI0LDE2NykiPjxyZWN0IHg9IjIwMSIgd2lkdGg9IjkiIGhlaWdodD0iMjUiIHk9IjgwIiBzdHJva2U9Im5vbmUiLz48cmVjdCBmaWxsPSJub25lIiB4PSIyMDEiIHdpZHRoPSI4IiBoZWlnaHQ9IjI0IiB5PSI4MCIgc3Ryb2tlPSJibGFjayIvPjxsaW5lIGZpbGw9Im5vbmUiIHgxPSIyMDEiIHgyPSIxMDQiIHkxPSIxMDUiIHkyPSIxMDUiIHN0cm9rZS1kYXNoYXJyYXk9IjEwLDUiIHN0cm9rZT0iYmxhY2siLz48bGluZSB5Mj0iMTA1IiBmaWxsPSJub25lIiB4MT0iMTA4IiB4Mj0iMTA0IiBzdHJva2U9ImJsYWNrIiB5MT0iMTAyIi8+PGxpbmUgeTI9IjEwNSIgZmlsbD0ibm9uZSIgeDE9IjEwOCIgeDI9IjEwNCIgc3Ryb2tlPSJibGFjayIgeTE9IjEwOCIvPjwvZz48ZyB0ZXh0LXJlbmRlcmluZz0ib3B0aW1pemVMZWdpYmlsaXR5IiBzdHJva2UtbWl0ZXJsaW1pdD0iMTIiIGZvbnQtc2l6ZT0iMTFweCIgc3Ryb2tlLWRhc2hhcnJheT0iMTIsNiIgZm9udC1mYW1pbHk9InNhbnMtc2VyaWYiIHRyYW5zZm9ybT0idHJhbnNsYXRlKDAsMzApIj48bGluZSB5Mj0iNDkwIiBmaWxsPSJub25lIiB4MT0iMzA4IiB4Mj0iMzA4IiB5MT0iMCIvPjwvZz48ZyBmaWxsPSJyZ2IoMjU1LDIyNCwxNjcpIiB0ZXh0LXJlbmRlcmluZz0ib3B0aW1pemVMZWdpYmlsaXR5IiBmb250LXNpemU9IjExcHgiIGZvbnQtZmFtaWx5PSJzYW5zLXNlcmlmIiB0cmFuc2Zvcm09InRyYW5zbGF0ZSgwLDMwKSIgc3Ryb2tlPSJyZ2IoMjU1LDIyNCwxNjcpIj48cmVjdCB4PSIzMDQiIHdpZHRoPSI5IiBoZWlnaHQ9IjI1IiB5PSIxMzAiIHN0cm9rZT0ibm9uZSIvPjxyZWN0IGZpbGw9Im5vbmUiIHg9IjMwNCIgd2lkdGg9IjgiIGhlaWdodD0iMjQiIHk9IjEzMCIgc3Ryb2tlPSJibGFjayIvPjxyZWN0IHg9IjMwNCIgd2lkdGg9IjkiIGhlaWdodD0iMjUiIHk9IjE4MCIgc3Ryb2tlPSJub25lIi8+PHJlY3QgZmlsbD0ibm9uZSIgeD0iMzA0IiB3aWR0aD0iOCIgaGVpZ2h0PSIyNCIgeT0iMTgwIiBzdHJva2U9ImJsYWNrIi8+PHJlY3QgeD0iMzA0IiB3aWR0aD0iOSIgaGVpZ2h0PSIyNSIgeT0iMjMwIiBzdHJva2U9Im5vbmUiLz48cmVjdCBmaWxsPSJub25lIiB4PSIzMDQiIHdpZHRoPSI4IiBoZWlnaHQ9IjI0IiB5PSIyMzAiIHN0cm9rZT0iYmxhY2siLz48cmVjdCB4PSIzMDQiIHdpZHRoPSI5IiBoZWlnaHQ9IjI1IiB5PSI0MzAiIHN0cm9rZT0ibm9uZSIvPjxyZWN0IGZpbGw9Im5vbmUiIHg9IjMwNCIgd2lkdGg9IjgiIGhlaWdodD0iMjQiIHk9IjQzMCIgc3Ryb2tlPSJibGFjayIvPjxsaW5lIGZpbGw9Im5vbmUiIHgxPSIzMDQiIHgyPSIxMDQiIHkxPSIxNTUiIHkyPSIxNTUiIHN0cm9rZS1kYXNoYXJyYXk9IjEwLDUiIHN0cm9rZT0iYmxhY2siLz48bGluZSB5Mj0iMTU1IiBmaWxsPSJub25lIiB4MT0iMTA4IiB4Mj0iMTA0IiBzdHJva2U9ImJsYWNrIiB5MT0iMTUyIi8+PGxpbmUgeTI9IjE1NSIgZmlsbD0ibm9uZSIgeDE9IjEwOCIgeDI9IjEwNCIgc3Ryb2tlPSJibGFjayIgeTE9IjE1OCIvPjxsaW5lIGZpbGw9Im5vbmUiIHgxPSIzMDQiIHgyPSIxMDQiIHkxPSIyMDUiIHkyPSIyMDUiIHN0cm9rZS1kYXNoYXJyYXk9IjEwLDUiIHN0cm9rZT0iYmxhY2siLz48bGluZSB5Mj0iMjA1IiBmaWxsPSJub25lIiB4MT0iMTA4IiB4Mj0iMTA0IiBzdHJva2U9ImJsYWNrIiB5MT0iMjAyIi8+PGxpbmUgeTI9IjIwNSIgZmlsbD0ibm9uZSIgeDE9IjEwOCIgeDI9IjEwNCIgc3Ryb2tlPSJibGFjayIgeTE9IjIwOCIvPjxsaW5lIGZpbGw9Im5vbmUiIHgxPSIzMDQiIHgyPSIxMDQiIHkxPSIyNTUiIHkyPSIyNTUiIHN0cm9rZS1kYXNoYXJyYXk9IjEwLDUiIHN0cm9rZT0iYmxhY2siLz48bGluZSB5Mj0iMjU1IiBmaWxsPSJub25lIiB4MT0iMTA4IiB4Mj0iMTA0IiBzdHJva2U9ImJsYWNrIiB5MT0iMjUyIi8+PGxpbmUgeTI9IjI1NSIgZmlsbD0ibm9uZSIgeDE9IjEwOCIgeDI9IjEwNCIgc3Ryb2tlPSJibGFjayIgeTE9IjI1OCIvPjxsaW5lIGZpbGw9Im5vbmUiIHgxPSIzMDQiIHgyPSIxMDQiIHkxPSI0NTUiIHkyPSI0NTUiIHN0cm9rZS1kYXNoYXJyYXk9IjEwLDUiIHN0cm9rZT0iYmxhY2siLz48bGluZSB5Mj0iNDU1IiBmaWxsPSJub25lIiB4MT0iMTA4IiB4Mj0iMTA0IiBzdHJva2U9ImJsYWNrIiB5MT0iNDUyIi8+PGxpbmUgeTI9IjQ1NSIgZmlsbD0ibm9uZSIgeDE9IjEwOCIgeDI9IjEwNCIgc3Ryb2tlPSJibGFjayIgeTE9IjQ1OCIvPjwvZz48ZyB0ZXh0LXJlbmRlcmluZz0ib3B0aW1pemVMZWdpYmlsaXR5IiBzdHJva2UtbWl0ZXJsaW1pdD0iMTIiIGZvbnQtc2l6ZT0iMTFweCIgc3Ryb2tlLWRhc2hhcnJheT0iMTIsNiIgZm9udC1mYW1pbHk9InNhbnMtc2VyaWYiIHRyYW5zZm9ybT0idHJhbnNsYXRlKDAsMzApIj48bGluZSB5Mj0iNDkwIiBmaWxsPSJub25lIiB4MT0iNDY4IiB4Mj0iNDY4IiB5MT0iMCIvPjwvZz48ZyBmaWxsPSJyZ2IoMjU1LDIyNCwxNjcpIiB0ZXh0LXJlbmRlcmluZz0ib3B0aW1pemVMZWdpYmlsaXR5IiBmb250LXNpemU9IjExcHgiIGZvbnQtZmFtaWx5PSJzYW5zLXNlcmlmIiB0cmFuc2Zvcm09InRyYW5zbGF0ZSgwLDMwKSIgc3Ryb2tlPSJyZ2IoMjU1LDIyNCwxNjcpIj48cmVjdCB4PSI0NjQiIHdpZHRoPSI5IiBoZWlnaHQ9IjI1IiB5PSIyODAiIHN0cm9rZT0ibm9uZSIvPjxyZWN0IGZpbGw9Im5vbmUiIHg9IjQ2NCIgd2lkdGg9IjgiIGhlaWdodD0iMjQiIHk9IjI4MCIgc3Ryb2tlPSJibGFjayIvPjxyZWN0IHg9IjQ2NCIgd2lkdGg9IjkiIGhlaWdodD0iMjUiIHk9IjMzMCIgc3Ryb2tlPSJub25lIi8+PHJlY3QgZmlsbD0ibm9uZSIgeD0iNDY0IiB3aWR0aD0iOCIgaGVpZ2h0PSIyNCIgeT0iMzMwIiBzdHJva2U9ImJsYWNrIi8+PGxpbmUgZmlsbD0ibm9uZSIgeDE9IjQ2NCIgeDI9IjEwNCIgeTE9IjMwNSIgeTI9IjMwNSIgc3Ryb2tlLWRhc2hhcnJheT0iMTAsNSIgc3Ryb2tlPSJibGFjayIvPjxsaW5lIHkyPSIzMDUiIGZpbGw9Im5vbmUiIHgxPSIxMDgiIHgyPSIxMDQiIHN0cm9rZT0iYmxhY2siIHkxPSIzMDIiLz48bGluZSB5Mj0iMzA1IiBmaWxsPSJub25lIiB4MT0iMTA4IiB4Mj0iMTA0IiBzdHJva2U9ImJsYWNrIiB5MT0iMzA4Ii8+PGxpbmUgZmlsbD0ibm9uZSIgeDE9IjQ2NCIgeDI9IjEwNCIgeTE9IjM1NSIgeTI9IjM1NSIgc3Ryb2tlLWRhc2hhcnJheT0iMTAsNSIgc3Ryb2tlPSJibGFjayIvPjxsaW5lIHkyPSIzNTUiIGZpbGw9Im5vbmUiIHgxPSIxMDgiIHgyPSIxMDQiIHN0cm9rZT0iYmxhY2siIHkxPSIzNTIiLz48bGluZSB5Mj0iMzU1IiBmaWxsPSJub25lIiB4MT0iMTA4IiB4Mj0iMTA0IiBzdHJva2U9ImJsYWNrIiB5MT0iMzU4Ii8+PC9nPjxnIHRleHQtcmVuZGVyaW5nPSJvcHRpbWl6ZUxlZ2liaWxpdHkiIHN0cm9rZS1taXRlcmxpbWl0PSIxMiIgZm9udC1zaXplPSIxMXB4IiBzdHJva2UtZGFzaGFycmF5PSIxMiw2IiBmb250LWZhbWlseT0ic2Fucy1zZXJpZiIgdHJhbnNmb3JtPSJ0cmFuc2xhdGUoMCwzMCkiPjxsaW5lIHkyPSI0OTAiIGZpbGw9Im5vbmUiIHgxPSI1NjgiIHgyPSI1NjgiIHkxPSIwIi8+PC9nPjxnIGZpbGw9InJnYigyNTUsMjI0LDE2NykiIHRleHQtcmVuZGVyaW5nPSJvcHRpbWl6ZUxlZ2liaWxpdHkiIGZvbnQtc2l6ZT0iMTFweCIgZm9udC1mYW1pbHk9InNhbnMtc2VyaWYiIHRyYW5zZm9ybT0idHJhbnNsYXRlKDAsMzApIiBzdHJva2U9InJnYigyNTUsMjI0LDE2NykiPjxyZWN0IHg9IjU2NCIgd2lkdGg9IjkiIGhlaWdodD0iMjUiIHk9IjM4MCIgc3Ryb2tlPSJub25lIi8+PHJlY3QgZmlsbD0ibm9uZSIgeD0iNTY0IiB3aWR0aD0iOCIgaGVpZ2h0PSIyNCIgeT0iMzgwIiBzdHJva2U9ImJsYWNrIi8+PGxpbmUgZmlsbD0ibm9uZSIgeDE9IjU2NCIgeDI9IjEwNCIgeTE9IjQwNSIgeTI9IjQwNSIgc3Ryb2tlLWRhc2hhcnJheT0iMTAsNSIgc3Ryb2tlPSJibGFjayIvPjxsaW5lIHkyPSI0MDUiIGZpbGw9Im5vbmUiIHgxPSIxMDgiIHgyPSIxMDQiIHN0cm9rZT0iYmxhY2siIHkxPSI0MDIiLz48bGluZSB5Mj0iNDA1IiBmaWxsPSJub25lIiB4MT0iMTA4IiB4Mj0iMTA0IiBzdHJva2U9ImJsYWNrIiB5MT0iNDA4Ii8+PC9nPjwvZz48L3N2Zz4=;sketch=1;imageBorder=default;" vertex="1" parent="51">
                    <mxGeometry y="25" width="520" height="432" as="geometry"/>
                </mxCell>
                <mxCell id="45" value="FairSync#tryAcquire" style="rounded=0;whiteSpace=wrap;html=1;fillColor=#e1d5e7;strokeColor=#9673a6;comic=1;" vertex="1" parent="51">
                    <mxGeometry width="114.74" height="25" as="geometry"/>
                </mxCell>
                <mxCell id="46" value="&lt;span style=&quot;font-size: 10px&quot;&gt;&lt;font color=&quot;#6262fc&quot;&gt;获取AQS状态&lt;br&gt;（表示重入次数，若为0表示锁无人占用）&lt;/font&gt;&lt;/span&gt;" style="rounded=0;whiteSpace=wrap;html=1;fillColor=none;strokeColor=none;comic=1;align=left;sketch=1;" vertex="1" parent="51">
                    <mxGeometry x="264.74" y="135" width="190" height="30" as="geometry"/>
                </mxCell>
                <mxCell id="47" value="&lt;font color=&quot;#6262fc&quot;&gt;&lt;span style=&quot;font-size: 10px&quot;&gt;状态为0时，判断是否有前驱，有则返回false，若没有则CAS切换状态进行抢占&lt;br&gt;① 抢占成功，设置独占线程为当前线程，返回true&lt;br&gt;② 抢占失败，返回false&lt;br&gt;&lt;/span&gt;&lt;/font&gt;" style="rounded=0;whiteSpace=wrap;html=1;fillColor=none;strokeColor=none;comic=1;align=left;sketch=1;" vertex="1" parent="51">
                    <mxGeometry x="414.74" y="205" width="230" height="60" as="geometry"/>
                </mxCell>
                <mxCell id="48" value="" style="rounded=0;whiteSpace=wrap;html=1;fillColor=none;strokeColor=#b85450;comic=0;align=left;sketch=0;" vertex="1" parent="51">
                    <mxGeometry x="69.74000000000001" y="181" width="330" height="126" as="geometry"/>
                </mxCell>
                <mxCell id="49" value="" style="rounded=0;whiteSpace=wrap;html=1;fillColor=none;strokeColor=#b85450;comic=0;align=left;sketch=0;" vertex="1" parent="51">
                    <mxGeometry x="69.74000000000001" y="307" width="415" height="126" as="geometry"/>
                </mxCell>
                <mxCell id="50" value="&lt;font color=&quot;#6262fc&quot;&gt;&lt;span style=&quot;font-size: 10px&quot;&gt;状态不为0，判断独占线程是否是当前线程&lt;br&gt;① 是，锁重入，设置state+=acquires，返回true&lt;br&gt;② 否，锁被其他线程抢占，返回false&lt;br&gt;&lt;/span&gt;&lt;/font&gt;" style="rounded=0;whiteSpace=wrap;html=1;fillColor=none;strokeColor=none;comic=1;align=left;sketch=1;" vertex="1" parent="51">
                    <mxGeometry x="494.74" y="325" width="230" height="60" as="geometry"/>
                </mxCell>
                <mxCell id="52" value="" style="rounded=0;whiteSpace=wrap;html=1;fillColor=none;strokeColor=#b85450;comic=0;align=left;sketch=0;" vertex="1" parent="1">
                    <mxGeometry x="110" y="890" width="270" height="150" as="geometry"/>
                </mxCell>
                <mxCell id="53" value="" style="rounded=0;whiteSpace=wrap;html=1;fillColor=none;strokeColor=#b85450;comic=0;align=left;sketch=0;strokeWidth=1;" vertex="1" parent="1">
                    <mxGeometry x="440" y="620" width="110" height="60" as="geometry"/>
                </mxCell>
                <mxCell id="54" value="&lt;font color=&quot;#6262fc&quot;&gt;&lt;span style=&quot;font-size: 10px&quot;&gt;红框表示NonFairSync和FairSync的不同点：&lt;br&gt;① 多一项：&lt;b&gt;acquire前&lt;/b&gt;多一项&lt;b&gt;试图直接cas抢占&lt;/b&gt;&lt;br&gt;② 少一项：tryAcquire时当锁当前没人抢占式&lt;b&gt;不判断阻塞队列前面是否有节点&lt;/b&gt;试图cas抢占&lt;br&gt;&lt;/span&gt;&lt;/font&gt;" style="rounded=0;whiteSpace=wrap;html=1;fillColor=none;strokeColor=none;comic=1;align=left;sketch=1;" vertex="1" parent="1">
                    <mxGeometry x="40" y="1060" width="230" height="70" as="geometry"/>
                </mxCell>
                <mxCell id="57" value="初始" style="edgeStyle=none;sketch=1;html=1;exitX=1;exitY=0.5;exitDx=0;exitDy=0;entryX=0;entryY=0.5;entryDx=0;entryDy=0;fontSize=11;" edge="1" parent="1" source="55" target="56">
                    <mxGeometry relative="1" as="geometry"/>
                </mxCell>
                <mxCell id="55" value="&lt;div&gt;公平锁和非公平锁差别案例&lt;/div&gt;" style="rounded=0;whiteSpace=wrap;html=1;fillColor=#ffe6cc;strokeColor=#d79b00;comic=1;sketch=0;align=center;" vertex="1" parent="1">
                    <mxGeometry x="40" y="1240" width="100" height="40" as="geometry"/>
                </mxCell>
                <mxCell id="61" value="事件" style="edgeStyle=none;sketch=1;html=1;exitX=1;exitY=0.5;exitDx=0;exitDy=0;entryX=0;entryY=0.5;entryDx=0;entryDy=0;fontSize=11;" edge="1" parent="1" source="56" target="60">
                    <mxGeometry relative="1" as="geometry"/>
                </mxCell>
                <mxCell id="56" value="&lt;div&gt;现有①②③④号线程依次调用ReentrantLock#lock()获取锁，此时：&lt;/div&gt;&lt;div&gt;1）①线程获取到锁&lt;/div&gt;&lt;div&gt;2）②③④线程依次排队在阻塞队列中&lt;/div&gt;" style="rounded=0;whiteSpace=wrap;html=1;fillColor=#ffe6cc;strokeColor=#d79b00;comic=1;sketch=1;align=left;" vertex="1" parent="1">
                    <mxGeometry x="197.05" y="1225" width="229.91" height="70" as="geometry"/>
                </mxCell>
                <mxCell id="63" value="NonFairSync" style="edgeStyle=none;sketch=1;html=1;exitX=1;exitY=0.5;exitDx=0;exitDy=0;entryX=0;entryY=0.5;entryDx=0;entryDy=0;fontSize=11;" edge="1" parent="1" source="60" target="62">
                    <mxGeometry relative="1" as="geometry"/>
                </mxCell>
                <mxCell id="67" value="FairSync" style="edgeStyle=none;sketch=1;html=1;exitX=1;exitY=0.5;exitDx=0;exitDy=0;entryX=0;entryY=0.5;entryDx=0;entryDy=0;fontSize=11;" edge="1" parent="1" source="60" target="66">
                    <mxGeometry relative="1" as="geometry"/>
                </mxCell>
                <mxCell id="60" value="&lt;div&gt;①线程释放锁&lt;/div&gt;&lt;div&gt;⑤线程获取锁&lt;/div&gt;" style="rounded=0;whiteSpace=wrap;html=1;fillColor=#dae8fc;strokeColor=#6c8ebf;comic=1;sketch=1;align=center;" vertex="1" parent="1">
                    <mxGeometry x="480.26" y="1237.5" width="100" height="45" as="geometry"/>
                </mxCell>
                <mxCell id="65" value="结果" style="edgeStyle=none;sketch=1;html=1;exitX=1;exitY=0.5;exitDx=0;exitDy=0;entryX=0;entryY=0.5;entryDx=0;entryDy=0;fontSize=11;" edge="1" parent="1" source="62" target="64">
                    <mxGeometry relative="1" as="geometry"/>
                </mxCell>
                <mxCell id="62" value="&lt;div&gt;1）CPU1执行：①线程唤醒②线程，释放锁&lt;/div&gt;&lt;div&gt;2）CPU2执行：⑤线程获取锁，tryAcquire前先cas抢占，抢占成功&lt;/div&gt;" style="rounded=0;whiteSpace=wrap;html=1;fillColor=#ffe6cc;strokeColor=#d79b00;comic=1;sketch=1;align=left;" vertex="1" parent="1">
                    <mxGeometry x="660" y="1192.5" width="240" height="57.5" as="geometry"/>
                </mxCell>
                <mxCell id="64" value="1）⑤线程获取到锁&lt;br&gt;2）②③④线程依次排队在阻塞队列中" style="rounded=0;whiteSpace=wrap;html=1;fillColor=#d5e8d4;strokeColor=#82b366;comic=1;sketch=1;align=left;" vertex="1" parent="1">
                    <mxGeometry x="950" y="1197.5" width="210" height="47.5" as="geometry"/>
                </mxCell>
                <mxCell id="66" value="&lt;div&gt;1）CPU1执行：①线程唤醒②线程，释放锁&lt;/div&gt;&lt;div&gt;2）CPU2执行：⑤线程获取锁，发现state=0但阻塞队列中有前面等待的节点，获取失败进入队列&lt;/div&gt;" style="rounded=0;whiteSpace=wrap;html=1;fillColor=#ffe6cc;strokeColor=#d79b00;comic=1;sketch=1;align=left;" vertex="1" parent="1">
                    <mxGeometry x="660" y="1260" width="240" height="70" as="geometry"/>
                </mxCell>
                <mxCell id="68" value="结果" style="edgeStyle=none;sketch=1;html=1;exitX=1;exitY=0.5;exitDx=0;exitDy=0;entryX=0;entryY=0.5;entryDx=0;entryDy=0;fontSize=11;" edge="1" target="69" parent="1" source="66">
                    <mxGeometry relative="1" as="geometry">
                        <mxPoint x="900" y="1303.75" as="sourcePoint"/>
                    </mxGeometry>
                </mxCell>
                <mxCell id="69" value="1）②线程获取到锁&lt;br&gt;2）③④⑤线程依次排队在阻塞队列中" style="rounded=0;whiteSpace=wrap;html=1;fillColor=#d5e8d4;strokeColor=#82b366;comic=1;sketch=1;align=left;" vertex="1" parent="1">
                    <mxGeometry x="950" y="1271.25" width="210" height="47.5" as="geometry"/>
                </mxCell>
                <mxCell id="70" value="" style="shape=image;verticalLabelPosition=bottom;labelBackgroundColor=#ffffff;verticalAlign=top;aspect=fixed;imageAspect=0;image=data:image/svg+xml,PHN2ZyB4bWxuczp4bGluaz0iaHR0cDovL3d3dy53My5vcmcvMTk5OS94bGluayIgeG1sbnM9Imh0dHA6Ly93d3cudzMub3JnLzIwMDAvc3ZnIiBmaWxsLW9wYWNpdHk9IjEiIGNvbG9yLXJlbmRlcmluZz0iYXV0byIgY29sb3ItaW50ZXJwb2xhdGlvbj0iYXV0byIgdGV4dC1yZW5kZXJpbmc9ImF1dG8iIHN0cm9rZT0iYmxhY2siIHN0cm9rZS1saW5lY2FwPSJzcXVhcmUiIHdpZHRoPSI3ODUiIHN0cm9rZS1taXRlcmxpbWl0PSIxMCIgc2hhcGUtcmVuZGVyaW5nPSJhdXRvIiBzdHJva2Utb3BhY2l0eT0iMSIgZmlsbD0iYmxhY2siIHN0cm9rZS1kYXNoYXJyYXk9Im5vbmUiIGZvbnQtd2VpZ2h0PSJub3JtYWwiIHN0cm9rZS13aWR0aD0iMSIgaGVpZ2h0PSI0MjAiIGZvbnQtZmFtaWx5PSInRGlhbG9nJyIgZm9udC1zdHlsZT0ibm9ybWFsIiBzdHJva2UtbGluZWpvaW49Im1pdGVyIiBmb250LXNpemU9IjEycHgiIHN0cm9rZS1kYXNob2Zmc2V0PSIwIiBpbWFnZS1yZW5kZXJpbmc9ImF1dG8iIHZpZXdCb3g9IjAgMCA3ODUgNDIwIj48IS0tR2VuZXJhdGVkIGJ5IHRoZSBCYXRpayBHcmFwaGljczJEIFNWRyBHZW5lcmF0b3ItLT48ZGVmcyBpZD0iZ2VuZXJpY0RlZnMiLz48Zz48ZyBmaWxsPSJyZ2IoMjU1LDI1NSwxOTIpIiB0ZXh0LXJlbmRlcmluZz0ib3B0aW1pemVMZWdpYmlsaXR5IiBmb250LXNpemU9IjExcHgiIGZvbnQtZmFtaWx5PSJzYW5zLXNlcmlmIiBzdHJva2U9InJnYigyNTUsMjU1LDE5MikiPjxyZWN0IHg9IjUiIHdpZHRoPSIzNiIgaGVpZ2h0PSIyNSIgeT0iNSIgc3Ryb2tlPSJub25lIi8+PHJlY3QgZmlsbD0ibm9uZSIgeD0iNSIgd2lkdGg9IjM1IiBoZWlnaHQ9IjI0IiB5PSI1IiBzdHJva2U9ImJsYWNrIi8+PHRleHQgZmlsbD0icmdiKDY0LDY0LDY0KSIgeD0iMTAiIHhtbDpzcGFjZT0icHJlc2VydmUiIHk9IjIyIiBzdHJva2U9Im5vbmUiPkFjdG9yPC90ZXh0PjxyZWN0IGZpbGw9InJnYigyNTUsMjA5LDIwNikiIHg9IjgyIiB3aWR0aD0iMzUiIGhlaWdodD0iMjUiIHk9IjUiIHN0cm9rZT0ibm9uZSIvPjxyZWN0IGZpbGw9Im5vbmUiIHg9IjgyIiB3aWR0aD0iMzQiIGhlaWdodD0iMjQiIHk9IjUiIHN0cm9rZT0iYmxhY2siLz48L2c+PGcgZmlsbD0icmdiKDY0LDY0LDY0KSIgZm9udC1zdHlsZT0iaXRhbGljIiB0ZXh0LXJlbmRlcmluZz0ib3B0aW1pemVMZWdpYmlsaXR5IiBmb250LXNpemU9IjExcHgiIHN0cm9rZT0icmdiKDY0LDY0LDY0KSI+PHRleHQgeD0iODciIHhtbDpzcGFjZT0icHJlc2VydmUiIHk9IjIyIiBzdHJva2U9Im5vbmUiPlN5bmM8L3RleHQ+PC9nPjxnIGZpbGw9InJnYigyNTUsMjA5LDIwNikiIHRleHQtcmVuZGVyaW5nPSJvcHRpbWl6ZUxlZ2liaWxpdHkiIGZvbnQtc2l6ZT0iMTFweCIgZm9udC1mYW1pbHk9InNhbnMtc2VyaWYiIHN0cm9rZT0icmdiKDI1NSwyMDksMjA2KSI+PHJlY3QgeD0iMTIyIiB3aWR0aD0iMTUzIiBoZWlnaHQ9IjI1IiB5PSI1IiBzdHJva2U9Im5vbmUiLz48cmVjdCBmaWxsPSJub25lIiB4PSIxMjIiIHdpZHRoPSIxNTIiIGhlaWdodD0iMjQiIHk9IjUiIHN0cm9rZT0iYmxhY2siLz48L2c+PGcgZmlsbD0icmdiKDY0LDY0LDY0KSIgZm9udC1zdHlsZT0iaXRhbGljIiB0ZXh0LXJlbmRlcmluZz0ib3B0aW1pemVMZWdpYmlsaXR5IiBmb250LXNpemU9IjExcHgiIHN0cm9rZT0icmdiKDY0LDY0LDY0KSI+PHRleHQgeD0iMTI3IiB4bWw6c3BhY2U9InByZXNlcnZlIiB5PSIyMiIgc3Ryb2tlPSJub25lIj5BYnN0cmFjdFF1ZXVlZFN5bmNocm9uaXplcjwvdGV4dD48L2c+PGcgZmlsbD0icmdiKDI1NSwyMDksMjA2KSIgdGV4dC1yZW5kZXJpbmc9Im9wdGltaXplTGVnaWJpbGl0eSIgZm9udC1zaXplPSIxMXB4IiBmb250LWZhbWlseT0ic2Fucy1zZXJpZiIgc3Ryb2tlPSJyZ2IoMjU1LDIwOSwyMDYpIj48cmVjdCB4PSIyODAiIHdpZHRoPSI0NCIgaGVpZ2h0PSIyNSIgeT0iNSIgc3Ryb2tlPSJub25lIi8+PHJlY3QgZmlsbD0ibm9uZSIgeD0iMjgwIiB3aWR0aD0iNDMiIGhlaWdodD0iMjQiIHk9IjUiIHN0cm9rZT0iYmxhY2siLz48dGV4dCBmaWxsPSJyZ2IoNjQsNjQsNjQpIiB4PSIyODUiIHhtbDpzcGFjZT0icHJlc2VydmUiIHk9IjIyIiBzdHJva2U9Im5vbmUiPlRocmVhZDwvdGV4dD48cmVjdCB4PSIzMjkiIHdpZHRoPSIxNTYiIGhlaWdodD0iMjUiIHk9IjUiIHN0cm9rZT0ibm9uZSIvPjxyZWN0IGZpbGw9Im5vbmUiIHg9IjMyOSIgd2lkdGg9IjE1NSIgaGVpZ2h0PSIyNCIgeT0iNSIgc3Ryb2tlPSJibGFjayIvPjwvZz48ZyBmaWxsPSJyZ2IoNjQsNjQsNjQpIiBmb250LXN0eWxlPSJpdGFsaWMiIHRleHQtcmVuZGVyaW5nPSJvcHRpbWl6ZUxlZ2liaWxpdHkiIGZvbnQtc2l6ZT0iMTFweCIgc3Ryb2tlPSJyZ2IoNjQsNjQsNjQpIj48dGV4dCB4PSIzMzQiIHhtbDpzcGFjZT0icHJlc2VydmUiIHk9IjIyIiBzdHJva2U9Im5vbmUiPkFic3RyYWN0T3duYWJsZVN5bmNocm9uaXplcjwvdGV4dD48L2c+PGcgZmlsbD0icmdiKDI1NSwyMDksMjA2KSIgdGV4dC1yZW5kZXJpbmc9Im9wdGltaXplTGVnaWJpbGl0eSIgZm9udC1zaXplPSIxMXB4IiBmb250LWZhbWlseT0ic2Fucy1zZXJpZiIgc3Ryb2tlPSJyZ2IoMjU1LDIwOSwyMDYpIj48cmVjdCB4PSI0OTAiIHdpZHRoPSIxNDUiIGhlaWdodD0iMjUiIHk9IjUiIHN0cm9rZT0ibm9uZSIvPjxyZWN0IGZpbGw9Im5vbmUiIHg9IjQ5MCIgd2lkdGg9IjE0NCIgaGVpZ2h0PSIyNCIgeT0iNSIgc3Ryb2tlPSJibGFjayIvPjx0ZXh0IGZpbGw9InJnYig2NCw2NCw2NCkiIHg9IjQ5NSIgeG1sOnNwYWNlPSJwcmVzZXJ2ZSIgeT0iMjIiIHN0cm9rZT0ibm9uZSI+SWxsZWdhbE1vbml0b3JTdGF0ZUV4Y2VwdGlvbjwvdGV4dD48L2c+PGcgdGV4dC1yZW5kZXJpbmc9Im9wdGltaXplTGVnaWJpbGl0eSIgc3Ryb2tlLW1pdGVybGltaXQ9IjEyIiBmb250LXNpemU9IjExcHgiIHN0cm9rZS1kYXNoYXJyYXk9IjEyLDYiIGZvbnQtZmFtaWx5PSJzYW5zLXNlcmlmIiB0cmFuc2Zvcm09InRyYW5zbGF0ZSgwLDMwKSI+PGxpbmUgeTI9IjM5MCIgZmlsbD0ibm9uZSIgeDE9IjIzIiB4Mj0iMjMiIHkxPSIwIi8+PHRleHQgeD0iMzAiIHhtbDpzcGFjZT0icHJlc2VydmUiIHN0cm9rZS1taXRlcmxpbWl0PSIxMCIgc3Ryb2tlLWRhc2hhcnJheT0ibm9uZSIgeT0iNDciIHN0cm9rZT0ibm9uZSI+MTp0cnlSZWxlYXNlPC90ZXh0PjxsaW5lIGZpbGw9Im5vbmUiIHgxPSIyNSIgeDI9Ijk1IiB5MT0iNTUiIHkyPSI1NSIgc3Ryb2tlLWRhc2hhcnJheT0ibm9uZSIgc3Ryb2tlLW1pdGVybGltaXQ9IjEwIi8+PHBhdGggc3Ryb2tlLW1pdGVybGltaXQ9IjEwIiBzdHJva2UtZGFzaGFycmF5PSJub25lIiBkPSJNOTEgNTIgTDk1IDU1IEw5MSA1OCBaIiBzdHJva2U9Im5vbmUiLz48bGluZSB5Mj0iMzkwIiBmaWxsPSJub25lIiB4MT0iOTkiIHgyPSI5OSIgeTE9IjAiLz48L2c+PGcgZmlsbD0icmdiKDI1NSwyMjQsMTY3KSIgdGV4dC1yZW5kZXJpbmc9Im9wdGltaXplTGVnaWJpbGl0eSIgZm9udC1zaXplPSIxMXB4IiBmb250LWZhbWlseT0ic2Fucy1zZXJpZiIgdHJhbnNmb3JtPSJ0cmFuc2xhdGUoMCwzMCkiIHN0cm9rZT0icmdiKDI1NSwyMjQsMTY3KSI+PHJlY3QgeD0iOTUiIHdpZHRoPSI5IiBoZWlnaHQ9IjMyNSIgeT0iNTUiIHN0cm9rZT0ibm9uZSIvPjxyZWN0IGZpbGw9Im5vbmUiIHg9Ijk1IiB3aWR0aD0iOCIgaGVpZ2h0PSIzMjQiIHk9IjU1IiBzdHJva2U9ImJsYWNrIi8+PHRleHQgZmlsbD0iYmxhY2siIHg9IjEzMSIgeG1sOnNwYWNlPSJwcmVzZXJ2ZSIgeT0iNzIiIHN0cm9rZT0ibm9uZSI+MS4xOmdldFN0YXRlPC90ZXh0PjwvZz48ZyB0ZXh0LXJlbmRlcmluZz0ib3B0aW1pemVMZWdpYmlsaXR5IiBzdHJva2UtbWl0ZXJsaW1pdD0iNiIgZm9udC1zaXplPSIxMXB4IiBzdHJva2UtZGFzaGFycmF5PSI2LDMiIGZvbnQtZmFtaWx5PSJzYW5zLXNlcmlmIiB0cmFuc2Zvcm09InRyYW5zbGF0ZSgwLDMwKSI+PGxpbmUgeTI9IjgwIiBmaWxsPSJub25lIiB4MT0iMTA0IiB4Mj0iMTk0IiB5MT0iODAiLz48cGF0aCBzdHJva2UtbWl0ZXJsaW1pdD0iMTAiIHN0cm9rZS1kYXNoYXJyYXk9Im5vbmUiIGQ9Ik0xOTAgNzcgTDE5NCA4MCBMMTkwIDgzIFoiIHN0cm9rZT0ibm9uZSIvPjx0ZXh0IHg9IjIwNiIgeG1sOnNwYWNlPSJwcmVzZXJ2ZSIgc3Ryb2tlLW1pdGVybGltaXQ9IjEwIiBzdHJva2UtZGFzaGFycmF5PSJub25lIiB5PSIxMjIiIHN0cm9rZT0ibm9uZSI+MS4yOmN1cnJlbnRUaHJlYWQ8L3RleHQ+PGxpbmUgZmlsbD0ibm9uZSIgeDE9IjIwNiIgeDI9IjI5MyIgeTE9IjEyNCIgeTI9IjEyNCIgc3Ryb2tlLWRhc2hhcnJheT0ibm9uZSIgc3Ryb2tlLW1pdGVybGltaXQ9IjEwIi8+PGxpbmUgeTI9IjEzMCIgZmlsbD0ibm9uZSIgeDE9IjEwNCIgeDI9IjI5OCIgeTE9IjEzMCIvPjxwYXRoIHN0cm9rZS1taXRlcmxpbWl0PSIxMCIgc3Ryb2tlLWRhc2hhcnJheT0ibm9uZSIgZD0iTTI5NCAxMjcgTDI5OCAxMzAgTDI5NCAxMzMgWiIgc3Ryb2tlPSJub25lIi8+PHRleHQgeD0iMjU1IiB4bWw6c3BhY2U9InByZXNlcnZlIiBzdHJva2UtbWl0ZXJsaW1pdD0iMTAiIHN0cm9rZS1kYXNoYXJyYXk9Im5vbmUiIHk9IjE3MiIgc3Ryb2tlPSJub25lIj4xLjM6Z2V0RXhjbHVzaXZlT3duZXJUaHJlYWQ8L3RleHQ+PGxpbmUgeTI9IjE4MCIgZmlsbD0ibm9uZSIgeDE9IjEwNCIgeDI9IjQwMyIgeTE9IjE4MCIvPjxwYXRoIHN0cm9rZS1taXRlcmxpbWl0PSIxMCIgc3Ryb2tlLWRhc2hhcnJheT0ibm9uZSIgZD0iTTM5OSAxNzcgTDQwMyAxODAgTDM5OSAxODMgWiIgc3Ryb2tlPSJub25lIi8+PHJlY3QgeD0iNDc1IiB5PSIyMTAiIGZpbGw9Im5vbmUiIHdpZHRoPSI3OCIgc3Ryb2tlLWRhc2hhcnJheT0iNCwyIiBoZWlnaHQ9IjE3IiBzdHJva2UtbWl0ZXJsaW1pdD0iNCIvPjwvZz48ZyBmb250LXNpemU9IjExcHgiIHN0cm9rZS1saW5lY2FwPSJyb3VuZCIgdHJhbnNmb3JtPSJ0cmFuc2xhdGUoMCwzMCkiIHRleHQtcmVuZGVyaW5nPSJvcHRpbWl6ZUxlZ2liaWxpdHkiIGZvbnQtZmFtaWx5PSJzYW5zLXNlcmlmIiBzdHJva2UtbGluZWpvaW49InJvdW5kIiBzdHJva2Utd2lkdGg9IjEuNSI+PHRleHQgeD0iNDc3IiB4bWw6c3BhY2U9InByZXNlcnZlIiB5PSIyMjIiIHN0cm9rZT0ibm9uZSI+MS40OiZsdDsmbHQ7Y3JlYXRlJmd0OyZndDs8L3RleHQ+PC9nPjxnIHRleHQtcmVuZGVyaW5nPSJvcHRpbWl6ZUxlZ2liaWxpdHkiIHN0cm9rZS1taXRlcmxpbWl0PSI2IiBmb250LXNpemU9IjExcHgiIHN0cm9rZS1kYXNoYXJyYXk9IjYsMyIgZm9udC1mYW1pbHk9InNhbnMtc2VyaWYiIHRyYW5zZm9ybT0idHJhbnNsYXRlKDAsMzApIj48bGluZSB5Mj0iMjMxIiBmaWxsPSJub25lIiB4MT0iMTA0IiB4Mj0iNTU4IiB5MT0iMjMxIi8+PC9nPjxnIGZvbnQtc2l6ZT0iMTFweCIgc3Ryb2tlLWxpbmVjYXA9InJvdW5kIiB0cmFuc2Zvcm09InRyYW5zbGF0ZSgwLDMwKSIgdGV4dC1yZW5kZXJpbmc9Im9wdGltaXplTGVnaWJpbGl0eSIgZm9udC1mYW1pbHk9InNhbnMtc2VyaWYiIHN0cm9rZS1saW5lam9pbj0icm91bmQiIHN0cm9rZS13aWR0aD0iMS41Ij48cGF0aCBkPSJNNTU0IDIyOCBMNTU4IDIzMSBMNTU0IDIzNCBaIiBzdHJva2U9Im5vbmUiLz48dGV4dCBzdHJva2UtbGluZWNhcD0ic3F1YXJlIiB4PSIyNTYiIHk9IjI3MiIgc3Ryb2tlLWxpbmVqb2luPSJtaXRlciIgc3Ryb2tlPSJub25lIiBzdHJva2Utd2lkdGg9IjEiIHhtbDpzcGFjZT0icHJlc2VydmUiPjEuNTpzZXRFeGNsdXNpdmVPd25lclRocmVhZDwvdGV4dD48L2c+PGcgdGV4dC1yZW5kZXJpbmc9Im9wdGltaXplTGVnaWJpbGl0eSIgc3Ryb2tlLW1pdGVybGltaXQ9IjYiIGZvbnQtc2l6ZT0iMTFweCIgc3Ryb2tlLWRhc2hhcnJheT0iNiwzIiBmb250LWZhbWlseT0ic2Fucy1zZXJpZiIgdHJhbnNmb3JtPSJ0cmFuc2xhdGUoMCwzMCkiPjxsaW5lIHkyPSIyODAiIGZpbGw9Im5vbmUiIHgxPSIxMDQiIHgyPSI0MDMiIHkxPSIyODAiLz48cGF0aCBzdHJva2UtbWl0ZXJsaW1pdD0iMTAiIHN0cm9rZS1kYXNoYXJyYXk9Im5vbmUiIGQ9Ik0zOTkgMjc3IEw0MDMgMjgwIEwzOTkgMjgzIFoiIHN0cm9rZT0ibm9uZSIvPjx0ZXh0IHg9IjEzMiIgeG1sOnNwYWNlPSJwcmVzZXJ2ZSIgc3Ryb2tlLW1pdGVybGltaXQ9IjEwIiBzdHJva2UtZGFzaGFycmF5PSJub25lIiB5PSIzMjIiIHN0cm9rZT0ibm9uZSI+MS42OnNldFN0YXRlPC90ZXh0PjxsaW5lIHkyPSIzMzAiIGZpbGw9Im5vbmUiIHgxPSIxMDQiIHgyPSIxOTQiIHkxPSIzMzAiLz48cGF0aCBzdHJva2UtbWl0ZXJsaW1pdD0iMTAiIHN0cm9rZS1kYXNoYXJyYXk9Im5vbmUiIGQ9Ik0xOTAgMzI3IEwxOTQgMzMwIEwxOTAgMzMzIFoiIHN0cm9rZT0ibm9uZSIvPjxsaW5lIGZpbGw9Im5vbmUiIHgxPSIxOTgiIHgyPSIxOTgiIHkxPSIwIiB5Mj0iMzkwIiBzdHJva2UtZGFzaGFycmF5PSIxMiw2IiBzdHJva2UtbWl0ZXJsaW1pdD0iMTIiLz48L2c+PGcgZmlsbD0icmdiKDI1NSwyMjQsMTY3KSIgdGV4dC1yZW5kZXJpbmc9Im9wdGltaXplTGVnaWJpbGl0eSIgZm9udC1zaXplPSIxMXB4IiBmb250LWZhbWlseT0ic2Fucy1zZXJpZiIgdHJhbnNmb3JtPSJ0cmFuc2xhdGUoMCwzMCkiIHN0cm9rZT0icmdiKDI1NSwyMjQsMTY3KSI+PHJlY3QgeD0iMTk0IiB3aWR0aD0iOSIgaGVpZ2h0PSIyNSIgeT0iODAiIHN0cm9rZT0ibm9uZSIvPjxyZWN0IGZpbGw9Im5vbmUiIHg9IjE5NCIgd2lkdGg9IjgiIGhlaWdodD0iMjQiIHk9IjgwIiBzdHJva2U9ImJsYWNrIi8+PHJlY3QgeD0iMTk0IiB3aWR0aD0iOSIgaGVpZ2h0PSIyNSIgeT0iMzMwIiBzdHJva2U9Im5vbmUiLz48cmVjdCBmaWxsPSJub25lIiB4PSIxOTQiIHdpZHRoPSI4IiBoZWlnaHQ9IjI0IiB5PSIzMzAiIHN0cm9rZT0iYmxhY2siLz48bGluZSBmaWxsPSJub25lIiB4MT0iMTk0IiB4Mj0iMTA0IiB5MT0iMTA1IiB5Mj0iMTA1IiBzdHJva2UtZGFzaGFycmF5PSIxMCw1IiBzdHJva2U9ImJsYWNrIi8+PGxpbmUgeTI9IjEwNSIgZmlsbD0ibm9uZSIgeDE9IjEwOCIgeDI9IjEwNCIgc3Ryb2tlPSJibGFjayIgeTE9IjEwMiIvPjxsaW5lIHkyPSIxMDUiIGZpbGw9Im5vbmUiIHgxPSIxMDgiIHgyPSIxMDQiIHN0cm9rZT0iYmxhY2siIHkxPSIxMDgiLz48bGluZSBmaWxsPSJub25lIiB4MT0iMTk0IiB4Mj0iMTA0IiB5MT0iMzU1IiB5Mj0iMzU1IiBzdHJva2UtZGFzaGFycmF5PSIxMCw1IiBzdHJva2U9ImJsYWNrIi8+PGxpbmUgeTI9IjM1NSIgZmlsbD0ibm9uZSIgeDE9IjEwOCIgeDI9IjEwNCIgc3Ryb2tlPSJibGFjayIgeTE9IjM1MiIvPjxsaW5lIHkyPSIzNTUiIGZpbGw9Im5vbmUiIHgxPSIxMDgiIHgyPSIxMDQiIHN0cm9rZT0iYmxhY2siIHkxPSIzNTgiLz48L2c+PGcgdGV4dC1yZW5kZXJpbmc9Im9wdGltaXplTGVnaWJpbGl0eSIgc3Ryb2tlLW1pdGVybGltaXQ9IjEyIiBmb250LXNpemU9IjExcHgiIHN0cm9rZS1kYXNoYXJyYXk9IjEyLDYiIGZvbnQtZmFtaWx5PSJzYW5zLXNlcmlmIiB0cmFuc2Zvcm09InRyYW5zbGF0ZSgwLDMwKSI+PGxpbmUgeTI9IjM5MCIgZmlsbD0ibm9uZSIgeDE9IjMwMiIgeDI9IjMwMiIgeTE9IjAiLz48L2c+PGcgZmlsbD0icmdiKDI1NSwyMjQsMTY3KSIgdGV4dC1yZW5kZXJpbmc9Im9wdGltaXplTGVnaWJpbGl0eSIgZm9udC1zaXplPSIxMXB4IiBmb250LWZhbWlseT0ic2Fucy1zZXJpZiIgdHJhbnNmb3JtPSJ0cmFuc2xhdGUoMCwzMCkiIHN0cm9rZT0icmdiKDI1NSwyMjQsMTY3KSI+PHJlY3QgeD0iMjk4IiB3aWR0aD0iOSIgaGVpZ2h0PSIyNSIgeT0iMTMwIiBzdHJva2U9Im5vbmUiLz48cmVjdCBmaWxsPSJub25lIiB4PSIyOTgiIHdpZHRoPSI4IiBoZWlnaHQ9IjI0IiB5PSIxMzAiIHN0cm9rZT0iYmxhY2siLz48bGluZSBmaWxsPSJub25lIiB4MT0iMjk4IiB4Mj0iMTA0IiB5MT0iMTU1IiB5Mj0iMTU1IiBzdHJva2UtZGFzaGFycmF5PSIxMCw1IiBzdHJva2U9ImJsYWNrIi8+PGxpbmUgeTI9IjE1NSIgZmlsbD0ibm9uZSIgeDE9IjEwOCIgeDI9IjEwNCIgc3Ryb2tlPSJibGFjayIgeTE9IjE1MiIvPjxsaW5lIHkyPSIxNTUiIGZpbGw9Im5vbmUiIHgxPSIxMDgiIHgyPSIxMDQiIHN0cm9rZT0iYmxhY2siIHkxPSIxNTgiLz48L2c+PGcgdGV4dC1yZW5kZXJpbmc9Im9wdGltaXplTGVnaWJpbGl0eSIgc3Ryb2tlLW1pdGVybGltaXQ9IjEyIiBmb250LXNpemU9IjExcHgiIHN0cm9rZS1kYXNoYXJyYXk9IjEyLDYiIGZvbnQtZmFtaWx5PSJzYW5zLXNlcmlmIiB0cmFuc2Zvcm09InRyYW5zbGF0ZSgwLDMwKSI+PGxpbmUgeTI9IjM5MCIgZmlsbD0ibm9uZSIgeDE9IjQwNyIgeDI9IjQwNyIgeTE9IjAiLz48L2c+PGcgZmlsbD0icmdiKDI1NSwyMjQsMTY3KSIgdGV4dC1yZW5kZXJpbmc9Im9wdGltaXplTGVnaWJpbGl0eSIgZm9udC1zaXplPSIxMXB4IiBmb250LWZhbWlseT0ic2Fucy1zZXJpZiIgdHJhbnNmb3JtPSJ0cmFuc2xhdGUoMCwzMCkiIHN0cm9rZT0icmdiKDI1NSwyMjQsMTY3KSI+PHJlY3QgeD0iNDAzIiB3aWR0aD0iOSIgaGVpZ2h0PSIyNSIgeT0iMTgwIiBzdHJva2U9Im5vbmUiLz48cmVjdCBmaWxsPSJub25lIiB4PSI0MDMiIHdpZHRoPSI4IiBoZWlnaHQ9IjI0IiB5PSIxODAiIHN0cm9rZT0iYmxhY2siLz48cmVjdCB4PSI0MDMiIHdpZHRoPSI5IiBoZWlnaHQ9IjI1IiB5PSIyODAiIHN0cm9rZT0ibm9uZSIvPjxyZWN0IGZpbGw9Im5vbmUiIHg9IjQwMyIgd2lkdGg9IjgiIGhlaWdodD0iMjQiIHk9IjI4MCIgc3Ryb2tlPSJibGFjayIvPjxsaW5lIGZpbGw9Im5vbmUiIHgxPSI0MDMiIHgyPSIxMDQiIHkxPSIyMDUiIHkyPSIyMDUiIHN0cm9rZS1kYXNoYXJyYXk9IjEwLDUiIHN0cm9rZT0iYmxhY2siLz48bGluZSB5Mj0iMjA1IiBmaWxsPSJub25lIiB4MT0iMTA4IiB4Mj0iMTA0IiBzdHJva2U9ImJsYWNrIiB5MT0iMjAyIi8+PGxpbmUgeTI9IjIwNSIgZmlsbD0ibm9uZSIgeDE9IjEwOCIgeDI9IjEwNCIgc3Ryb2tlPSJibGFjayIgeTE9IjIwOCIvPjxsaW5lIGZpbGw9Im5vbmUiIHgxPSI0MDMiIHgyPSIxMDQiIHkxPSIzMDUiIHkyPSIzMDUiIHN0cm9rZS1kYXNoYXJyYXk9IjEwLDUiIHN0cm9rZT0iYmxhY2siLz48bGluZSB5Mj0iMzA1IiBmaWxsPSJub25lIiB4MT0iMTA4IiB4Mj0iMTA0IiBzdHJva2U9ImJsYWNrIiB5MT0iMzAyIi8+PGxpbmUgeTI9IjMwNSIgZmlsbD0ibm9uZSIgeDE9IjEwOCIgeDI9IjEwNCIgc3Ryb2tlPSJibGFjayIgeTE9IjMwOCIvPjwvZz48ZyB0ZXh0LXJlbmRlcmluZz0ib3B0aW1pemVMZWdpYmlsaXR5IiBzdHJva2UtbWl0ZXJsaW1pdD0iMTIiIGZvbnQtc2l6ZT0iMTFweCIgc3Ryb2tlLWRhc2hhcnJheT0iMTIsNiIgZm9udC1mYW1pbHk9InNhbnMtc2VyaWYiIHRyYW5zZm9ybT0idHJhbnNsYXRlKDAsMzApIj48bGluZSB5Mj0iMzkwIiBmaWxsPSJub25lIiB4MT0iNTYyIiB4Mj0iNTYyIiB5MT0iMCIvPjwvZz48ZyBmaWxsPSJyZ2IoMjU1LDIyNCwxNjcpIiB0ZXh0LXJlbmRlcmluZz0ib3B0aW1pemVMZWdpYmlsaXR5IiBmb250LXNpemU9IjExcHgiIGZvbnQtZmFtaWx5PSJzYW5zLXNlcmlmIiB0cmFuc2Zvcm09InRyYW5zbGF0ZSgwLDMwKSIgc3Ryb2tlPSJyZ2IoMjU1LDIyNCwxNjcpIj48cmVjdCB4PSI1NTgiIHdpZHRoPSI5IiBoZWlnaHQ9IjI1IiB5PSIyMzAiIHN0cm9rZT0ibm9uZSIvPjxyZWN0IGZpbGw9Im5vbmUiIHg9IjU1OCIgd2lkdGg9IjgiIGhlaWdodD0iMjQiIHk9IjIzMCIgc3Ryb2tlPSJibGFjayIvPjxsaW5lIGZpbGw9Im5vbmUiIHgxPSI1NTgiIHgyPSIxMDQiIHkxPSIyNTUiIHkyPSIyNTUiIHN0cm9rZS1kYXNoYXJyYXk9IjEwLDUiIHN0cm9rZT0iYmxhY2siLz48bGluZSB5Mj0iMjU1IiBmaWxsPSJub25lIiB4MT0iMTA4IiB4Mj0iMTA0IiBzdHJva2U9ImJsYWNrIiB5MT0iMjUyIi8+PGxpbmUgeTI9IjI1NSIgZmlsbD0ibm9uZSIgeDE9IjEwOCIgeDI9IjEwNCIgc3Ryb2tlPSJibGFjayIgeTE9IjI1OCIvPjwvZz48L2c+PC9zdmc+;sketch=1;imageBorder=default;" vertex="1" parent="1">
                    <mxGeometry x="1070" y="870" width="542.45" height="290" as="geometry"/>
                </mxCell>
                <mxCell id="79" value="Sync#tryRelease" style="rounded=0;whiteSpace=wrap;html=1;fillColor=#e1d5e7;strokeColor=#9673a6;comic=1;" vertex="1" parent="1">
                    <mxGeometry x="1070" y="844" width="100" height="25" as="geometry"/>
                </mxCell>
                <mxCell id="88" value="&lt;font color=&quot;#6262fc&quot;&gt;&lt;span style=&quot;font-size: 10px&quot;&gt;获取原state和当前线程&lt;br&gt;c = state - releases&lt;br&gt;&lt;/span&gt;&lt;/font&gt;" style="rounded=0;whiteSpace=wrap;html=1;fillColor=none;strokeColor=none;comic=1;align=left;sketch=1;" vertex="1" parent="1">
                    <mxGeometry x="1300" y="940" width="110" height="30" as="geometry"/>
                </mxCell>
                <mxCell id="89" value="&lt;font color=&quot;#6262fc&quot;&gt;&lt;span style=&quot;font-size: 10px&quot;&gt;判断独占线程是否为当前线程，若不是则报错&lt;br&gt;&lt;/span&gt;&lt;/font&gt;" style="rounded=0;whiteSpace=wrap;html=1;fillColor=none;strokeColor=none;comic=1;align=left;sketch=1;" vertex="1" parent="1">
                    <mxGeometry x="1370" y="997.5" width="110" height="35" as="geometry"/>
                </mxCell>
                <mxCell id="90" value="&lt;font color=&quot;#6262fc&quot;&gt;&lt;span style=&quot;font-size: 10px&quot;&gt;① c=0时释放独占锁&lt;br&gt;② setState(c)&lt;br&gt;&lt;/span&gt;&lt;/font&gt;" style="rounded=0;whiteSpace=wrap;html=1;fillColor=none;strokeColor=none;comic=1;align=left;sketch=1;" vertex="1" parent="1">
                    <mxGeometry x="1370" y="1087.5" width="100" height="35" as="geometry"/>
                </mxCell>
                <mxCell id="91" value="" style="rounded=0;whiteSpace=wrap;html=1;fillColor=none;strokeColor=#b85450;comic=0;align=left;sketch=0;" vertex="1" parent="1">
                    <mxGeometry x="1130" y="1070" width="230" height="70" as="geometry"/>
                </mxCell>
            </root>
        </mxGraphModel>
    </diagram>
</mxfile>